<svg width="40" height="31" viewBox="0 0 40 31" fill="none" xmlns="http://www.w3.org/2000/svg">
<path d="M0.692813 15.84C0.692813 13.5733 1.09281 11.52 1.89281 9.68C2.69281 7.84 3.78615 6.26667 5.17281 4.96C6.55948 3.65333 8.18615 2.65333 10.0528 1.96C11.9461 1.24 13.9595 0.879998 16.0928 0.879998C18.2795 0.879998 20.3461 1.24 22.2928 1.96C24.2395 2.65333 25.8661 3.6 27.1728 4.8L21.3328 11.84C20.7995 11.1467 20.1328 10.6267 19.3328 10.28C18.5328 9.90667 17.6395 9.72 16.6528 9.72C15.8528 9.72 15.1061 9.86667 14.4128 10.16C13.7195 10.4267 13.1061 10.8267 12.5728 11.36C12.0661 11.8933 11.6661 12.5467 11.3728 13.32C11.0795 14.0667 10.9328 14.9067 10.9328 15.84C10.9328 16.7733 11.0795 17.6133 11.3728 18.36C11.6928 19.08 12.1061 19.7067 12.6128 20.24C13.1461 20.7733 13.7595 21.1867 14.4528 21.48C15.1461 21.7467 15.8795 21.88 16.6528 21.88C17.7461 21.88 18.6795 21.6533 19.4528 21.2C20.2528 20.7467 20.8795 20.2133 21.3328 19.6L27.1728 26.6C25.8928 27.88 24.3195 28.9067 22.4528 29.68C20.5861 30.4267 18.4661 30.8 16.0928 30.8C13.9595 30.8 11.9461 30.44 10.0528 29.72C8.18615 29 6.55948 27.9867 5.17281 26.68C3.78615 25.3467 2.69281 23.7733 1.89281 21.96C1.09281 20.12 0.692813 18.08 0.692813 15.84ZM29.4244 1.68H39.0244V30H29.4244V1.68Z" fill="black"/>
</svg>
