<svg xmlns="http://www.w3.org/2000/svg" xmlns:xlink="http://www.w3.org/1999/xlink" version="1.1" x="0px" y="0px" stroke="black" stroke-width="1" viewBox="0 0 96 120" enable-background="new 0 0 96 96" xml:space="preserve"><path d="M13.274,55.422l0.166,0.369c0.043,0.095,1.089,2.335,4.297,2.335c0.827,0,1.73-0.153,2.693-0.456  c0.97,2.736,2.641,8.493,1.75,11.036c-0.278,0.793-0.167,1.575,0.319,2.26c1.462,2.061,6.037,2.795,9.831,2.795  c2.599,0,5.156-0.317,7.394-0.917c0.998-0.268,1.762-0.065,2.381,0.65c2.574,2.972,1.754,13.206,1.221,16.898l-0.147,1.018  l30.416-5.134l-0.347-0.864c-0.057-0.142-5.611-14.205-0.122-20.723c3.521-4.182,14.574-30.217,6.834-46.853  C75.029,7.238,63.548,3.011,46.036,5.401c-7.559,1.031-22.02,5.456-28.266,15.497c-3.42,5.497-3.95,11.909-1.577,19.058  c0.115,0.708,1.31,8.812-2.702,15.126L13.274,55.422z M17.661,39.641l-0.027-0.104c-2.246-6.728-1.772-12.732,1.41-17.846  c5.952-9.569,19.895-13.807,27.195-14.803c16.763-2.29,27.734,1.637,32.362,11.583c7.126,15.316-2.805,40.722-6.622,45.254  c-5.288,6.28-1.631,18.065-0.447,21.38l-26.59,4.488c0.391-3.302,1.323-13.584-1.702-17.079c-0.737-0.851-1.653-1.283-2.724-1.283  c-0.376,0-0.773,0.056-1.181,0.165c-2.113,0.567-4.536,0.867-7.005,0.867c-4.164,0-7.704-0.889-8.607-2.163  c-0.204-0.287-0.243-0.564-0.126-0.897c1.353-3.866-1.878-12.388-2.017-12.749l-0.267-0.698l-0.699,0.265  c-1.062,0.403-2.029,0.607-2.876,0.607c-1.585,0-2.392-0.722-2.729-1.148C19.188,48.489,17.727,40.005,17.661,39.641z"/><path d="M41.247,39.737c1.858,0,3.566-1.008,4.479-2.604h0.478v8.435h8.433v0.478c-1.596,0.913-2.603,2.62-2.603,4.477  c0,2.843,2.311,5.156,5.15,5.156c2.843,0,5.155-2.313,5.155-5.156c0-1.857-1.008-3.565-2.605-4.478v-0.477h8.434v-9.935h-0.75  h-2.172l-0.199,0.442c-0.59,1.313-1.899,2.162-3.334,2.162c-2.013,0-3.651-1.638-3.651-3.65c0-2.016,1.638-3.655,3.651-3.655  c1.435,0,2.744,0.849,3.334,2.162l0.199,0.443h2.172h0.75v-9.935h-8.434v-0.477c1.597-0.913,2.605-2.62,2.605-4.477  c0-2.84-2.313-5.151-5.155-5.151c-2.84,0-5.15,2.311-5.15,5.151c0,1.856,1.007,3.564,2.603,4.477v0.478h-8.433v8.435h-0.477  c-0.913-1.597-2.621-2.605-4.479-2.605c-2.842,0-5.155,2.313-5.155,5.155C36.092,37.427,38.405,39.737,41.247,39.737z   M41.247,30.932c1.435,0,2.745,0.849,3.336,2.163l0.199,0.442h2.921v-8.435h8.433v-2.92l-0.442-0.199  c-1.313-0.592-2.161-1.901-2.161-3.334c0-2.013,1.638-3.651,3.65-3.651c2.016,0,3.655,1.638,3.655,3.651  c0,1.434-0.849,2.743-2.163,3.334l-0.442,0.199v2.921h8.434v6.935H66.19c-0.911-1.597-2.619-2.605-4.477-2.605  c-2.84,0-5.151,2.313-5.151,5.155c0,2.84,2.311,5.15,5.151,5.15c1.858,0,3.566-1.008,4.477-2.604h0.478v6.935h-8.434v2.921  l0.442,0.199c1.314,0.591,2.163,1.9,2.163,3.334c0,2.016-1.64,3.656-3.655,3.656c-2.013,0-3.65-1.64-3.65-3.656  c0-1.434,0.848-2.743,2.161-3.335l0.442-0.199v-2.92h-8.433v-8.435h-2.921l-0.199,0.442c-0.591,1.314-1.901,2.163-3.336,2.163  c-2.015,0-3.655-1.638-3.655-3.65C37.592,32.571,39.232,30.932,41.247,30.932z"/></svg>