<svg width="545" height="327" viewBox="0 0 545 327" fill="none" xmlns="http://www.w3.org/2000/svg">
<path d="M201.047 24.3613C201.192 28.7441 204.882 31.3867 210.425 31.3867C216.242 31.3867 219.803 28.5186 219.803 23.9746C219.803 20.4458 217.66 18.4639 212.746 17.481L210.28 16.9814C207.541 16.4336 206.413 15.5474 206.413 14.1133C206.413 12.4053 208.024 11.2773 210.425 11.2773C212.875 11.2773 214.599 12.4697 214.76 14.4517H219.352C219.271 10.1816 215.855 7.3457 210.425 7.3457C205.253 7.3457 201.547 10.1655 201.547 14.4194C201.547 17.8838 203.819 20.1074 208.459 21.0259L210.909 21.5093C213.825 22.1055 214.921 22.9756 214.921 24.5063C214.921 26.2144 213.148 27.4712 210.554 27.4712C207.912 27.4712 205.946 26.311 205.64 24.3613H201.047ZM228.01 31V21.8477H237.469V17.9966H228.01V11.7607H238.371V7.74854H223.144V31H228.01ZM248.518 7.74854V31H253.384V23.6685H257.734C262.633 23.6685 266.033 20.478 266.033 15.7085C266.033 10.9229 262.746 7.74854 257.976 7.74854H248.518ZM253.384 11.5996H256.687C259.475 11.5996 261.086 13.082 261.086 15.7246C261.086 18.3833 259.458 19.8657 256.671 19.8657H253.384V11.5996ZM268.874 31H273.579V21.3481C273.579 18.915 274.933 17.4971 277.253 17.4971C277.93 17.4971 278.574 17.6099 278.961 17.771V13.6299C278.639 13.5332 278.171 13.4526 277.624 13.4526C275.593 13.4526 274.127 14.645 273.515 16.8364H273.418V13.7266H268.874V31ZM288.602 31.3706C293.823 31.3706 297.158 28.0352 297.158 22.3472C297.158 16.7397 293.775 13.356 288.602 13.356C283.43 13.356 280.046 16.7559 280.046 22.3472C280.046 28.019 283.382 31.3706 288.602 31.3706ZM288.602 27.7773C286.282 27.7773 284.816 25.8276 284.816 22.3633C284.816 18.9312 286.314 16.9492 288.602 16.9492C290.89 16.9492 292.373 18.9312 292.373 22.3633C292.373 25.8276 290.906 27.7773 288.602 27.7773ZM307.256 7.74854V31H316.135C323.112 31 327.221 26.6655 327.221 19.2856C327.221 11.9058 323.112 7.74854 316.135 7.74854H307.256ZM312.123 11.7607H315.555C319.841 11.7607 322.258 14.4355 322.258 19.3018C322.258 24.3291 319.905 26.9717 315.555 26.9717H312.123V11.7607ZM332.737 11.3901C334.107 11.3901 335.186 10.2944 335.186 8.97314C335.186 7.63574 334.107 6.55615 332.737 6.55615C331.367 6.55615 330.288 7.63574 330.288 8.97314C330.288 10.2944 331.367 11.3901 332.737 11.3901ZM330.401 31H335.106V13.7266H330.401V31ZM338.318 18.8022C338.318 21.3965 340.01 23.0723 343.345 23.7812L346.294 24.3936C347.986 24.7803 348.582 25.2959 348.582 26.2144C348.582 27.3423 347.486 28.0674 345.714 28.0674C343.844 28.0674 342.765 27.2617 342.475 25.7471H337.883C338.189 29.147 340.944 31.3706 345.714 31.3706C350.161 31.3706 353.271 29.1309 353.271 25.731C353.271 23.2012 351.788 21.7832 348.179 21.0259L345.23 20.3975C343.49 20.0269 342.845 19.4307 342.845 18.5444C342.845 17.4004 343.925 16.6592 345.553 16.6592C347.293 16.6592 348.34 17.6099 348.485 19.0117H352.82C352.723 15.6279 349.984 13.356 345.553 13.356C341.154 13.356 338.318 15.5151 338.318 18.8022ZM366.038 13.4526C363.54 13.4526 361.623 14.7095 360.688 16.7397H360.592V13.7266H355.951V36.6396H360.656V28.0996H360.753C361.671 30.0493 363.605 31.2739 366.119 31.2739C370.437 31.2739 373.112 27.9224 373.112 22.3633C373.112 16.7881 370.421 13.4526 366.038 13.4526ZM364.459 27.4873C362.155 27.4873 360.64 25.4893 360.64 22.3633C360.64 19.2695 362.155 17.2231 364.459 17.2231C366.811 17.2231 368.294 19.2373 368.294 22.3633C368.294 25.5054 366.811 27.4873 364.459 27.4873ZM376.018 31H380.723V7.74854H376.018V31ZM389.381 31.2739C391.54 31.2739 393.683 30.1943 394.65 28.3574H394.747V31H399.291V19.1245C399.291 15.644 396.406 13.356 391.975 13.356C387.399 13.356 384.547 15.6602 384.37 19.0117H388.672C388.898 17.7388 390.009 16.8687 391.766 16.8687C393.538 16.8687 394.666 17.8032 394.666 19.4146V20.5586L390.316 20.8164C386.013 21.0742 383.596 22.895 383.596 26.0371C383.596 29.147 386.094 31.2739 389.381 31.2739ZM390.928 27.874C389.333 27.874 388.269 27.0684 388.269 25.7793C388.269 24.5547 389.268 23.7651 391.025 23.6362L394.666 23.4106V24.6675C394.666 26.5366 392.974 27.874 390.928 27.874ZM404.823 37.397C409.222 37.397 411.397 35.8018 412.864 31.3706L418.809 13.7266H413.846L410.189 27.2295H410.092L406.418 13.7266H401.262L407.272 31C407.288 31.0806 407.111 31.7573 407.111 31.8379C406.789 33.2075 405.935 33.7554 404.227 33.7554C404.05 33.7554 403.196 33.7393 403.034 33.707V37.3486C403.196 37.3809 404.646 37.397 404.823 37.397ZM438.511 31C443.474 31 446.551 28.438 446.551 24.3452C446.551 21.2676 444.231 18.9634 441.073 18.7217V18.5928C443.538 18.2222 445.44 16.0952 445.44 13.5493C445.44 9.98828 442.7 7.74854 438.334 7.74854H428.214V31H438.511ZM433.081 11.374H437.077C439.349 11.374 440.654 12.4375 440.654 14.3066C440.654 16.2725 439.171 17.4165 436.577 17.4165H433.081V11.374ZM433.081 27.3745V20.623H437.157C440.025 20.623 441.588 21.7832 441.588 23.9585C441.588 26.1821 440.074 27.3745 437.27 27.3745H433.081ZM457.208 31.3706C462.428 31.3706 465.764 28.0352 465.764 22.3472C465.764 16.7397 462.38 13.356 457.208 13.356C452.035 13.356 448.652 16.7559 448.652 22.3472C448.652 28.019 451.987 31.3706 457.208 31.3706ZM457.208 27.7773C454.887 27.7773 453.421 25.8276 453.421 22.3633C453.421 18.9312 454.92 16.9492 457.208 16.9492C459.496 16.9492 460.978 18.9312 460.978 22.3633C460.978 25.8276 459.512 27.7773 457.208 27.7773ZM468.67 31H473.375V7.74854H468.67V31ZM483.322 31.2739C485.868 31.2739 487.866 29.9365 488.704 28.0352H488.785V31H493.425V7.74854H488.72V16.6914H488.624C487.786 14.7739 485.852 13.4526 483.355 13.4526C479.02 13.4526 476.281 16.8525 476.281 22.3311C476.281 27.8579 479.004 31.2739 483.322 31.2739ZM484.918 17.2231C487.254 17.2231 488.752 19.2212 488.752 22.3633C488.752 25.5215 487.254 27.4873 484.918 27.4873C482.549 27.4873 481.099 25.5376 481.099 22.3633C481.099 19.2051 482.549 17.2231 484.918 17.2231ZM509.566 20.7681H512.224C515.044 20.7681 516.704 22.0249 516.688 24.2808C516.688 26.2466 515.012 27.6001 512.579 27.6001C510.017 27.6001 508.341 26.311 508.18 24.4097H503.539C503.749 28.6797 507.326 31.5156 512.579 31.5156C517.977 31.5156 521.635 28.7119 521.635 24.4902C521.635 21.2998 519.379 19.2534 515.93 18.9312V18.8345C518.67 18.2705 520.781 16.353 520.781 13.3882C520.781 9.66602 517.461 7.23291 512.547 7.23291C507.68 7.23291 504.297 9.95605 504.055 14.21H508.518C508.663 12.1958 510.259 10.9712 512.547 10.9712C514.867 10.9712 516.172 12.1797 516.172 14.0811C516.172 15.9824 514.593 17.3037 512.16 17.3037H509.566V20.7681ZM530.712 20.7681H533.371C536.19 20.7681 537.85 22.0249 537.834 24.2808C537.834 26.2466 536.158 27.6001 533.725 27.6001C531.163 27.6001 529.487 26.311 529.326 24.4097H524.685C524.895 28.6797 528.472 31.5156 533.725 31.5156C539.123 31.5156 542.781 28.7119 542.781 24.4902C542.781 21.2998 540.525 19.2534 537.077 18.9312V18.8345C539.816 18.2705 541.927 16.353 541.927 13.3882C541.927 9.66602 538.607 7.23291 533.693 7.23291C528.827 7.23291 525.443 9.95605 525.201 14.21H529.664C529.81 12.1958 531.405 10.9712 533.693 10.9712C536.013 10.9712 537.318 12.1797 537.318 14.0811C537.318 15.9824 535.739 17.3037 533.306 17.3037H530.712V20.7681Z" fill="#051E17"/>
<path d="M16.9673 26.9717H6.7998V7.74854H1.93359V31H16.9673V26.9717ZM24.9328 31.2739C27.0919 31.2739 29.235 30.1943 30.2018 28.3574H30.2985V31H34.8424V19.1245C34.8424 15.644 31.9581 13.356 27.527 13.356C22.9508 13.356 20.0988 15.6602 19.9215 19.0117H24.2238C24.4494 17.7388 25.5612 16.8687 27.3175 16.8687C29.09 16.8687 30.2179 17.8032 30.2179 19.4146V20.5586L25.8673 20.8164C21.5651 21.0742 19.1481 22.895 19.1481 26.0371C19.1481 29.147 21.6456 31.2739 24.9328 31.2739ZM26.4796 27.874C24.8844 27.874 23.8209 27.0684 23.8209 25.7793C23.8209 24.5547 24.82 23.7651 26.5763 23.6362L30.2179 23.4106V24.6675C30.2179 26.5366 28.526 27.874 26.4796 27.874ZM38.2478 31H42.9529V21.3481C42.9529 18.915 44.3064 17.4971 46.6267 17.4971C47.3035 17.4971 47.948 17.6099 48.3347 17.771V13.6299C48.0125 13.5332 47.5452 13.4526 46.9973 13.4526C44.9671 13.4526 43.5008 14.645 42.8885 16.8364H42.7918V13.7266H38.2478V31ZM57.9438 37.5098C63.1161 37.5098 66.5644 34.8672 66.5644 30.7583V13.7266H61.9238V16.7397H61.8432C60.9408 14.7578 58.9911 13.4526 56.5097 13.4526C52.1269 13.4526 49.4198 16.8203 49.4198 22.2988C49.4198 27.6968 52.2074 30.9517 56.4291 30.9517C58.9267 30.9517 60.957 29.6948 61.7626 27.8579H61.8593V30.8872C61.8593 32.8853 60.5058 34.2227 58.0727 34.2227C56.2841 34.2227 54.9306 33.417 54.56 32.2246H49.9516C50.3222 35.3022 53.3998 37.5098 57.9438 37.5098ZM58.0243 27.3262C55.6879 27.3262 54.2377 25.4893 54.2377 22.3311C54.2377 19.189 55.704 17.2231 58.0243 17.2231C60.3769 17.2231 61.8754 19.2212 61.8754 22.3311C61.8754 25.457 60.3769 27.3262 58.0243 27.3262ZM81.4424 25.7148C81.0074 27.0361 79.6861 27.8901 77.962 27.8901C75.5611 27.8901 73.9981 26.1982 73.9981 23.7329V23.4429H85.9058V22.0088C85.9058 16.7559 82.7315 13.356 77.7042 13.356C72.5963 13.356 69.3736 16.9331 69.3736 22.4438C69.3736 27.9707 72.564 31.3706 77.8814 31.3706C82.1514 31.3706 85.2452 29.0986 85.7608 25.7148H81.4424ZM77.7525 16.8364C79.8472 16.8364 81.2813 18.3511 81.378 20.5586H74.0464C74.2076 18.3994 75.69 16.8364 77.7525 16.8364ZM106.429 31V11.7607H113.164V7.74854H94.8436V11.7607H101.563V31H106.429ZM117.488 11.3901C118.858 11.3901 119.937 10.2944 119.937 8.97314C119.937 7.63574 118.858 6.55615 117.488 6.55615C116.119 6.55615 115.039 7.63574 115.039 8.97314C115.039 10.2944 116.119 11.3901 117.488 11.3901ZM115.152 31H119.857V13.7266H115.152V31ZM124.616 9.74658V13.7266H122.183V17.2715H124.616V26.3433C124.616 29.7109 126.195 31.0645 130.255 31.0645C131.206 31.0645 132.012 30.9839 132.495 30.8711V27.4067C132.205 27.4551 131.77 27.4873 131.351 27.4873C129.965 27.4873 129.321 26.8589 129.321 25.5376V17.2715H132.511V13.7266H129.321V9.74658H124.616ZM135.562 31H140.267V7.74854H135.562V31ZM155.242 25.7148C154.807 27.0361 153.486 27.8901 151.762 27.8901C149.361 27.8901 147.798 26.1982 147.798 23.7329V23.4429H159.705V22.0088C159.705 16.7559 156.531 13.356 151.504 13.356C146.396 13.356 143.173 16.9331 143.173 22.4438C143.173 27.9707 146.364 31.3706 151.681 31.3706C155.951 31.3706 159.045 29.0986 159.56 25.7148H155.242ZM151.552 16.8364C153.647 16.8364 155.081 18.3511 155.178 20.5586H147.846C148.007 18.3994 149.49 16.8364 151.552 16.8364Z" fill="#051E17"/>
<path d="M200.857 80.5684C200.976 84.1543 203.995 86.3164 208.53 86.3164C213.289 86.3164 216.203 83.9697 216.203 80.252C216.203 77.3647 214.449 75.7432 210.428 74.939L208.411 74.5303C206.17 74.082 205.247 73.3569 205.247 72.1836C205.247 70.7861 206.565 69.8633 208.53 69.8633C210.534 69.8633 211.944 70.8389 212.076 72.4604H215.833C215.768 68.9668 212.973 66.6465 208.53 66.6465C204.298 66.6465 201.266 68.9536 201.266 72.4341C201.266 75.2686 203.125 77.0879 206.921 77.8394L208.925 78.2349C211.312 78.7227 212.208 79.4346 212.208 80.687C212.208 82.0845 210.758 83.1128 208.635 83.1128C206.473 83.1128 204.865 82.1636 204.614 80.5684H200.857ZM223.003 86V78.5117H230.742V75.3608H223.003V70.2588H231.48V66.9761H219.022V86H223.003ZM239.952 66.9761V86H243.934V80.0015H247.494C251.501 80.0015 254.283 77.3911 254.283 73.4888C254.283 69.5732 251.594 66.9761 247.691 66.9761H239.952ZM243.934 70.127H246.637C248.917 70.127 250.236 71.3398 250.236 73.502C250.236 75.6772 248.904 76.8901 246.623 76.8901H243.934V70.127ZM256.693 86H260.543V78.103C260.543 76.1123 261.65 74.9521 263.549 74.9521C264.103 74.9521 264.63 75.0444 264.946 75.1763V71.7881C264.683 71.709 264.3 71.6431 263.852 71.6431C262.191 71.6431 260.991 72.6187 260.49 74.4116H260.411V71.8672H256.693V86ZM272.92 86.3032C277.192 86.3032 279.921 83.5742 279.921 78.9204C279.921 74.3325 277.152 71.564 272.92 71.564C268.688 71.564 265.92 74.3457 265.92 78.9204C265.92 83.561 268.649 86.3032 272.92 86.3032ZM272.92 83.3633C271.022 83.3633 269.822 81.7681 269.822 78.9336C269.822 76.1255 271.048 74.5039 272.92 74.5039C274.792 74.5039 276.005 76.1255 276.005 78.9336C276.005 81.7681 274.805 83.3633 272.92 83.3633ZM288.353 66.9761V86H295.618C301.326 86 304.688 82.4536 304.688 76.4155C304.688 70.3774 301.326 66.9761 295.618 66.9761H288.353ZM292.335 70.2588H295.143C298.65 70.2588 300.627 72.4473 300.627 76.4287C300.627 80.542 298.702 82.7041 295.143 82.7041H292.335V70.2588ZM309.287 69.9556C310.407 69.9556 311.29 69.0591 311.29 67.978C311.29 66.8838 310.407 66.0005 309.287 66.0005C308.166 66.0005 307.283 66.8838 307.283 67.978C307.283 69.0591 308.166 69.9556 309.287 69.9556ZM307.375 86H311.225V71.8672H307.375V86ZM313.938 76.02C313.938 78.1426 315.322 79.5137 318.051 80.0938L320.464 80.5947C321.848 80.9111 322.336 81.333 322.336 82.0845C322.336 83.0073 321.44 83.6006 319.989 83.6006C318.46 83.6006 317.577 82.9414 317.339 81.7021H313.582C313.833 84.4839 316.087 86.3032 319.989 86.3032C323.628 86.3032 326.172 84.4707 326.172 81.689C326.172 79.6191 324.96 78.459 322.006 77.8394L319.594 77.3252C318.17 77.022 317.643 76.5342 317.643 75.8091C317.643 74.873 318.526 74.2666 319.857 74.2666C321.281 74.2666 322.138 75.0444 322.257 76.1914H325.803C325.724 73.4229 323.483 71.564 319.857 71.564C316.258 71.564 313.938 73.3306 313.938 76.02ZM336.704 71.6431C334.66 71.6431 333.092 72.6714 332.327 74.3325H332.248V71.8672H328.451V90.6143H332.3V83.627H332.38C333.131 85.2222 334.713 86.2241 336.77 86.2241C340.303 86.2241 342.491 83.4819 342.491 78.9336C342.491 74.3721 340.29 71.6431 336.704 71.6431ZM335.412 83.126C333.527 83.126 332.287 81.4912 332.287 78.9336C332.287 76.4023 333.527 74.728 335.412 74.728C337.337 74.728 338.55 76.376 338.55 78.9336C338.55 81.5044 337.337 83.126 335.412 83.126ZM344.954 86H348.804V66.9761H344.954V86ZM355.974 86.2241C357.74 86.2241 359.494 85.3408 360.285 83.8379H360.364V86H364.081V76.2837C364.081 73.436 361.722 71.564 358.096 71.564C354.352 71.564 352.018 73.4492 351.873 76.1914H355.393C355.578 75.1499 356.488 74.438 357.925 74.438C359.375 74.438 360.298 75.2026 360.298 76.521V77.457L356.738 77.668C353.218 77.8789 351.241 79.3687 351.241 81.9395C351.241 84.4839 353.284 86.2241 355.974 86.2241ZM357.239 83.4424C355.934 83.4424 355.064 82.7832 355.064 81.7285C355.064 80.7266 355.881 80.0806 357.318 79.9751L360.298 79.7905V80.8188C360.298 82.3481 358.914 83.4424 357.239 83.4424ZM368.693 91.2339C372.293 91.2339 374.072 89.9287 375.272 86.3032L380.137 71.8672H376.076L373.084 82.915H373.004L369.999 71.8672H365.78L370.697 86C370.711 86.0659 370.565 86.6196 370.565 86.6855C370.302 87.8062 369.603 88.2544 368.206 88.2544C368.061 88.2544 367.362 88.2412 367.23 88.2148V91.1943C367.362 91.2207 368.548 91.2339 368.693 91.2339ZM396.427 86C400.488 86 403.006 83.9038 403.006 80.5552C403.006 78.0371 401.107 76.1519 398.523 75.9541V75.8486C400.54 75.5454 402.096 73.8052 402.096 71.7222C402.096 68.8086 399.855 66.9761 396.282 66.9761H388.003V86H396.427ZM391.984 69.9424H395.254C397.113 69.9424 398.18 70.8125 398.18 72.3418C398.18 73.9502 396.968 74.8862 394.845 74.8862H391.984V69.9424ZM391.984 83.0337V77.5098H395.32C397.666 77.5098 398.945 78.459 398.945 80.2388C398.945 82.0581 397.706 83.0337 395.412 83.0337H391.984ZM411.81 86.3032C416.081 86.3032 418.81 83.5742 418.81 78.9204C418.81 74.3325 416.042 71.564 411.81 71.564C407.578 71.564 404.809 74.3457 404.809 78.9204C404.809 83.561 407.538 86.3032 411.81 86.3032ZM411.81 83.3633C409.912 83.3633 408.712 81.7681 408.712 78.9336C408.712 76.1255 409.938 74.5039 411.81 74.5039C413.682 74.5039 414.895 76.1255 414.895 78.9336C414.895 81.7681 413.695 83.3633 411.81 83.3633ZM421.273 86H425.123V66.9761H421.273V86ZM433.347 86.2241C435.43 86.2241 437.065 85.1299 437.751 83.5742H437.817V86H441.613V66.9761H437.764V74.293H437.685C436.999 72.7241 435.417 71.6431 433.374 71.6431C429.827 71.6431 427.586 74.4248 427.586 78.9072C427.586 83.4292 429.814 86.2241 433.347 86.2241ZM434.652 74.728C436.564 74.728 437.79 76.3628 437.79 78.9336C437.79 81.5176 436.564 83.126 434.652 83.126C432.715 83.126 431.528 81.5308 431.528 78.9336C431.528 76.3496 432.715 74.728 434.652 74.728ZM450.165 72.7637H453.856C453.856 70.9312 455.293 69.6523 457.192 69.6523C458.906 69.6523 460.079 70.8125 460.079 72.3418C460.079 73.6602 459.538 74.5698 457.126 76.8901L450.389 83.271V86H464.219V82.8359H455.597V82.7568L459.591 78.9336C462.808 75.8618 463.955 74.4248 463.955 72.0913C463.955 68.9272 461.266 66.5542 457.192 66.5542C453.065 66.5542 450.165 69.0986 450.165 72.7637ZM468.053 86H472.232L480.168 70.1797V66.9761H466.563V70.1401H476.24V70.2192L468.053 86Z" fill="#051E17"/>
<path d="M96.1118 86V70.2588H101.623V66.9761H86.6328V70.2588H92.1304V86H96.1118ZM105.246 69.9556C106.366 69.9556 107.25 69.0591 107.25 67.978C107.25 66.8838 106.366 66.0005 105.246 66.0005C104.125 66.0005 103.242 66.8838 103.242 67.978C103.242 69.0591 104.125 69.9556 105.246 69.9556ZM103.334 86H107.184V71.8672H103.334V86ZM111.163 68.6108V71.8672H109.172V74.7676H111.163V82.1899C111.163 84.9453 112.455 86.0527 115.777 86.0527C116.555 86.0527 117.214 85.9868 117.61 85.8945V83.0601C117.372 83.0996 117.016 83.126 116.674 83.126C115.54 83.126 115.012 82.6118 115.012 81.5308V74.7676H117.623V71.8672H115.012V68.6108H111.163ZM120.204 86H124.054V66.9761H120.204V86ZM136.392 81.6758C136.036 82.7568 134.955 83.4556 133.544 83.4556C131.58 83.4556 130.301 82.0713 130.301 80.0542V79.8169H140.043V78.6436C140.043 74.3457 137.446 71.564 133.333 71.564C129.154 71.564 126.517 74.4907 126.517 78.9995C126.517 83.5215 129.127 86.3032 133.478 86.3032C136.972 86.3032 139.503 84.4443 139.925 81.6758H136.392ZM133.373 74.4116C135.086 74.4116 136.26 75.6509 136.339 77.457H130.34C130.472 75.6904 131.685 74.4116 133.373 74.4116ZM152.998 86H156.94V66.9761H152.985L148.068 70.3906V73.9238L152.919 70.6279H152.998V86Z" fill="#051E17"/>
<path d="M200.687 129.868C200.81 132.575 203.076 134.246 206.501 134.246C210.059 134.246 212.284 132.462 212.284 129.632C212.284 127.438 210.982 126.187 207.865 125.541L206.265 125.212C204.419 124.823 203.681 124.177 203.681 123.172C203.681 121.931 204.85 121.152 206.491 121.152C208.183 121.152 209.352 121.993 209.475 123.387H212.007C211.946 120.742 209.782 118.958 206.511 118.958C203.302 118.958 201.015 120.721 201.015 123.326C201.015 125.489 202.399 126.884 205.363 127.489L206.952 127.817C208.88 128.217 209.618 128.873 209.618 129.939C209.618 131.17 208.377 132.052 206.593 132.052C204.748 132.052 203.415 131.231 203.22 129.868H200.687ZM217.269 134V127.96H223.472V125.807H217.269V121.439H224.057V119.204H214.623V134H217.269ZM230.909 119.204V134H233.554V129.109H236.548C239.542 129.109 241.644 127.109 241.644 124.156C241.644 121.203 239.604 119.204 236.661 119.204H230.909ZM233.554 121.367H235.964C237.861 121.367 238.958 122.382 238.958 124.156C238.958 125.951 237.851 126.976 235.954 126.976H233.554V121.367ZM243.686 134H246.239V127.673C246.239 126.146 247.111 125.212 248.557 125.212C248.987 125.212 249.377 125.274 249.592 125.356V123.049C249.408 123.008 249.121 122.946 248.793 122.946C247.511 122.946 246.557 123.705 246.188 125.028H246.137V123.131H243.686V134ZM255.664 134.215C258.853 134.215 260.924 132.093 260.924 128.565C260.924 125.048 258.832 122.905 255.664 122.905C252.495 122.905 250.404 125.059 250.404 128.565C250.404 132.093 252.475 134.215 255.664 134.215ZM255.664 132.195C254.044 132.195 252.998 130.883 252.998 128.565C252.998 126.258 254.054 124.936 255.664 124.936C257.284 124.936 258.33 126.258 258.33 128.565C258.33 130.883 257.284 132.195 255.664 132.195ZM267.745 119.204V134H273.149C277.579 134 280.183 131.252 280.183 126.566C280.183 121.88 277.568 119.204 273.149 119.204H267.745ZM270.391 121.439H272.872C275.825 121.439 277.486 123.264 277.486 126.576C277.486 129.95 275.846 131.765 272.872 131.765H270.391V121.439ZM283.722 121.49C284.501 121.49 285.116 120.865 285.116 120.106C285.116 119.337 284.501 118.722 283.722 118.722C282.942 118.722 282.317 119.337 282.317 120.106C282.317 120.865 282.942 121.49 283.722 121.49ZM282.45 134H285.004V123.131H282.45V134ZM287.312 126.248C287.312 127.858 288.358 128.883 290.439 129.345L292.244 129.745C293.382 130.001 293.772 130.37 293.772 131.026C293.772 131.836 293.003 132.349 291.762 132.349C290.47 132.349 289.742 131.816 289.547 130.76H287.035C287.24 132.862 288.922 134.215 291.762 134.215C294.428 134.215 296.315 132.831 296.315 130.78C296.315 129.201 295.443 128.33 293.187 127.827L291.383 127.427C290.244 127.171 289.793 126.74 289.793 126.115C289.793 125.315 290.542 124.782 291.67 124.782C292.849 124.782 293.577 125.407 293.679 126.392H296.058C295.997 124.331 294.315 122.905 291.67 122.905C289.045 122.905 287.312 124.259 287.312 126.248ZM304.273 122.946C302.694 122.946 301.463 123.746 300.848 125.007H300.797V123.131H298.305V137.579H300.858V132.195H300.91C301.504 133.416 302.735 134.174 304.314 134.174C307.041 134.174 308.785 132.031 308.785 128.565C308.785 125.089 307.031 122.946 304.273 122.946ZM303.494 132.083C301.904 132.083 300.848 130.698 300.838 128.565C300.848 126.453 301.904 125.048 303.494 125.048C305.144 125.048 306.17 126.422 306.17 128.565C306.17 130.719 305.144 132.083 303.494 132.083ZM310.857 134H313.41V119.204H310.857V134ZM319.143 134.174C320.538 134.174 321.902 133.446 322.527 132.267H322.578V134H325.039V126.515C325.039 124.331 323.286 122.905 320.589 122.905C317.82 122.905 316.088 124.361 315.975 126.392H318.343C318.507 125.489 319.277 124.905 320.487 124.905C321.748 124.905 322.517 125.561 322.517 126.699V127.479L319.646 127.643C317 127.807 315.513 128.965 315.513 130.893C315.513 132.852 317.041 134.174 319.143 134.174ZM319.912 132.247C318.805 132.247 318.067 131.683 318.067 130.791C318.067 129.929 318.774 129.375 320.005 129.293L322.517 129.14V129.97C322.517 131.283 321.358 132.247 319.912 132.247ZM328.639 138.04C331.121 138.04 332.321 137.127 333.243 134.431L337.181 123.131H334.494L331.931 131.826H331.88L329.326 123.131H326.537L330.403 134.01C330.413 134.041 330.249 134.584 330.249 134.615C329.972 135.62 329.429 136.02 328.373 136.02C328.219 136.02 327.768 136.01 327.635 135.979V137.999C327.768 138.03 328.486 138.04 328.639 138.04ZM342.956 129.868C343.079 132.575 345.345 134.246 348.77 134.246C352.328 134.246 354.553 132.462 354.553 129.632C354.553 127.438 353.251 126.187 350.134 125.541L348.534 125.212C346.689 124.823 345.95 124.177 345.95 123.172C345.95 121.931 347.119 121.152 348.76 121.152C350.452 121.152 351.621 121.993 351.744 123.387H354.276C354.215 120.742 352.051 118.958 348.78 118.958C345.571 118.958 343.284 120.721 343.284 123.326C343.284 125.489 344.669 126.884 347.632 127.489L349.221 127.817C351.149 128.217 351.887 128.873 351.887 129.939C351.887 131.17 350.647 132.052 348.862 132.052C347.017 132.052 345.684 131.231 345.489 129.868H342.956ZM363.834 130.75C363.557 131.652 362.655 132.247 361.466 132.247C359.794 132.247 358.728 131.078 358.728 129.334V129.181H366.326V128.35C366.326 125.048 364.398 122.905 361.312 122.905C358.174 122.905 356.185 125.171 356.185 128.606C356.185 132.072 358.154 134.215 361.414 134.215C363.988 134.215 365.895 132.8 366.223 130.75H363.834ZM361.322 124.884C362.788 124.884 363.773 125.961 363.824 127.499H358.748C358.851 125.981 359.886 124.884 361.322 124.884ZM368.337 134H370.89V127.345C370.89 126.033 371.751 125.079 372.982 125.079C374.171 125.079 374.91 125.828 374.91 127.038V134H377.391V127.284C377.391 125.981 378.232 125.079 379.462 125.079C380.713 125.079 381.411 125.838 381.411 127.171V134H383.964V126.545C383.964 124.372 382.559 122.926 380.416 122.926C378.847 122.926 377.555 123.767 377.032 125.11H376.971C376.571 123.715 375.474 122.926 373.935 122.926C372.459 122.926 371.31 123.756 370.839 125.018H370.787V123.131H368.337V134ZM387.708 121.49C388.487 121.49 389.102 120.865 389.102 120.106C389.102 119.337 388.487 118.722 387.708 118.722C386.928 118.722 386.303 119.337 386.303 120.106C386.303 120.865 386.928 121.49 387.708 121.49ZM386.436 134H388.989V123.131H386.436V134ZM398.403 129.129V126.853H391.667V129.129H398.403ZM407.12 134.174C409.868 134.174 411.601 132.042 411.601 128.565C411.601 125.089 409.858 122.946 407.12 122.946C405.582 122.946 404.342 123.726 403.726 124.997H403.665V119.204H401.112V134H403.614V132.144H403.665C404.301 133.405 405.521 134.174 407.12 134.174ZM406.331 125.048C407.961 125.048 408.987 126.412 408.987 128.565C408.987 130.729 407.971 132.083 406.331 132.083C404.752 132.083 403.655 130.698 403.655 128.565C403.655 126.453 404.752 125.048 406.331 125.048ZM418.432 134.215C421.621 134.215 423.692 132.093 423.692 128.565C423.692 125.048 421.6 122.905 418.432 122.905C415.263 122.905 413.171 125.059 413.171 128.565C413.171 132.093 415.243 134.215 418.432 134.215ZM418.432 132.195C416.811 132.195 415.766 130.883 415.766 128.565C415.766 126.258 416.822 124.936 418.432 124.936C420.052 124.936 421.098 126.258 421.098 128.565C421.098 130.883 420.052 132.195 418.432 132.195ZM425.764 134H428.317V119.204H425.764V134ZM434.912 134.174C436.501 134.174 437.752 133.364 438.347 132.144H438.388V134H440.89V119.204H438.337V124.956H438.275C437.701 123.756 436.47 122.946 434.912 122.946C432.174 122.946 430.4 125.12 430.4 128.555C430.4 132.011 432.174 134.174 434.912 134.174ZM435.681 125.048C437.291 125.048 438.347 126.433 438.347 128.565C438.347 130.719 437.291 132.083 435.681 132.083C434.03 132.083 433.015 130.729 433.015 128.565C433.015 126.412 434.04 125.048 435.681 125.048ZM447.865 123.623H450.346C450.346 122.116 451.556 121.029 453.156 121.029C454.622 121.029 455.596 122.013 455.596 123.305C455.596 124.413 455.166 125.151 453.238 127.048L448.008 132.195V134H458.406V131.836H451.505V131.785L454.766 128.586C457.35 126.043 458.18 124.895 458.18 123.141C458.18 120.762 456.17 118.906 453.156 118.906C450.08 118.906 447.865 120.865 447.865 123.623ZM464.487 134H467.082V119.204H464.467L460.601 121.921V124.351L464.426 121.726H464.487V134Z" fill="#051E17"/>
<path d="M108.557 134V121.439H112.977V119.204H101.492V121.439H105.922V134H108.557ZM115.736 121.49C116.515 121.49 117.131 120.865 117.131 120.106C117.131 119.337 116.515 118.722 115.736 118.722C114.957 118.722 114.331 119.337 114.331 120.106C114.331 120.865 114.957 121.49 115.736 121.49ZM114.464 134H117.018V123.131H114.464V134ZM120.228 120.588V123.131H118.67V125.1H120.228V131.108C120.228 133.221 121.151 134.051 123.499 134.051C124.043 134.051 124.545 134.01 124.822 133.949V132C124.658 132.031 124.33 132.052 124.094 132.052C123.192 132.052 122.782 131.642 122.782 130.75V125.1H124.832V123.131H122.782V120.588H120.228ZM127.007 134H129.56V119.204H127.007V134ZM139.293 130.75C139.016 131.652 138.113 132.247 136.924 132.247C135.253 132.247 134.186 131.078 134.186 129.334V129.181H141.784V128.35C141.784 125.048 139.857 122.905 136.77 122.905C133.632 122.905 131.643 125.171 131.643 128.606C131.643 132.072 133.612 134.215 136.873 134.215C139.446 134.215 141.354 132.8 141.682 130.75H139.293ZM136.78 124.884C138.247 124.884 139.231 125.961 139.282 127.499H134.207C134.309 125.981 135.345 124.884 136.78 124.884ZM148.267 123.623H150.748C150.748 122.116 151.958 121.029 153.558 121.029C155.024 121.029 155.998 122.013 155.998 123.305C155.998 124.413 155.568 125.151 153.64 127.048L148.41 132.195V134H158.808V131.836H151.907V131.785L155.168 128.586C157.752 126.043 158.582 124.895 158.582 123.141C158.582 120.762 156.573 118.906 153.558 118.906C150.482 118.906 148.267 120.865 148.267 123.623Z" fill="#051E17"/>
<path d="M201.039 173.373C201.16 175.794 203.191 177.334 206.262 177.334C209.509 177.334 211.522 175.72 211.522 173.122C211.522 171.09 210.381 169.958 207.663 169.337L206.123 168.984C204.462 168.595 203.785 168.066 203.785 167.147C203.785 165.988 204.806 165.227 206.346 165.227C207.812 165.227 208.851 165.979 209.018 167.175H211.309C211.198 164.884 209.166 163.279 206.355 163.279C203.358 163.279 201.373 164.893 201.373 167.305C201.373 169.291 202.514 170.487 204.945 171.044L206.68 171.443C208.396 171.842 209.129 172.436 209.129 173.41C209.129 174.551 207.988 175.376 206.411 175.376C204.713 175.376 203.525 174.597 203.377 173.373H201.039ZM216.116 177V171.536H221.729V169.587H216.116V165.626H222.258V163.613H213.723V177H216.116ZM228.997 163.613V177H231.39V172.575H234.294C237.003 172.575 238.896 170.766 238.896 168.122C238.896 165.431 237.068 163.613 234.396 163.613H228.997ZM231.39 165.57H233.765C235.491 165.57 236.465 166.461 236.465 168.122C236.465 169.736 235.463 170.645 233.756 170.645H231.39V165.57ZM240.809 177H243.109V171.109C243.109 169.68 244.148 168.752 245.642 168.752C246.032 168.752 246.644 168.817 246.82 168.882V166.786C246.607 166.73 246.199 166.693 245.865 166.693C244.557 166.693 243.462 167.435 243.184 168.437H243.026V166.86H240.809V177ZM252.342 177.204C255.376 177.204 257.222 175.219 257.222 171.925C257.222 168.65 255.366 166.665 252.342 166.665C249.327 166.665 247.462 168.66 247.462 171.925C247.462 175.219 249.299 177.204 252.342 177.204ZM252.342 175.321C250.737 175.321 249.819 174.078 249.819 171.935C249.819 169.792 250.737 168.548 252.342 168.548C253.938 168.548 254.856 169.792 254.856 171.935C254.856 174.078 253.947 175.321 252.342 175.321ZM269.592 177V165.626H273.72V163.613H263.079V165.626H267.198V177H269.592ZM280.309 174.226C279.975 174.987 279.186 175.414 278.045 175.414C276.533 175.414 275.559 174.337 275.503 172.621V172.5H282.591V171.768C282.591 168.585 280.856 166.665 277.962 166.665C275.021 166.665 273.193 168.715 273.193 171.972C273.193 175.219 274.993 177.204 277.98 177.204C280.374 177.204 282.072 176.054 282.489 174.226H280.309ZM277.953 168.456C279.335 168.456 280.244 169.43 280.29 170.97H275.513C275.615 169.448 276.58 168.456 277.953 168.456ZM287.946 173.493L290.024 177.019H292.622L289.31 171.888L292.585 166.878H290.052L288.048 170.395H287.89L285.877 166.878H283.205L286.517 171.99L283.233 177.019H285.719L287.788 173.493H287.946ZM294.896 164.374V166.925H293.291V168.715H294.896V174.31C294.896 176.267 295.824 177.046 298.153 177.046C298.598 177.046 299.025 177.009 299.359 176.944V175.182C299.08 175.209 298.904 175.228 298.579 175.228C297.615 175.228 297.188 174.773 297.188 173.762V168.715H299.359V166.925H297.188V164.374H294.896ZM305.374 173.373C305.495 175.794 307.526 177.334 310.597 177.334C313.844 177.334 315.857 175.72 315.857 173.122C315.857 171.09 314.716 169.958 311.998 169.337L310.458 168.984C308.797 168.595 308.12 168.066 308.12 167.147C308.12 165.988 309.141 165.227 310.681 165.227C312.146 165.227 313.185 165.979 313.352 167.175H315.644C315.533 164.884 313.501 163.279 310.69 163.279C307.693 163.279 305.708 164.893 305.708 167.305C305.708 169.291 306.849 170.487 309.28 171.044L311.015 171.443C312.731 171.842 313.464 172.436 313.464 173.41C313.464 174.551 312.323 175.376 310.745 175.376C309.048 175.376 307.86 174.597 307.712 173.373H305.374ZM324.431 174.226C324.097 174.987 323.309 175.414 322.168 175.414C320.655 175.414 319.681 174.337 319.626 172.621V172.5H326.713V171.768C326.713 168.585 324.979 166.665 322.084 166.665C319.143 166.665 317.316 168.715 317.316 171.972C317.316 175.219 319.115 177.204 322.103 177.204C324.496 177.204 326.194 176.054 326.611 174.226H324.431ZM322.075 168.456C323.457 168.456 324.366 169.43 324.413 170.97H319.635C319.737 169.448 320.702 168.456 322.075 168.456ZM328.534 177H330.834V170.831C330.834 169.569 331.679 168.613 332.82 168.613C333.952 168.613 334.657 169.3 334.657 170.422V177H336.892V170.664C336.892 169.504 337.681 168.613 338.878 168.613C340.112 168.613 340.733 169.272 340.733 170.589V177H343.025V170.023C343.025 167.917 341.8 166.665 339.768 166.665C338.358 166.665 337.189 167.389 336.688 168.493H336.531C336.104 167.37 335.13 166.665 333.729 166.665C332.384 166.665 331.345 167.352 330.909 168.493H330.751V166.86H328.534V177ZM346.431 165.162C347.192 165.162 347.814 164.559 347.814 163.798C347.814 163.047 347.192 162.435 346.431 162.435C345.68 162.435 345.058 163.047 345.058 163.798C345.058 164.559 345.68 165.162 346.431 165.162ZM345.29 177H347.582V166.86H345.29V177ZM356.146 172.658V170.552H350.051V172.658H356.146ZM364.229 177.167C366.789 177.167 368.394 175.154 368.394 171.935C368.394 168.697 366.798 166.693 364.229 166.693C362.837 166.693 361.668 167.37 361.139 168.474H360.982V162.936H358.681V177H360.898V175.395H361.056C361.631 176.508 362.809 177.167 364.229 177.167ZM363.505 168.613C365.073 168.613 366.028 169.866 366.028 171.935C366.028 174.003 365.082 175.256 363.505 175.256C361.928 175.256 360.944 173.985 360.944 171.935C360.944 169.884 361.937 168.613 363.505 168.613ZM374.593 177.204C377.627 177.204 379.473 175.219 379.473 171.925C379.473 168.65 377.617 166.665 374.593 166.665C371.578 166.665 369.713 168.66 369.713 171.925C369.713 175.219 371.55 177.204 374.593 177.204ZM374.593 175.321C372.988 175.321 372.07 174.078 372.07 171.935C372.07 169.792 372.988 168.548 374.593 168.548C376.189 168.548 377.107 169.792 377.107 171.935C377.107 174.078 376.198 175.321 374.593 175.321ZM381.395 177H383.696V162.936H381.395V177ZM389.793 177.167C391.203 177.167 392.372 176.508 392.947 175.395H393.105V177H395.331V162.936H393.031V168.474H392.873C392.335 167.361 391.184 166.693 389.793 166.693C387.232 166.693 385.618 168.715 385.618 171.925C385.618 175.145 387.223 177.167 389.793 177.167ZM390.507 168.613C392.084 168.613 393.058 169.884 393.058 171.935C393.058 173.994 392.094 175.256 390.507 175.256C388.93 175.256 387.974 174.013 387.974 171.935C387.974 169.866 388.939 168.613 390.507 168.613ZM405.54 177H407.933V163.613H405.549L402.052 166.071V168.326L405.382 165.969H405.54V177ZM415.923 177.325C419.328 177.325 421.35 174.662 421.35 170.144C421.35 165.709 419.198 163.279 415.997 163.279C413.084 163.279 411.024 165.236 411.024 167.973C411.024 170.543 412.88 172.417 415.431 172.417C416.999 172.417 418.27 171.693 418.901 170.422H419.059C419.031 173.567 417.908 175.367 415.951 175.367C414.8 175.367 413.882 174.736 413.594 173.716H411.21C411.6 175.896 413.474 177.325 415.923 177.325ZM416.006 170.571C414.448 170.571 413.372 169.476 413.372 167.899C413.372 166.387 414.503 165.227 416.016 165.227C417.528 165.227 418.66 166.405 418.66 167.945C418.66 169.467 417.556 170.571 416.006 170.571Z" fill="#051E17"/>
<path d="M112.375 177V165.626H116.504V163.613H105.863V165.626H109.982V177H112.375ZM119.261 165.162C120.022 165.162 120.643 164.559 120.643 163.798C120.643 163.047 120.022 162.435 119.261 162.435C118.51 162.435 117.888 163.047 117.888 163.798C117.888 164.559 118.51 165.162 119.261 165.162ZM118.12 177H120.411V166.86H118.12V177ZM123.512 164.374V166.925H121.907V168.715H123.512V174.31C123.512 176.267 124.439 177.046 126.768 177.046C127.213 177.046 127.64 177.009 127.974 176.944V175.182C127.696 175.209 127.52 175.228 127.195 175.228C126.23 175.228 125.803 174.773 125.803 173.762V168.715H127.974V166.925H125.803V164.374H123.512ZM129.878 177H132.178V162.936H129.878V177ZM141.216 174.226C140.882 174.987 140.094 175.414 138.953 175.414C137.44 175.414 136.466 174.337 136.411 172.621V172.5H143.498V171.768C143.498 168.585 141.764 166.665 138.869 166.665C135.928 166.665 134.101 168.715 134.101 171.972C134.101 175.219 135.9 177.204 138.888 177.204C141.281 177.204 142.979 176.054 143.396 174.226H141.216ZM138.86 168.456C140.242 168.456 141.151 169.43 141.198 170.97H136.42C136.522 169.448 137.487 168.456 138.86 168.456ZM152.965 171.025H154.644C156.295 171.025 157.297 171.851 157.297 173.196C157.297 174.495 156.212 175.367 154.672 175.367C153.123 175.367 152.074 174.569 151.972 173.326H149.681C149.792 175.748 151.787 177.334 154.7 177.334C157.594 177.334 159.747 175.664 159.747 173.363C159.747 171.536 158.605 170.357 156.787 170.079V169.921C158.206 169.541 159.218 168.474 159.227 166.86C159.236 164.939 157.631 163.279 154.783 163.279C151.879 163.279 150.061 164.921 149.94 167.268H152.185C152.288 165.932 153.197 165.19 154.653 165.19C156.073 165.19 156.917 166.062 156.917 167.166C156.917 168.381 155.971 169.235 154.598 169.235H152.965V171.025Z" fill="#051E17"/>
<path d="M200.984 212.57C201.07 214.195 202.445 215.227 204.547 215.227C206.773 215.227 208.148 214.141 208.148 212.391C208.148 211.031 207.375 210.273 205.531 209.875L204.477 209.648C203.367 209.406 202.914 209.062 202.914 208.477C202.914 207.742 203.594 207.273 204.609 207.273C205.586 207.273 206.281 207.758 206.383 208.516H208C207.938 206.969 206.539 205.891 204.609 205.891C202.562 205.891 201.211 206.969 201.211 208.602C201.211 209.938 201.992 210.75 203.641 211.109L204.82 211.367C205.969 211.625 206.453 211.984 206.453 212.602C206.453 213.328 205.703 213.844 204.648 213.844C203.523 213.844 202.734 213.344 202.633 212.57H200.984ZM211.914 215V211.438H215.696V210.055H211.914V207.547H216.055V206.117H210.219V215H211.914ZM222.142 206.117V215H223.837V212.133H225.759C227.618 212.133 228.907 210.922 228.907 209.133C228.907 207.328 227.665 206.117 225.837 206.117H222.142ZM223.837 207.508H225.384C226.54 207.508 227.196 208.078 227.196 209.141C227.196 210.18 226.524 210.758 225.384 210.758H223.837V207.508ZM232.642 211.703H234.384L236.134 215H238.064L236.103 211.438C237.173 211.055 237.798 210.078 237.798 208.914C237.798 207.188 236.595 206.117 234.665 206.117H230.947V215H232.642V211.703ZM232.642 207.484H234.431C235.431 207.484 236.064 208.039 236.064 208.945C236.064 209.859 235.478 210.391 234.462 210.391H232.642V207.484ZM243.939 205.891C241.291 205.891 239.611 207.68 239.611 210.555C239.611 213.43 241.259 215.227 243.939 215.227C246.588 215.227 248.236 213.43 248.236 210.555C248.236 207.688 246.588 205.891 243.939 205.891ZM243.939 207.367C245.509 207.367 246.509 208.609 246.509 210.555C246.509 212.5 245.517 213.75 243.939 213.75C242.33 213.75 241.345 212.5 241.345 210.555C241.345 208.609 242.353 207.367 243.939 207.367ZM258.33 215V207.547H261.112V206.117H253.854V207.547H256.635V215H258.33ZM268.971 213.57H264.752V211.172H268.737V209.82H264.752V207.547H268.971V206.117H263.057V215H268.971V213.57ZM270.675 215H272.526L274.612 211.859H274.729L276.792 215H278.745L275.768 210.555L278.792 206.117H276.893L274.839 209.336H274.729L272.706 206.117H270.698L273.636 210.523L270.675 215ZM284.652 215V207.547H287.433V206.117H280.175V207.547H282.956V215H284.652ZM293.019 212.57C293.105 214.195 294.48 215.227 296.582 215.227C298.808 215.227 300.183 214.141 300.183 212.391C300.183 211.031 299.41 210.273 297.566 209.875L296.512 209.648C295.402 209.406 294.949 209.062 294.949 208.477C294.949 207.742 295.629 207.273 296.644 207.273C297.621 207.273 298.316 207.758 298.418 208.516H300.035C299.973 206.969 298.574 205.891 296.644 205.891C294.598 205.891 293.246 206.969 293.246 208.602C293.246 209.938 294.027 210.75 295.676 211.109L296.855 211.367C298.004 211.625 298.488 211.984 298.488 212.602C298.488 213.328 297.738 213.844 296.683 213.844C295.558 213.844 294.769 213.344 294.668 212.57H293.019ZM308.168 213.57H303.949V211.172H307.934V209.82H303.949V207.547H308.168V206.117H302.254V215H308.168V213.57ZM319.872 215V206.117H317.887L315.207 212.438H315.098L312.426 206.117H310.434V215H312.012V208.844H312.098L314.559 214.602H315.747L318.2 208.844H318.301V215H319.872ZM324.044 215V206.117H322.348V215H324.044ZM330.575 211.703V210.188H326.45V211.703H330.575ZM336.904 215C338.849 215 340.037 214.031 340.037 212.469C340.037 211.312 339.177 210.445 337.966 210.344V210.234C338.888 210.094 339.591 209.266 339.591 208.336C339.591 206.961 338.552 206.117 336.81 206.117H332.974V215H336.904ZM334.669 207.422H336.396C337.357 207.422 337.912 207.875 337.912 208.633C337.912 209.406 337.318 209.836 336.201 209.836H334.669V207.422ZM334.669 213.695V211.016H336.443C337.654 211.016 338.302 211.469 338.302 212.336C338.302 213.219 337.677 213.695 336.505 213.695H334.669ZM345.967 205.891C343.318 205.891 341.638 207.68 341.638 210.555C341.638 213.43 343.287 215.227 345.967 215.227C348.615 215.227 350.263 213.43 350.263 210.555C350.263 207.688 348.615 205.891 345.967 205.891ZM345.967 207.367C347.537 207.367 348.537 208.609 348.537 210.555C348.537 212.5 347.545 213.75 345.967 213.75C344.357 213.75 343.373 212.5 343.373 210.555C343.373 208.609 344.381 207.367 345.967 207.367ZM358.193 213.539H354.061V206.117H352.365V215H358.193V213.539ZM360.186 206.117V215H363.639C366.35 215 367.905 213.375 367.905 210.516C367.905 207.727 366.334 206.117 363.639 206.117H360.186ZM361.881 207.547H363.397C365.147 207.547 366.17 208.641 366.17 210.539C366.17 212.492 365.17 213.57 363.397 213.57H361.881V207.547ZM376.062 215H377.757V206.117H376.069L373.702 207.734V209.312L375.952 207.781H376.062V215ZM384.077 215.219C386.07 215.219 387.476 213.922 387.476 212.086C387.476 210.383 386.218 209.133 384.492 209.133C383.429 209.133 382.57 209.617 382.148 210.461H382.038C382.031 208.484 382.804 207.281 384.117 207.281C384.874 207.281 385.468 207.688 385.671 208.328H387.359C387.085 206.859 385.804 205.891 384.124 205.891C381.804 205.891 380.413 207.672 380.413 210.648C380.413 211.797 380.648 212.773 381.093 213.508C381.702 214.617 382.749 215.219 384.077 215.219ZM384.07 213.836C383.07 213.836 382.312 213.094 382.312 212.117C382.312 211.148 383.054 210.445 384.07 210.445C385.093 210.445 385.82 211.148 385.82 212.141C385.82 213.094 385.054 213.836 384.07 213.836Z" fill="#051E17"/>
<path d="M107.117 215V206.117H105.422V209.766H101.094V206.117H99.3984V215H101.094V211.203H105.422V215H107.117ZM115.524 213.57H111.305V211.172H115.289V209.82H111.305V207.547H115.524V206.117H109.61V215H115.524V213.57ZM123.641 215H125.462L122.258 206.117H120.329L117.126 215H118.837L119.594 212.773H122.891L123.641 215ZM121.196 207.852H121.305L122.508 211.461H119.985L121.196 207.852ZM127.282 206.117V215H130.735C133.446 215 135.001 213.375 135.001 210.516C135.001 207.727 133.431 206.117 130.735 206.117H127.282ZM128.978 207.547H130.493C132.243 207.547 133.267 208.641 133.267 210.539C133.267 212.492 132.267 213.57 130.493 213.57H128.978V207.547ZM138.783 215V206.117H137.087V215H138.783ZM142.9 215V209.094H143.009L147.392 215H148.838V206.117H147.213V212H147.103L142.728 206.117H141.267V215H142.9ZM159.205 211.422V210.305H155.432V211.594H157.557L157.549 211.766C157.518 212.953 156.596 213.742 155.252 213.742C153.666 213.742 152.666 212.523 152.666 210.531C152.666 208.586 153.643 207.367 155.189 207.367C156.33 207.367 157.135 207.922 157.439 208.898H159.135C158.853 207.078 157.299 205.891 155.189 205.891C152.588 205.891 150.932 207.703 150.932 210.547C150.932 213.438 152.58 215.227 155.221 215.227C157.658 215.227 159.205 213.75 159.205 211.422Z" fill="#051E17"/>
<path d="M200.786 285.423C200.916 287.125 202.358 288.232 204.45 288.232C206.706 288.232 208.135 287.077 208.135 285.266C208.135 283.816 207.314 283.023 205.271 282.511L204.238 282.237C202.878 281.889 202.338 281.444 202.338 280.672C202.338 279.674 203.206 279.018 204.519 279.018C205.749 279.018 206.583 279.619 206.754 280.631H207.991C207.889 279.038 206.467 277.903 204.56 277.903C202.475 277.903 201.073 279.038 201.073 280.713C201.073 282.114 201.846 282.921 203.63 283.372L204.895 283.7C206.255 284.042 206.87 284.575 206.87 285.416C206.87 286.394 205.893 287.111 204.566 287.111C203.165 287.111 202.181 286.455 202.03 285.423H200.786ZM211.416 288V283.728H215.784V282.634H211.416V279.243H216.174V278.136H210.186V288H211.416ZM222.148 278.136V288H223.379V284.479H225.86C227.713 284.479 229.032 283.174 229.032 281.328C229.032 279.448 227.74 278.136 225.874 278.136H222.148ZM223.379 279.229H225.553C226.981 279.229 227.768 279.975 227.768 281.328C227.768 282.634 226.954 283.386 225.553 283.386H223.379V279.229ZM230.898 288H232.074V283.434C232.074 282.395 232.888 281.643 234.009 281.643C234.241 281.643 234.665 281.684 234.761 281.711V280.535C234.61 280.515 234.364 280.501 234.173 280.501C233.195 280.501 232.348 281.007 232.129 281.725H232.02V280.631H230.898V288ZM239.054 288.13C241.152 288.13 242.451 286.681 242.451 284.315C242.451 281.943 241.152 280.501 239.054 280.501C236.955 280.501 235.656 281.943 235.656 284.315C235.656 286.681 236.955 288.13 239.054 288.13ZM239.054 287.07C237.659 287.07 236.873 286.059 236.873 284.315C236.873 282.565 237.659 281.561 239.054 281.561C240.448 281.561 241.234 282.565 241.234 284.315C241.234 286.059 240.448 287.07 239.054 287.07ZM252.192 288V279.243H255.371V278.136H247.783V279.243H250.962V288H252.192ZM260.635 286.093C260.327 286.742 259.685 287.091 258.734 287.091C257.483 287.091 256.67 286.168 256.608 284.712V284.657H261.906V284.206C261.906 281.916 260.696 280.501 258.707 280.501C256.684 280.501 255.385 282.005 255.385 284.322C255.385 286.653 256.663 288.13 258.707 288.13C260.32 288.13 261.469 287.351 261.811 286.093H260.635ZM258.693 281.54C259.862 281.54 260.642 282.401 260.669 283.707H256.608C256.697 282.401 257.518 281.54 258.693 281.54ZM266.083 285.238L267.826 288.021H269.221L266.685 284.288L269.187 280.651H267.854L266.124 283.393H266.015L264.265 280.651H262.863L265.413 284.336L262.891 288.021H264.224L265.974 285.238H266.083ZM271.312 278.724V280.631H270.123V281.615H271.312V286.086C271.312 287.494 271.921 288.055 273.438 288.055C273.671 288.055 273.896 288.027 274.129 287.986V286.995C273.91 287.016 273.794 287.022 273.582 287.022C272.816 287.022 272.488 286.653 272.488 285.785V281.615H274.129V280.631H272.488V278.724H271.312ZM281.238 284.097H283.665L285.777 288H287.22L284.937 283.905C286.174 283.516 286.919 282.449 286.919 281.075C286.919 279.298 285.675 278.136 283.774 278.136H280.008V288H281.238V284.097ZM281.238 279.229H283.61C284.882 279.229 285.647 279.934 285.647 281.116C285.647 282.326 284.93 283.003 283.665 283.003H281.238V279.229ZM293.68 286.093C293.372 286.742 292.729 287.091 291.779 287.091C290.528 287.091 289.715 286.168 289.653 284.712V284.657H294.951V284.206C294.951 281.916 293.741 280.501 291.752 280.501C289.729 280.501 288.43 282.005 288.43 284.322C288.43 286.653 289.708 288.13 291.752 288.13C293.365 288.13 294.514 287.351 294.855 286.093H293.68ZM291.738 281.54C292.907 281.54 293.687 282.401 293.714 283.707H289.653C289.742 282.401 290.562 281.54 291.738 281.54ZM299.832 290.83C301.842 290.83 303.113 289.777 303.113 288.13V280.631H301.992V281.8H301.883C301.459 281.007 300.55 280.501 299.518 280.501C297.624 280.501 296.428 281.998 296.428 284.206C296.428 286.414 297.61 287.891 299.518 287.891C300.529 287.891 301.363 287.433 301.828 286.619H301.938V288.068C301.938 289.155 301.151 289.805 299.832 289.805C298.772 289.805 298.116 289.415 297.986 288.813H296.742C296.92 290.03 298.055 290.83 299.832 290.83ZM299.777 286.852C298.41 286.852 297.645 285.812 297.645 284.206C297.645 282.6 298.41 281.561 299.777 281.561C301.138 281.561 301.965 282.6 301.965 284.206C301.965 285.812 301.145 286.852 299.777 286.852ZM311.289 280.631H310.113V284.992C310.113 286.284 309.402 287.057 308.104 287.057C306.928 287.057 306.436 286.441 306.436 285.115V280.631H305.26V285.402C305.26 287.146 306.121 288.13 307.775 288.13C308.903 288.13 309.689 287.665 310.059 286.845H310.168V288H311.289V280.631ZM313.572 288H314.748V277.705H313.572V288ZM319.082 288.13C320.066 288.13 320.873 287.699 321.352 286.913H321.461V288H322.582V282.955C322.582 281.424 321.577 280.501 319.779 280.501C318.207 280.501 317.045 281.28 316.888 282.463H318.077C318.241 281.882 318.856 281.547 319.738 281.547C320.839 281.547 321.406 282.046 321.406 282.955V283.625L319.28 283.755C317.564 283.857 316.594 284.616 316.594 285.936C316.594 287.282 317.653 288.13 319.082 288.13ZM319.301 287.098C318.446 287.098 317.811 286.66 317.811 285.908C317.811 285.17 318.303 284.78 319.424 284.705L321.406 284.575V285.252C321.406 286.305 320.511 287.098 319.301 287.098ZM324.756 288H325.932V283.434C325.932 282.395 326.745 281.643 327.866 281.643C328.099 281.643 328.522 281.684 328.618 281.711V280.535C328.468 280.515 328.222 280.501 328.03 280.501C327.053 280.501 326.205 281.007 325.986 281.725H325.877V280.631H324.756V288ZM336.391 288H337.621V278.136H336.397L333.772 280.022V281.321L336.281 279.503H336.391V288ZM345.072 288H346.275V285.956H347.677V284.855H346.275V278.136H344.491C343.11 280.193 341.6 282.6 340.267 284.835V285.956H345.072V288ZM341.524 284.78C342.598 282.969 343.89 280.932 344.997 279.277H345.079V284.862H341.524V284.78Z" fill="#051E17"/>
<path d="M200.898 249.055C201.047 251 202.695 252.266 205.086 252.266C207.664 252.266 209.297 250.945 209.297 248.875C209.297 247.219 208.359 246.312 206.023 245.727L204.844 245.414C203.289 245.016 202.672 244.508 202.672 243.625C202.672 242.484 203.664 241.734 205.164 241.734C206.57 241.734 207.523 242.422 207.719 243.578H209.133C209.016 241.758 207.391 240.461 205.211 240.461C202.828 240.461 201.227 241.758 201.227 243.672C201.227 245.273 202.109 246.195 204.148 246.711L205.594 247.086C207.148 247.477 207.852 248.086 207.852 249.047C207.852 250.164 206.734 250.984 205.219 250.984C203.617 250.984 202.492 250.234 202.32 249.055H200.898ZM212.747 252V247.117H217.739V245.867H212.747V241.992H218.184V240.727H211.341V252H212.747ZM224.413 240.727V252H225.819V247.977H228.655C230.772 247.977 232.28 246.484 232.28 244.375C232.28 242.227 230.803 240.727 228.67 240.727H224.413ZM225.819 241.977H228.303C229.936 241.977 230.834 242.828 230.834 244.375C230.834 245.867 229.905 246.727 228.303 246.727H225.819V241.977ZM234.112 252H235.456V246.781C235.456 245.594 236.386 244.734 237.667 244.734C237.933 244.734 238.417 244.781 238.527 244.812V243.469C238.355 243.445 238.073 243.43 237.855 243.43C236.737 243.43 235.769 244.008 235.519 244.828H235.394V243.578H234.112V252ZM243.133 252.148C245.531 252.148 247.016 250.492 247.016 247.789C247.016 245.078 245.531 243.43 243.133 243.43C240.734 243.43 239.25 245.078 239.25 247.789C239.25 250.492 240.734 252.148 243.133 252.148ZM243.133 250.938C241.539 250.938 240.641 249.781 240.641 247.789C240.641 245.789 241.539 244.641 243.133 244.641C244.727 244.641 245.625 245.789 245.625 247.789C245.625 249.781 244.727 250.938 243.133 250.938ZM257.548 252V241.992H261.181V240.727H252.509V241.992H256.142V252H257.548ZM266.897 249.82C266.545 250.562 265.811 250.961 264.725 250.961C263.295 250.961 262.366 249.906 262.295 248.242V248.18H268.35V247.664C268.35 245.047 266.967 243.43 264.694 243.43C262.381 243.43 260.897 245.148 260.897 247.797C260.897 250.461 262.358 252.148 264.694 252.148C266.537 252.148 267.85 251.258 268.241 249.82H266.897ZM264.678 244.617C266.014 244.617 266.905 245.602 266.936 247.094H262.295C262.397 245.602 263.334 244.617 264.678 244.617ZM272.823 248.844L274.816 252.023H276.409L273.511 247.758L276.37 243.602H274.847L272.87 246.734H272.745L270.745 243.602H269.144L272.058 247.812L269.175 252.023H270.698L272.698 248.844H272.823ZM278.5 241.398V243.578H277.141V244.703H278.5V249.812C278.5 251.422 279.195 252.062 280.93 252.062C281.195 252.062 281.453 252.031 281.719 251.984V250.852C281.469 250.875 281.336 250.883 281.094 250.883C280.219 250.883 279.844 250.461 279.844 249.469V244.703H281.719V243.578H279.844V241.398H278.5ZM289.244 247.539H292.017L294.431 252H296.08L293.47 247.32C294.884 246.875 295.736 245.656 295.736 244.086C295.736 242.055 294.314 240.727 292.142 240.727H287.838V252H289.244V247.539ZM289.244 241.977H291.955C293.408 241.977 294.283 242.781 294.283 244.133C294.283 245.516 293.463 246.289 292.017 246.289H289.244V241.977ZM303.162 249.82C302.811 250.562 302.077 250.961 300.991 250.961C299.561 250.961 298.631 249.906 298.561 248.242V248.18H304.616V247.664C304.616 245.047 303.233 243.43 300.959 243.43C298.647 243.43 297.162 245.148 297.162 247.797C297.162 250.461 298.623 252.148 300.959 252.148C302.803 252.148 304.116 251.258 304.506 249.82H303.162ZM300.944 244.617C302.28 244.617 303.17 245.602 303.202 247.094H298.561C298.662 245.602 299.6 244.617 300.944 244.617ZM309.894 255.234C312.191 255.234 313.644 254.031 313.644 252.148V243.578H312.363V244.914H312.238C311.753 244.008 310.714 243.43 309.534 243.43C307.37 243.43 306.003 245.141 306.003 247.664C306.003 250.188 307.355 251.875 309.534 251.875C310.691 251.875 311.644 251.352 312.175 250.422H312.3V252.078C312.3 253.32 311.402 254.062 309.894 254.062C308.683 254.062 307.933 253.617 307.784 252.93H306.363C306.566 254.32 307.863 255.234 309.894 255.234ZM309.831 250.688C308.269 250.688 307.394 249.5 307.394 247.664C307.394 245.828 308.269 244.641 309.831 244.641C311.386 244.641 312.331 245.828 312.331 247.664C312.331 249.5 311.394 250.688 309.831 250.688ZM322.688 243.578H321.344V248.562C321.344 250.039 320.531 250.922 319.047 250.922C317.703 250.922 317.141 250.219 317.141 248.703V243.578H315.797V249.031C315.797 251.023 316.781 252.148 318.672 252.148C319.961 252.148 320.859 251.617 321.281 250.68H321.406V252H322.688V243.578ZM324.997 252H326.341V240.234H324.997V252ZM330.994 252.148C332.119 252.148 333.041 251.656 333.588 250.758H333.713V252H334.994V246.234C334.994 244.484 333.845 243.43 331.791 243.43C329.994 243.43 328.666 244.32 328.486 245.672H329.845C330.033 245.008 330.736 244.625 331.744 244.625C333.002 244.625 333.65 245.195 333.65 246.234V247L331.22 247.148C329.259 247.266 328.15 248.133 328.15 249.641C328.15 251.18 329.361 252.148 330.994 252.148ZM331.244 250.969C330.267 250.969 329.541 250.469 329.541 249.609C329.541 248.766 330.103 248.32 331.384 248.234L333.65 248.086V248.859C333.65 250.062 332.627 250.969 331.244 250.969ZM337.178 252H338.522V246.781C338.522 245.594 339.452 244.734 340.733 244.734C340.998 244.734 341.483 244.781 341.592 244.812V243.469C341.42 243.445 341.139 243.43 340.92 243.43C339.803 243.43 338.834 244.008 338.584 244.828H338.459V243.578H337.178V252ZM349.875 252H351.281V240.727H349.883L346.883 242.883V244.367L349.75 242.289H349.875V252ZM358.333 252.258C360.645 252.258 362.286 250.641 362.286 248.375C362.286 246.188 360.731 244.602 358.583 244.602C357.239 244.602 356.137 245.242 355.583 246.336H355.458C355.505 243.273 356.598 241.711 358.473 241.711C359.614 241.711 360.442 242.297 360.677 243.344H362.122C361.833 241.594 360.481 240.461 358.427 240.461C355.762 240.461 354.091 242.68 354.091 246.555C354.091 250.352 355.88 252.258 358.333 252.258ZM358.317 251.023C356.872 251.023 355.77 249.883 355.77 248.375C355.77 246.883 356.841 245.82 358.333 245.82C359.825 245.82 360.864 246.883 360.864 248.422C360.864 249.898 359.762 251.023 358.317 251.023Z" fill="#051E17"/>
<path d="M200.618 320.975C200.72 322.312 201.853 323.183 203.497 323.183C205.269 323.183 206.392 322.275 206.392 320.852C206.392 319.713 205.747 319.09 204.141 318.687L203.33 318.472C202.261 318.198 201.837 317.849 201.837 317.242C201.837 316.458 202.519 315.942 203.55 315.942C204.517 315.942 205.172 316.415 205.307 317.21H206.279C206.198 315.958 205.081 315.067 203.583 315.067C201.944 315.067 200.843 315.958 200.843 317.274C200.843 318.375 201.45 319.009 202.852 319.364L203.846 319.622C204.915 319.89 205.398 320.309 205.398 320.97C205.398 321.738 204.63 322.302 203.588 322.302C202.487 322.302 201.713 321.786 201.595 320.975H200.618ZM208.97 323V319.643H212.402V318.784H208.97V316.12H212.708V315.25H208.003V323H208.97ZM217.402 315.25V323H218.369V320.234H220.319C221.774 320.234 222.811 319.208 222.811 317.758C222.811 316.281 221.796 315.25 220.33 315.25H217.402ZM218.369 316.109H220.077C221.2 316.109 221.817 316.694 221.817 317.758C221.817 318.784 221.178 319.375 220.077 319.375H218.369V316.109ZM224.277 323H225.201V319.412C225.201 318.596 225.84 318.005 226.721 318.005C226.904 318.005 227.237 318.037 227.312 318.059V317.135C227.194 317.119 227 317.108 226.85 317.108C226.082 317.108 225.416 317.505 225.244 318.069H225.158V317.21H224.277V323ZM230.685 323.102C232.334 323.102 233.354 321.963 233.354 320.105C233.354 318.241 232.334 317.108 230.685 317.108C229.036 317.108 228.016 318.241 228.016 320.105C228.016 321.963 229.036 323.102 230.685 323.102ZM230.685 322.27C229.589 322.27 228.972 321.475 228.972 320.105C228.972 318.73 229.589 317.94 230.685 317.94C231.781 317.94 232.398 318.73 232.398 320.105C232.398 321.475 231.781 322.27 230.685 322.27ZM241.008 323V316.12H243.506V315.25H237.544V316.12H240.042V323H241.008ZM247.642 321.501C247.4 322.012 246.895 322.286 246.148 322.286C245.166 322.286 244.526 321.561 244.478 320.417V320.374H248.641V320.019C248.641 318.22 247.69 317.108 246.127 317.108C244.537 317.108 243.517 318.29 243.517 320.11C243.517 321.942 244.521 323.102 246.127 323.102C247.395 323.102 248.297 322.49 248.565 321.501H247.642ZM246.116 317.924C247.035 317.924 247.647 318.601 247.668 319.627H244.478C244.548 318.601 245.192 317.924 246.116 317.924ZM251.922 320.83L253.292 323.016H254.388L252.395 320.083L254.361 317.226H253.313L251.955 319.38H251.869L250.494 317.226H249.393L251.396 320.121L249.414 323.016H250.461L251.836 320.83H251.922ZM256.031 315.711V317.21H255.097V317.983H256.031V321.496C256.031 322.603 256.509 323.043 257.702 323.043C257.884 323.043 258.062 323.021 258.244 322.989V322.21C258.072 322.227 257.981 322.232 257.814 322.232C257.213 322.232 256.955 321.942 256.955 321.26V317.983H258.244V317.21H256.955V315.711H256.031ZM263.83 319.933H265.737L267.396 323H268.53L266.736 319.783C267.708 319.477 268.293 318.639 268.293 317.559C268.293 316.163 267.316 315.25 265.823 315.25H262.863V323H263.83V319.933ZM263.83 316.109H265.694C266.693 316.109 267.294 316.662 267.294 317.591C267.294 318.542 266.73 319.074 265.737 319.074H263.83V316.109ZM273.605 321.501C273.364 322.012 272.859 322.286 272.112 322.286C271.129 322.286 270.49 321.561 270.442 320.417V320.374H274.604V320.019C274.604 318.22 273.654 317.108 272.091 317.108C270.501 317.108 269.48 318.29 269.48 320.11C269.48 321.942 270.485 323.102 272.091 323.102C273.358 323.102 274.261 322.49 274.529 321.501H273.605ZM272.08 317.924C272.999 317.924 273.611 318.601 273.632 319.627H270.442C270.512 318.601 271.156 317.924 272.08 317.924ZM278.439 325.224C280.019 325.224 281.018 324.396 281.018 323.102V317.21H280.137V318.128H280.051C279.718 317.505 279.003 317.108 278.192 317.108C276.705 317.108 275.765 318.284 275.765 320.019C275.765 321.754 276.694 322.914 278.192 322.914C278.987 322.914 279.643 322.554 280.008 321.915H280.094V323.054C280.094 323.908 279.476 324.418 278.439 324.418C277.607 324.418 277.091 324.112 276.989 323.639H276.012C276.151 324.595 277.043 325.224 278.439 325.224ZM278.396 322.098C277.322 322.098 276.721 321.281 276.721 320.019C276.721 318.757 277.322 317.94 278.396 317.94C279.465 317.94 280.115 318.757 280.115 320.019C280.115 321.281 279.471 322.098 278.396 322.098ZM287.441 317.21H286.518V320.637C286.518 321.652 285.959 322.259 284.938 322.259C284.015 322.259 283.628 321.775 283.628 320.733V317.21H282.704V320.959C282.704 322.329 283.381 323.102 284.681 323.102C285.567 323.102 286.185 322.737 286.475 322.092H286.561V323H287.441V317.21ZM289.235 323H290.159V314.911H289.235V323ZM293.564 323.102C294.338 323.102 294.972 322.764 295.348 322.146H295.434V323H296.314V319.036C296.314 317.833 295.525 317.108 294.112 317.108C292.877 317.108 291.964 317.72 291.84 318.649H292.775C292.904 318.193 293.387 317.93 294.08 317.93C294.945 317.93 295.391 318.322 295.391 319.036V319.562L293.72 319.665C292.372 319.745 291.609 320.341 291.609 321.378C291.609 322.436 292.442 323.102 293.564 323.102ZM293.736 322.291C293.065 322.291 292.565 321.947 292.565 321.356C292.565 320.776 292.952 320.47 293.833 320.411L295.391 320.309V320.841C295.391 321.668 294.687 322.291 293.736 322.291ZM298.022 323H298.946V319.412C298.946 318.596 299.585 318.005 300.466 318.005C300.649 318.005 300.982 318.037 301.057 318.059V317.135C300.939 317.119 300.746 317.108 300.595 317.108C299.827 317.108 299.161 317.505 298.989 318.069H298.903V317.21H298.022V323ZM307.164 323H308.131V315.25H307.169L305.107 316.732V317.752L307.078 316.324H307.164V323ZM312.299 323H313.266V315.25H312.304L310.242 316.732V317.752L312.213 316.324H312.299V323Z" fill="#051E17"/>
<path d="M124.109 323.183C125.758 323.183 126.982 322.264 127.24 320.841H126.257C126.01 321.738 125.188 322.291 124.109 322.291C122.616 322.291 121.681 321.072 121.681 319.127C121.681 317.183 122.616 315.958 124.104 315.958C125.172 315.958 126 316.587 126.257 317.586H127.24C127.009 316.093 125.736 315.067 124.104 315.067C121.998 315.067 120.688 316.625 120.688 319.127C120.688 321.625 122.003 323.183 124.109 323.183ZM130.355 323.102C131.129 323.102 131.763 322.764 132.139 322.146H132.225V323H133.105V319.036C133.105 317.833 132.316 317.108 130.903 317.108C129.668 317.108 128.755 317.72 128.631 318.649H129.566C129.695 318.193 130.178 317.93 130.871 317.93C131.736 317.93 132.182 318.322 132.182 319.036V319.562L130.511 319.665C129.163 319.745 128.4 320.341 128.4 321.378C128.4 322.436 129.233 323.102 130.355 323.102ZM130.527 322.291C129.856 322.291 129.356 321.947 129.356 321.356C129.356 320.776 129.743 320.47 130.624 320.411L132.182 320.309V320.841C132.182 321.668 131.478 322.291 130.527 322.291ZM137.633 317.108C136.844 317.108 136.151 317.511 135.78 318.177H135.694V317.21H134.813V324.934H135.737V322.13H135.823C136.14 322.742 136.806 323.102 137.633 323.102C139.105 323.102 140.066 321.915 140.066 320.105C140.066 318.284 139.11 317.108 137.633 317.108ZM137.413 322.27C136.371 322.27 135.71 321.432 135.71 320.105C135.71 318.773 136.371 317.94 137.418 317.94C138.477 317.94 139.11 318.751 139.11 320.105C139.11 321.458 138.477 322.27 137.413 322.27ZM141.903 315.711V317.21H140.969V317.983H141.903V321.496C141.903 322.603 142.381 323.043 143.574 323.043C143.756 323.043 143.934 323.021 144.116 322.989V322.21C143.944 322.227 143.853 322.232 143.687 322.232C143.085 322.232 142.827 321.942 142.827 321.26V317.983H144.116V317.21H142.827V315.711H141.903ZM145.996 316.093C146.351 316.093 146.641 315.803 146.641 315.448C146.641 315.094 146.351 314.804 145.996 314.804C145.642 314.804 145.352 315.094 145.352 315.448C145.352 315.803 145.642 316.093 145.996 316.093ZM145.534 323H146.458V317.21H145.534V323ZM150.599 323.102C152.248 323.102 153.269 321.963 153.269 320.105C153.269 318.241 152.248 317.108 150.599 317.108C148.95 317.108 147.93 318.241 147.93 320.105C147.93 321.963 148.95 323.102 150.599 323.102ZM150.599 322.27C149.503 322.27 148.886 321.475 148.886 320.105C148.886 318.73 149.503 317.94 150.599 317.94C151.695 317.94 152.312 318.73 152.312 320.105C152.312 321.475 151.695 322.27 150.599 322.27ZM154.719 323H155.643V319.573C155.643 318.558 156.239 317.94 157.163 317.94C158.086 317.94 158.527 318.435 158.527 319.477V323H159.451V319.251C159.451 317.876 158.726 317.108 157.426 317.108C156.54 317.108 155.976 317.484 155.686 318.123H155.6V317.21H154.719V323Z" fill="#051E17"/>
<path d="M128.836 252C131.234 252 132.656 250.82 132.656 248.836C132.656 247.344 131.68 246.289 130.141 246.094V245.969C131.227 245.773 132.086 244.711 132.086 243.539C132.086 241.812 130.82 240.727 128.75 240.727H124.438V252H128.836ZM125.844 241.969H128.453C129.852 241.969 130.664 242.633 130.664 243.781C130.664 244.977 129.797 245.586 128.094 245.586H125.844V241.969ZM125.844 250.758V246.797H128.492C130.289 246.797 131.211 247.461 131.211 248.766C131.211 250.07 130.32 250.758 128.625 250.758H125.844ZM137.942 252.148C140.341 252.148 141.825 250.492 141.825 247.789C141.825 245.078 140.341 243.43 137.942 243.43C135.544 243.43 134.059 245.078 134.059 247.789C134.059 250.492 135.544 252.148 137.942 252.148ZM137.942 250.938C136.348 250.938 135.45 249.781 135.45 247.789C135.45 245.789 136.348 244.641 137.942 244.641C139.536 244.641 140.434 245.789 140.434 247.789C140.434 249.781 139.536 250.938 137.942 250.938ZM146.752 252.148C147.916 252.148 148.916 251.594 149.447 250.656H149.572V252H150.853V240.234H149.509V244.906H149.392C148.916 243.984 147.923 243.43 146.752 243.43C144.611 243.43 143.212 245.148 143.212 247.789C143.212 250.438 144.595 252.148 146.752 252.148ZM147.064 244.641C148.587 244.641 149.541 245.859 149.541 247.789C149.541 249.734 148.595 250.938 147.064 250.938C145.525 250.938 144.603 249.758 144.603 247.789C144.603 245.828 145.533 244.641 147.064 244.641ZM153.881 255.047C155.373 255.047 156.045 254.469 156.764 252.516L160.053 243.578H158.623L156.319 250.508H156.194L153.881 243.578H152.428L155.545 252.008L155.389 252.508C155.038 253.523 154.616 253.891 153.842 253.891C153.655 253.891 153.444 253.883 153.28 253.852V255C153.467 255.031 153.702 255.047 153.881 255.047Z" fill="#051E17"/>
<path d="M75.7861 285.423C75.916 287.125 77.3584 288.232 79.4502 288.232C81.7061 288.232 83.1348 287.077 83.1348 285.266C83.1348 283.816 82.3145 283.023 80.2705 282.511L79.2383 282.237C77.8779 281.889 77.3379 281.444 77.3379 280.672C77.3379 279.674 78.2061 279.018 79.5186 279.018C80.749 279.018 81.583 279.619 81.7539 280.631H82.9912C82.8887 279.038 81.4668 277.903 79.5596 277.903C77.4746 277.903 76.0732 279.038 76.0732 280.713C76.0732 282.114 76.8457 282.921 78.6299 283.372L79.8945 283.7C81.2549 284.042 81.8701 284.575 81.8701 285.416C81.8701 286.394 80.8926 287.111 79.5664 287.111C78.165 287.111 77.1807 286.455 77.0303 285.423H75.7861ZM90.9961 280.631H89.8203V284.992C89.8203 286.284 89.1094 287.057 87.8105 287.057C86.6348 287.057 86.1426 286.441 86.1426 285.115V280.631H84.9668V285.402C84.9668 287.146 85.8281 288.13 87.4824 288.13C88.6104 288.13 89.3965 287.665 89.7656 286.845H89.875V288H90.9961V280.631ZM96.875 288.13C98.7412 288.13 99.9648 286.619 99.9648 284.315C99.9648 281.998 98.748 280.501 96.875 280.501C95.8633 280.501 94.9678 281 94.5645 281.793H94.4551V277.705H93.2793V288H94.4004V286.824H94.5098C94.9746 287.645 95.8496 288.13 96.875 288.13ZM96.6016 281.561C97.9482 281.561 98.748 282.593 98.748 284.315C98.748 286.038 97.9482 287.07 96.6016 287.07C95.2617 287.07 94.4277 286.018 94.4277 284.315C94.4277 282.613 95.2617 281.561 96.6016 281.561ZM106.247 284.589V283.475H101.763V284.589H106.247ZM108.482 288H109.658V283.639C109.658 282.395 110.383 281.561 111.702 281.561C112.816 281.561 113.404 282.21 113.404 283.516V288H114.58V283.229C114.58 281.499 113.596 280.501 112.037 280.501C110.909 280.501 110.137 280.979 109.768 281.793H109.658V277.705H108.482V288ZM121.607 286.093C121.3 286.742 120.657 287.091 119.707 287.091C118.456 287.091 117.643 286.168 117.581 284.712V284.657H122.879V284.206C122.879 281.916 121.669 280.501 119.68 280.501C117.656 280.501 116.357 282.005 116.357 284.322C116.357 286.653 117.636 288.13 119.68 288.13C121.293 288.13 122.441 287.351 122.783 286.093H121.607ZM119.666 281.54C120.835 281.54 121.614 282.401 121.642 283.707H117.581C117.67 282.401 118.49 281.54 119.666 281.54ZM126.775 288.13C127.76 288.13 128.566 287.699 129.045 286.913H129.154V288H130.275V282.955C130.275 281.424 129.271 280.501 127.473 280.501C125.9 280.501 124.738 281.28 124.581 282.463H125.771C125.935 281.882 126.55 281.547 127.432 281.547C128.532 281.547 129.1 282.046 129.1 282.955V283.625L126.974 283.755C125.258 283.857 124.287 284.616 124.287 285.936C124.287 287.282 125.347 288.13 126.775 288.13ZM126.994 287.098C126.14 287.098 125.504 286.66 125.504 285.908C125.504 285.17 125.996 284.78 127.117 284.705L129.1 284.575V285.252C129.1 286.305 128.204 287.098 126.994 287.098ZM135.177 288.13C136.195 288.13 137.07 287.645 137.535 286.824H137.645V288H138.766V277.705H137.59V281.793H137.487C137.07 280.986 136.202 280.501 135.177 280.501C133.304 280.501 132.08 282.005 132.08 284.315C132.08 286.633 133.29 288.13 135.177 288.13ZM135.45 281.561C136.783 281.561 137.617 282.627 137.617 284.315C137.617 286.018 136.79 287.07 135.45 287.07C134.104 287.07 133.297 286.038 133.297 284.315C133.297 282.6 134.11 281.561 135.45 281.561ZM141.664 279.209C142.115 279.209 142.484 278.84 142.484 278.389C142.484 277.938 142.115 277.568 141.664 277.568C141.213 277.568 140.844 277.938 140.844 278.389C140.844 278.84 141.213 279.209 141.664 279.209ZM141.076 288H142.252V280.631H141.076V288ZM144.494 288H145.67V283.639C145.67 282.347 146.429 281.561 147.604 281.561C148.78 281.561 149.341 282.189 149.341 283.516V288H150.517V283.229C150.517 281.479 149.594 280.501 147.939 280.501C146.812 280.501 146.094 280.979 145.725 281.793H145.615V280.631H144.494V288ZM155.705 290.83C157.715 290.83 158.986 289.777 158.986 288.13V280.631H157.865V281.8H157.756C157.332 281.007 156.423 280.501 155.391 280.501C153.497 280.501 152.301 281.998 152.301 284.206C152.301 286.414 153.483 287.891 155.391 287.891C156.402 287.891 157.236 287.433 157.701 286.619H157.811V288.068C157.811 289.155 157.024 289.805 155.705 289.805C154.646 289.805 153.989 289.415 153.859 288.813H152.615C152.793 290.03 153.928 290.83 155.705 290.83ZM155.65 286.852C154.283 286.852 153.518 285.812 153.518 284.206C153.518 282.6 154.283 281.561 155.65 281.561C157.011 281.561 157.838 282.6 157.838 284.206C157.838 285.812 157.018 286.852 155.65 286.852Z" fill="#051E17"/>
</svg>
