<svg width="1441" height="1024" viewBox="0 0 1441 1024" fill="none" xmlns="http://www.w3.org/2000/svg">
<path fill-rule="evenodd" clip-rule="evenodd" d="M1413.29 919.903C1410.64 911.052 1404.41 904.124 1397.94 897.776C1385.35 885.419 1378.58 877.778 1374.09 859.701C1371.45 849.07 1368.77 837.804 1360.4 830.091C1354.3 824.474 1343.81 819.755 1335.66 823.777C1323.12 831.261 1319.76 846.62 1321.02 860.372C1322.59 877.418 1330.55 887.928 1345.85 894.207C1354.46 897.743 1360.19 902.408 1364.87 910.538C1368.61 917.039 1370.8 925.18 1375.5 931.073C1382.53 939.882 1391.33 943.799 1402.17 942.335C1392.02 923.646 1380.15 904.781 1365.83 889.045C1364.49 887.463 1356.59 881.408 1358.18 878.712C1359.94 875.743 1368.05 886.895 1368 886.827C1372.16 891.603 1376.01 896.677 1379.79 901.8C1379.78 901.805 1379.76 901.808 1379.75 901.813C1383.65 907.07 1387.51 912.405 1391.29 917.806C1392.83 920.091 1394.32 922.405 1395.74 924.777C1397.84 928.257 1401.16 938.136 1404.59 940.276C1405.32 940.733 1406 940.989 1406.63 941.095C1408.97 944.923 1411.25 948.783 1413.41 952.688C1419.06 962.886 1423.91 973.655 1426.14 985.17C1426.79 988.53 1426.33 1001.1 1428.62 1003.53C1432.82 1007.97 1431.59 999.42 1431.34 996.841C1429.25 975.481 1421.59 957.283 1410.45 939.326C1413.87 934.859 1414.37 923.49 1413.29 919.903" fill="#11624B"/>
<path fill-rule="evenodd" clip-rule="evenodd" d="M1269.64 930.224C1274.06 925.014 1284.69 924.13 1291.19 924.479C1299.23 924.91 1307.5 926.868 1315.15 929.236C1327.76 933.136 1340.01 940.254 1351.11 947.142C1352.45 947.973 1368.93 957.886 1367.48 959.626C1366.03 961.35 1349.85 949.574 1346.24 947.544C1338.54 943.212 1331.49 938.088 1323 935.227C1314.22 932.265 1304.93 931.091 1295.69 931.172C1294.51 931.183 1290.64 930.356 1290.55 932.11C1290.47 933.826 1296.87 932.931 1298 932.941C1302.66 932.984 1307.35 933.422 1311.94 934.23C1320.55 935.743 1328.64 938.791 1336.01 943.466C1333.96 948.248 1329.03 950.453 1323.85 949.257C1319.38 948.222 1315.02 945.67 1310.65 944.932C1307.63 944.424 1304.61 944.727 1301.69 945.576C1293.98 947.817 1289.53 952.408 1281.05 949.215C1274.4 946.711 1263.29 937.716 1269.64 930.224" fill="#11624B"/>
<path fill-rule="evenodd" clip-rule="evenodd" d="M26.6138 919.906C29.2673 911.054 35.498 904.126 41.9658 897.778C54.5568 885.42 61.3286 877.78 65.8162 859.703C68.4551 849.071 71.1411 837.805 79.5116 830.091C85.6063 824.474 96.096 819.755 104.247 823.777C116.786 831.261 120.153 846.621 118.889 860.374C117.322 877.42 109.359 887.93 94.0623 894.209C85.4433 897.745 79.7138 902.41 75.0351 910.541C71.2926 917.042 69.1105 925.182 64.4075 931.076C57.3764 939.885 48.5777 943.802 37.7325 942.338C47.8905 923.648 59.7592 904.783 74.0745 889.047C75.4144 887.465 83.3181 881.41 81.7241 878.714C79.9679 875.745 71.8542 886.896 71.9116 886.829C67.7515 891.604 63.9019 896.679 60.1217 901.802C60.1313 901.807 60.1426 901.81 60.153 901.815C56.261 907.072 52.3999 912.407 48.6124 917.808C47.0807 920.093 45.5899 922.407 44.1626 924.779C42.0684 928.26 38.7445 938.138 35.3171 940.279C34.5838 940.736 33.9059 940.992 33.2721 941.098C30.9338 944.926 28.6584 948.786 26.4945 952.691C20.8433 962.89 15.9928 973.659 13.7666 985.174C13.117 988.534 13.5767 1001.11 11.2826 1003.53C7.08811 1007.97 8.31691 999.424 8.56766 996.845C10.6511 975.485 18.3195 957.287 29.4536 939.329C26.0331 934.862 25.5392 923.492 26.6138 919.906" fill="#11624B"/>
<path fill-rule="evenodd" clip-rule="evenodd" d="M170.272 930.227C165.85 925.016 155.221 924.132 148.719 924.481C140.675 924.913 132.412 926.871 124.759 929.239C112.151 933.139 99.9002 940.257 88.7966 947.146C87.4586 947.976 70.973 957.89 72.4323 959.63C73.8779 961.353 90.0614 949.577 93.6682 947.547C101.365 943.215 108.423 938.091 116.907 935.23C125.692 932.267 134.982 931.094 144.219 931.175C145.405 931.186 149.272 930.359 149.355 932.113C149.437 933.828 143.038 932.933 141.91 932.944C137.25 932.986 132.561 933.425 127.967 934.233C119.359 935.746 111.267 938.794 103.895 943.469C105.952 948.251 110.883 950.457 116.056 949.26C120.527 948.225 124.885 945.673 129.263 944.935C132.278 944.427 135.296 944.73 138.22 945.579C145.932 947.82 150.38 952.412 158.859 949.218C165.506 946.714 176.623 937.719 170.272 930.227" fill="#11624B"/>
<path fill-rule="evenodd" clip-rule="evenodd" d="M26.8699 106.464C29.5234 115.316 35.7541 122.244 42.2218 128.592C54.8128 140.949 61.5846 148.59 66.0722 166.667C68.711 177.299 71.3971 188.565 79.7676 196.279C85.8622 201.896 96.3519 206.615 104.503 202.593C117.042 195.108 120.409 179.749 119.145 165.996C117.577 148.95 109.615 138.44 94.3183 132.161C85.6992 128.625 79.9697 123.96 75.2911 115.829C71.5485 109.328 69.3664 101.188 64.6635 95.2944C57.6324 86.4846 48.8337 82.5683 37.9885 84.0317C48.1465 102.722 60.0152 121.587 74.3304 137.323C75.6703 138.905 83.5741 144.96 81.98 147.656C80.2239 150.625 72.1101 139.473 72.1676 139.541C68.0075 134.766 64.1579 129.691 60.3777 124.568C60.3873 124.563 60.3985 124.56 60.409 124.555C56.5169 119.298 52.6559 113.963 48.8684 108.562C47.3367 106.277 45.8459 103.963 44.4186 101.591C42.3244 98.1102 39.0005 88.2315 35.5731 86.0912C34.8399 85.6336 34.1619 85.3779 33.5281 85.2723C31.1898 81.4436 28.9144 77.5841 26.7505 73.6791C21.0994 63.48 16.2489 52.7112 14.0226 41.1964C13.373 37.8356 13.8328 25.2638 11.5386 22.8376C7.34417 18.3999 8.57297 26.9457 8.82372 29.5251C10.9071 50.8853 18.5755 69.0831 29.7096 87.0405C26.2892 91.5077 25.7952 102.878 26.8699 106.464" fill="#11624B"/>
<path fill-rule="evenodd" clip-rule="evenodd" d="M170.528 96.1435C166.106 101.354 155.476 102.238 148.975 101.889C140.931 101.457 132.668 99.499 125.014 97.1311C112.407 93.2309 100.156 86.1134 89.0526 79.2243C87.7146 78.3942 71.229 68.4803 72.6883 66.7405C74.1339 65.0167 90.3174 76.793 93.9241 78.8227C101.621 83.1551 108.679 88.2787 117.163 91.1397C125.947 94.1026 135.238 95.2758 144.475 95.1949C145.66 95.1843 149.527 96.0109 149.611 94.257C149.693 92.5416 143.294 93.4366 142.166 93.4263C137.505 93.3835 132.816 92.9449 128.222 92.1373C119.615 90.6243 111.523 87.5763 104.151 82.9013C106.208 78.1186 111.139 75.9133 116.312 77.1102C120.782 78.1452 125.141 80.6967 129.518 81.4346C132.533 81.9425 135.552 81.6403 138.476 80.7909C146.188 78.5496 150.636 73.9582 159.115 77.152C165.762 79.6557 176.879 88.6508 170.528 96.1435" fill="#11624B"/>
<path fill-rule="evenodd" clip-rule="evenodd" d="M1412.16 106.469C1409.51 115.321 1403.28 122.249 1396.81 128.597C1384.22 140.954 1377.45 148.595 1372.96 166.672C1370.32 177.304 1367.64 188.57 1359.27 196.284C1353.17 201.901 1342.68 206.62 1334.53 202.598C1321.99 195.113 1318.62 179.754 1319.89 166.001C1321.46 148.955 1329.42 138.445 1344.72 132.166C1353.34 128.63 1359.06 123.965 1363.74 115.834C1367.49 109.333 1369.67 101.193 1374.37 95.2994C1381.4 86.4896 1390.2 82.5733 1401.05 84.0366C1390.89 102.726 1379.02 121.592 1364.7 137.328C1363.36 138.91 1355.46 144.965 1357.05 147.661C1358.81 150.63 1366.92 139.478 1366.87 139.546C1371.03 134.771 1374.88 129.696 1378.66 124.573C1378.65 124.568 1378.64 124.565 1378.63 124.56C1382.52 119.303 1386.38 113.968 1390.17 108.567C1391.7 106.282 1393.19 103.968 1394.62 101.596C1396.71 98.1152 1400.03 88.2365 1403.46 86.0962C1404.19 85.6386 1404.87 85.3828 1405.51 85.2773C1407.84 81.4486 1410.12 77.5891 1412.28 73.6841C1417.94 63.485 1422.79 52.7162 1425.01 41.2014C1425.66 37.8406 1425.2 25.2688 1427.5 22.8426C1431.69 18.4049 1430.46 26.9507 1430.21 29.5301C1428.13 50.8903 1420.46 69.0881 1409.32 87.0455C1412.75 91.5127 1413.24 102.883 1412.16 106.469" fill="#11624B"/>
<path fill-rule="evenodd" clip-rule="evenodd" d="M1268.51 96.1484C1272.93 101.358 1283.56 102.243 1290.06 101.894C1298.1 101.462 1306.37 99.504 1314.02 97.1361C1326.63 93.2359 1338.88 86.1183 1349.98 79.2293C1351.32 78.3992 1367.81 68.4853 1366.35 66.7455C1364.9 65.0217 1348.72 76.7979 1345.11 78.8276C1337.41 83.16 1330.36 88.2836 1321.87 91.1446C1313.09 94.1076 1303.8 95.2807 1294.56 95.1998C1293.37 95.1893 1289.51 96.0158 1289.42 94.2619C1289.34 92.5466 1295.74 93.4416 1296.87 93.4313C1301.53 93.3885 1306.22 92.9498 1310.81 92.1422C1319.42 90.6293 1327.51 87.5813 1334.88 82.9063C1332.83 78.1236 1327.9 75.9183 1322.72 77.1151C1318.25 78.1501 1313.89 80.7017 1309.52 81.4395C1306.5 81.9475 1303.48 81.6453 1300.56 80.7959C1292.85 78.5546 1288.4 73.9632 1279.92 77.157C1273.27 79.6607 1262.16 88.6558 1268.51 96.1484" fill="#11624B"/>
<path d="M491.404 185.566H487.332C487.718 185.584 488.103 185.525 488.465 185.393C488.826 185.262 489.157 185.06 489.436 184.8C489.716 184.54 489.938 184.227 490.09 183.881C490.242 183.534 490.321 183.161 490.321 182.784C490.321 182.408 490.242 182.035 490.09 181.688C489.938 181.342 489.716 181.029 489.436 180.769C489.157 180.509 488.826 180.307 488.465 180.176C488.103 180.044 487.718 179.985 487.332 180.003H454.344C453.612 180.037 452.921 180.345 452.415 180.863C451.91 181.381 451.627 182.069 451.627 182.784C451.627 183.5 451.91 184.188 452.415 184.706C452.921 185.224 453.612 185.532 454.344 185.566H458.416C457.683 185.6 456.993 185.908 456.487 186.426C455.981 186.944 455.699 187.632 455.699 188.347C455.699 189.063 455.981 189.751 456.487 190.268C456.993 190.786 457.683 191.094 458.416 191.128H452.717C451.985 191.162 451.294 191.47 450.788 191.988C450.282 192.506 450 193.194 450 193.91C450 194.625 450.282 195.313 450.788 195.831C451.294 196.349 451.985 196.657 452.717 196.691H485.705C486.09 196.709 486.476 196.65 486.837 196.519C487.199 196.387 487.53 196.185 487.809 195.925C488.088 195.665 488.311 195.352 488.463 195.006C488.615 194.659 488.693 194.287 488.693 193.91C488.693 193.533 488.615 193.16 488.463 192.814C488.311 192.467 488.088 192.154 487.809 191.894C487.53 191.634 487.199 191.432 486.837 191.301C486.476 191.169 486.09 191.11 485.705 191.128H491.404C492.136 191.094 492.826 190.786 493.332 190.268C493.838 189.751 494.12 189.063 494.12 188.347C494.12 187.632 493.838 186.944 493.332 186.426C492.826 185.908 492.136 185.6 491.404 185.566Z" fill="#11624B"/>
<path d="M891.404 185.566H887.332C887.718 185.584 888.103 185.525 888.465 185.393C888.826 185.262 889.157 185.06 889.436 184.8C889.716 184.54 889.938 184.227 890.09 183.881C890.242 183.534 890.321 183.161 890.321 182.784C890.321 182.408 890.242 182.035 890.09 181.688C889.938 181.342 889.716 181.029 889.436 180.769C889.157 180.509 888.826 180.307 888.465 180.176C888.103 180.044 887.718 179.985 887.332 180.003H854.344C853.612 180.037 852.921 180.345 852.415 180.863C851.91 181.381 851.627 182.069 851.627 182.784C851.627 183.5 851.91 184.188 852.415 184.706C852.921 185.224 853.612 185.532 854.344 185.566H858.416C857.683 185.6 856.993 185.908 856.487 186.426C855.981 186.944 855.699 187.632 855.699 188.347C855.699 189.063 855.981 189.751 856.487 190.268C856.993 190.786 857.683 191.094 858.416 191.128H852.717C851.985 191.162 851.294 191.47 850.788 191.988C850.282 192.506 850 193.194 850 193.91C850 194.625 850.282 195.313 850.788 195.831C851.294 196.349 851.985 196.657 852.717 196.691H885.705C886.09 196.709 886.476 196.65 886.837 196.519C887.199 196.387 887.53 196.185 887.809 195.925C888.088 195.665 888.311 195.352 888.463 195.006C888.615 194.659 888.693 194.287 888.693 193.91C888.693 193.533 888.615 193.16 888.463 192.814C888.311 192.467 888.088 192.154 887.809 191.894C887.53 191.634 887.199 191.432 886.837 191.301C886.476 191.169 886.09 191.11 885.705 191.128H891.404C892.136 191.094 892.826 190.786 893.332 190.268C893.838 189.751 894.12 189.063 894.12 188.347C894.12 187.632 893.838 186.944 893.332 186.426C892.826 185.908 892.136 185.6 891.404 185.566Z" fill="#11624B"/>
<path d="M491.404 534.566H487.332C487.718 534.584 488.103 534.525 488.465 534.393C488.826 534.262 489.157 534.06 489.436 533.8C489.716 533.54 489.938 533.227 490.09 532.881C490.242 532.534 490.321 532.161 490.321 531.784C490.321 531.408 490.242 531.035 490.09 530.688C489.938 530.342 489.716 530.029 489.436 529.769C489.157 529.509 488.826 529.307 488.465 529.176C488.103 529.044 487.718 528.985 487.332 529.003H454.344C453.612 529.037 452.921 529.345 452.415 529.863C451.91 530.381 451.627 531.069 451.627 531.784C451.627 532.5 451.91 533.188 452.415 533.706C452.921 534.224 453.612 534.532 454.344 534.566H458.416C457.683 534.6 456.993 534.908 456.487 535.426C455.981 535.944 455.699 536.632 455.699 537.347C455.699 538.063 455.981 538.751 456.487 539.268C456.993 539.786 457.683 540.094 458.416 540.128H452.717C451.985 540.162 451.294 540.47 450.788 540.988C450.282 541.506 450 542.194 450 542.91C450 543.625 450.282 544.313 450.788 544.831C451.294 545.349 451.985 545.657 452.717 545.691H485.705C486.09 545.709 486.476 545.65 486.837 545.519C487.199 545.387 487.53 545.185 487.809 544.925C488.088 544.665 488.311 544.352 488.463 544.006C488.615 543.659 488.693 543.287 488.693 542.91C488.693 542.533 488.615 542.16 488.463 541.814C488.311 541.467 488.088 541.154 487.809 540.894C487.53 540.634 487.199 540.432 486.837 540.301C486.476 540.169 486.09 540.11 485.705 540.128H491.404C492.136 540.094 492.826 539.786 493.332 539.268C493.838 538.751 494.12 538.063 494.12 537.347C494.12 536.632 493.838 535.944 493.332 535.426C492.826 534.908 492.136 534.6 491.404 534.566Z" fill="#11624B"/>
<path d="M805.404 517.566H801.332C801.718 517.584 802.103 517.525 802.465 517.393C802.826 517.262 803.157 517.06 803.436 516.8C803.716 516.54 803.938 516.227 804.09 515.881C804.242 515.534 804.321 515.161 804.321 514.784C804.321 514.408 804.242 514.035 804.09 513.688C803.938 513.342 803.716 513.029 803.436 512.769C803.157 512.509 802.826 512.307 802.465 512.176C802.103 512.044 801.718 511.985 801.332 512.003H768.344C767.612 512.037 766.921 512.345 766.415 512.863C765.91 513.381 765.627 514.069 765.627 514.784C765.627 515.5 765.91 516.188 766.415 516.706C766.921 517.224 767.612 517.532 768.344 517.566H772.416C771.683 517.6 770.993 517.908 770.487 518.426C769.981 518.944 769.699 519.632 769.699 520.347C769.699 521.063 769.981 521.751 770.487 522.268C770.993 522.786 771.683 523.094 772.416 523.128H766.717C765.985 523.162 765.294 523.47 764.788 523.988C764.282 524.506 764 525.194 764 525.91C764 526.625 764.282 527.313 764.788 527.831C765.294 528.349 765.985 528.657 766.717 528.691H799.705C800.09 528.709 800.476 528.65 800.837 528.519C801.199 528.387 801.53 528.185 801.809 527.925C802.088 527.665 802.311 527.352 802.463 527.006C802.615 526.659 802.693 526.287 802.693 525.91C802.693 525.533 802.615 525.16 802.463 524.814C802.311 524.467 802.088 524.154 801.809 523.894C801.53 523.634 801.199 523.432 800.837 523.301C800.476 523.169 800.09 523.11 799.705 523.128H805.404C806.136 523.094 806.826 522.786 807.332 522.268C807.838 521.751 808.12 521.063 808.12 520.347C808.12 519.632 807.838 518.944 807.332 518.426C806.826 517.908 806.136 517.6 805.404 517.566Z" fill="#11624B"/>
<path d="M694.404 5.56578H690.332C690.718 5.58374 691.103 5.5251 691.465 5.39343C691.826 5.26176 692.157 5.05979 692.436 4.79975C692.716 4.53972 692.938 4.22703 693.09 3.88062C693.242 3.53422 693.321 3.16131 693.321 2.78447C693.321 2.40764 693.242 2.03472 693.09 1.68831C692.938 1.3419 692.716 1.02921 692.436 0.769177C692.157 0.509142 691.826 0.307179 691.465 0.175509C691.103 0.0438395 690.718 -0.0147957 690.332 0.00316414H657.344C656.612 0.0372652 655.921 0.345186 655.415 0.863046C654.91 1.38091 654.627 2.06896 654.627 2.78447C654.627 3.49998 654.91 4.18804 655.415 4.7059C655.921 5.22376 656.612 5.53168 657.344 5.56578H661.416C660.683 5.59988 659.993 5.90779 659.487 6.42565C658.981 6.94351 658.699 7.63156 658.699 8.34707C658.699 9.06259 658.981 9.75064 659.487 10.2685C659.993 10.7864 660.683 11.0943 661.416 11.1284H655.717C654.985 11.1625 654.294 11.4704 653.788 11.9883C653.282 12.5061 653 13.1942 653 13.9097C653 14.6252 653.282 15.3133 653.788 15.8311C654.294 16.349 654.985 16.6569 655.717 16.691H688.705C689.09 16.709 689.476 16.6503 689.837 16.5186C690.199 16.387 690.53 16.185 690.809 15.925C691.088 15.6649 691.311 15.3522 691.463 15.0058C691.615 14.6594 691.693 14.2865 691.693 13.9097C691.693 13.5329 691.615 13.1599 691.463 12.8135C691.311 12.4671 691.088 12.1544 690.809 11.8944C690.53 11.6344 690.199 11.4324 689.837 11.3007C689.476 11.1691 689.09 11.1104 688.705 11.1284H694.404C695.136 11.0943 695.826 10.7864 696.332 10.2685C696.838 9.75064 697.12 9.06259 697.12 8.34707C697.12 7.63156 696.838 6.94351 696.332 6.42565C695.826 5.90779 695.136 5.59988 694.404 5.56578Z" fill="#11624B"/>
<path d="M396.404 841.566H392.332C392.718 841.584 393.103 841.525 393.465 841.393C393.826 841.262 394.157 841.06 394.436 840.8C394.716 840.54 394.938 840.227 395.09 839.881C395.242 839.534 395.321 839.161 395.321 838.784C395.321 838.408 395.242 838.035 395.09 837.688C394.938 837.342 394.716 837.029 394.436 836.769C394.157 836.509 393.826 836.307 393.465 836.176C393.103 836.044 392.718 835.985 392.332 836.003H359.344C358.612 836.037 357.921 836.345 357.415 836.863C356.91 837.381 356.627 838.069 356.627 838.784C356.627 839.5 356.91 840.188 357.415 840.706C357.921 841.224 358.612 841.532 359.344 841.566H363.416C362.683 841.6 361.993 841.908 361.487 842.426C360.981 842.944 360.699 843.632 360.699 844.347C360.699 845.063 360.981 845.751 361.487 846.268C361.993 846.786 362.683 847.094 363.416 847.128H357.717C356.985 847.162 356.294 847.47 355.788 847.988C355.282 848.506 355 849.194 355 849.91C355 850.625 355.282 851.313 355.788 851.831C356.294 852.349 356.985 852.657 357.717 852.691H390.705C391.09 852.709 391.476 852.65 391.837 852.519C392.199 852.387 392.53 852.185 392.809 851.925C393.088 851.665 393.311 851.352 393.463 851.006C393.615 850.659 393.693 850.287 393.693 849.91C393.693 849.533 393.615 849.16 393.463 848.814C393.311 848.467 393.088 848.154 392.809 847.894C392.53 847.634 392.199 847.432 391.837 847.301C391.476 847.169 391.09 847.11 390.705 847.128H396.404C397.136 847.094 397.826 846.786 398.332 846.268C398.838 845.751 399.12 845.063 399.12 844.347C399.12 843.632 398.838 842.944 398.332 842.426C397.826 841.908 397.136 841.6 396.404 841.566Z" fill="#11624B"/>
<path d="M195.404 365.566H191.332C191.718 365.584 192.103 365.525 192.465 365.393C192.826 365.262 193.157 365.06 193.436 364.8C193.716 364.54 193.938 364.227 194.09 363.881C194.242 363.534 194.321 363.161 194.321 362.784C194.321 362.408 194.242 362.035 194.09 361.688C193.938 361.342 193.716 361.029 193.436 360.769C193.157 360.509 192.826 360.307 192.465 360.176C192.103 360.044 191.718 359.985 191.332 360.003H158.344C157.612 360.037 156.921 360.345 156.415 360.863C155.91 361.381 155.627 362.069 155.627 362.784C155.627 363.5 155.91 364.188 156.415 364.706C156.921 365.224 157.612 365.532 158.344 365.566H162.416C161.683 365.6 160.993 365.908 160.487 366.426C159.981 366.944 159.699 367.632 159.699 368.347C159.699 369.063 159.981 369.751 160.487 370.268C160.993 370.786 161.683 371.094 162.416 371.128H156.717C155.985 371.162 155.294 371.47 154.788 371.988C154.282 372.506 154 373.194 154 373.91C154 374.625 154.282 375.313 154.788 375.831C155.294 376.349 155.985 376.657 156.717 376.691H189.705C190.09 376.709 190.476 376.65 190.837 376.519C191.199 376.387 191.53 376.185 191.809 375.925C192.088 375.665 192.311 375.352 192.463 375.006C192.615 374.659 192.693 374.287 192.693 373.91C192.693 373.533 192.615 373.16 192.463 372.814C192.311 372.467 192.088 372.154 191.809 371.894C191.53 371.634 191.199 371.432 190.837 371.301C190.476 371.169 190.09 371.11 189.705 371.128H195.404C196.136 371.094 196.826 370.786 197.332 370.268C197.838 369.751 198.12 369.063 198.12 368.347C198.12 367.632 197.838 366.944 197.332 366.426C196.826 365.908 196.136 365.6 195.404 365.566Z" fill="#11624B"/>
<path d="M772.404 894.566H768.332C768.718 894.584 769.103 894.525 769.465 894.393C769.826 894.262 770.157 894.06 770.436 893.8C770.716 893.54 770.938 893.227 771.09 892.881C771.242 892.534 771.321 892.161 771.321 891.784C771.321 891.408 771.242 891.035 771.09 890.688C770.938 890.342 770.716 890.029 770.436 889.769C770.157 889.509 769.826 889.307 769.465 889.176C769.103 889.044 768.718 888.985 768.332 889.003H735.344C734.612 889.037 733.921 889.345 733.415 889.863C732.91 890.381 732.627 891.069 732.627 891.784C732.627 892.5 732.91 893.188 733.415 893.706C733.921 894.224 734.612 894.532 735.344 894.566H739.416C738.683 894.6 737.993 894.908 737.487 895.426C736.981 895.944 736.699 896.632 736.699 897.347C736.699 898.063 736.981 898.751 737.487 899.268C737.993 899.786 738.683 900.094 739.416 900.128H733.717C732.985 900.162 732.294 900.47 731.788 900.988C731.282 901.506 731 902.194 731 902.91C731 903.625 731.282 904.313 731.788 904.831C732.294 905.349 732.985 905.657 733.717 905.691H766.705C767.09 905.709 767.476 905.65 767.837 905.519C768.199 905.387 768.53 905.185 768.809 904.925C769.088 904.665 769.311 904.352 769.463 904.006C769.615 903.659 769.693 903.287 769.693 902.91C769.693 902.533 769.615 902.16 769.463 901.814C769.311 901.467 769.088 901.154 768.809 900.894C768.53 900.634 768.199 900.432 767.837 900.301C767.476 900.169 767.09 900.11 766.705 900.128H772.404C773.136 900.094 773.826 899.786 774.332 899.268C774.838 898.751 775.12 898.063 775.12 897.347C775.12 896.632 774.838 895.944 774.332 895.426C773.826 894.908 773.136 894.6 772.404 894.566Z" fill="#11624B"/>
<path d="M1171.4 321.566H1167.33C1167.72 321.584 1168.1 321.525 1168.46 321.393C1168.83 321.262 1169.16 321.06 1169.44 320.8C1169.72 320.54 1169.94 320.227 1170.09 319.881C1170.24 319.534 1170.32 319.161 1170.32 318.784C1170.32 318.408 1170.24 318.035 1170.09 317.688C1169.94 317.342 1169.72 317.029 1169.44 316.769C1169.16 316.509 1168.83 316.307 1168.46 316.176C1168.1 316.044 1167.72 315.985 1167.33 316.003H1134.34C1133.61 316.037 1132.92 316.345 1132.42 316.863C1131.91 317.381 1131.63 318.069 1131.63 318.784C1131.63 319.5 1131.91 320.188 1132.42 320.706C1132.92 321.224 1133.61 321.532 1134.34 321.566H1138.42C1137.68 321.6 1136.99 321.908 1136.49 322.426C1135.98 322.944 1135.7 323.632 1135.7 324.347C1135.7 325.063 1135.98 325.751 1136.49 326.268C1136.99 326.786 1137.68 327.094 1138.42 327.128H1132.72C1131.98 327.162 1131.29 327.47 1130.79 327.988C1130.28 328.506 1130 329.194 1130 329.91C1130 330.625 1130.28 331.313 1130.79 331.831C1131.29 332.349 1131.98 332.657 1132.72 332.691H1165.7C1166.09 332.709 1166.48 332.65 1166.84 332.519C1167.2 332.387 1167.53 332.185 1167.81 331.925C1168.09 331.665 1168.31 331.352 1168.46 331.006C1168.61 330.659 1168.69 330.287 1168.69 329.91C1168.69 329.533 1168.61 329.16 1168.46 328.814C1168.31 328.467 1168.09 328.154 1167.81 327.894C1167.53 327.634 1167.2 327.432 1166.84 327.301C1166.48 327.169 1166.09 327.11 1165.7 327.128H1171.4C1172.14 327.094 1172.83 326.786 1173.33 326.268C1173.84 325.751 1174.12 325.063 1174.12 324.347C1174.12 323.632 1173.84 322.944 1173.33 322.426C1172.83 321.908 1172.14 321.6 1171.4 321.566Z" fill="#11624B"/>
<path d="M41.4035 632.566H37.3319C37.7175 632.584 38.1029 632.525 38.4646 632.393C38.8264 632.262 39.157 632.06 39.4364 631.8C39.7158 631.54 39.9383 631.227 40.0902 630.881C40.2422 630.534 40.3206 630.161 40.3206 629.784C40.3206 629.408 40.2422 629.035 40.0902 628.688C39.9383 628.342 39.7158 628.029 39.4364 627.769C39.157 627.509 38.8264 627.307 38.4646 627.176C38.1029 627.044 37.7175 626.985 37.3319 627.003H4.34411C3.61189 627.037 2.92123 627.345 2.41539 627.863C1.90954 628.381 1.62735 629.069 1.62735 629.784C1.62735 630.5 1.90954 631.188 2.41539 631.706C2.92123 632.224 3.61189 632.532 4.34411 632.566H8.41571C7.6835 632.6 6.99283 632.908 6.48699 633.426C5.98115 633.944 5.69896 634.632 5.69896 635.347C5.69896 636.063 5.98115 636.751 6.48699 637.268C6.99283 637.786 7.6835 638.094 8.41571 638.128H2.71676C1.98455 638.162 1.29388 638.47 0.788034 638.988C0.282192 639.506 0 640.194 0 640.91C0 641.625 0.282192 642.313 0.788034 642.831C1.29388 643.349 1.98455 643.657 2.71676 643.691H35.7046C36.0902 643.709 36.4755 643.65 36.8373 643.519C37.199 643.387 37.5296 643.185 37.809 642.925C38.0885 642.665 38.3109 642.352 38.4629 642.006C38.6149 641.659 38.6932 641.287 38.6932 640.91C38.6932 640.533 38.6149 640.16 38.4629 639.814C38.3109 639.467 38.0885 639.154 37.809 638.894C37.5296 638.634 37.199 638.432 36.8373 638.301C36.4755 638.169 36.0902 638.11 35.7046 638.128H41.4035C42.1357 638.094 42.8264 637.786 43.3322 637.268C43.8381 636.751 44.1203 636.063 44.1203 635.347C44.1203 634.632 43.8381 633.944 43.3322 633.426C42.8264 632.908 42.1357 632.6 41.4035 632.566Z" fill="#11624B"/>
<path d="M1437.4 485.566H1433.33C1433.72 485.584 1434.1 485.525 1434.46 485.393C1434.83 485.262 1435.16 485.06 1435.44 484.8C1435.72 484.54 1435.94 484.227 1436.09 483.881C1436.24 483.534 1436.32 483.161 1436.32 482.784C1436.32 482.408 1436.24 482.035 1436.09 481.688C1435.94 481.342 1435.72 481.029 1435.44 480.769C1435.16 480.509 1434.83 480.307 1434.46 480.176C1434.1 480.044 1433.72 479.985 1433.33 480.003H1400.34C1399.61 480.037 1398.92 480.345 1398.42 480.863C1397.91 481.381 1397.63 482.069 1397.63 482.784C1397.63 483.5 1397.91 484.188 1398.42 484.706C1398.92 485.224 1399.61 485.532 1400.34 485.566H1404.42C1403.68 485.6 1402.99 485.908 1402.49 486.426C1401.98 486.944 1401.7 487.632 1401.7 488.347C1401.7 489.063 1401.98 489.751 1402.49 490.268C1402.99 490.786 1403.68 491.094 1404.42 491.128H1398.72C1397.98 491.162 1397.29 491.47 1396.79 491.988C1396.28 492.506 1396 493.194 1396 493.91C1396 494.625 1396.28 495.313 1396.79 495.831C1397.29 496.349 1397.98 496.657 1398.72 496.691H1431.7C1432.09 496.709 1432.48 496.65 1432.84 496.519C1433.2 496.387 1433.53 496.185 1433.81 495.925C1434.09 495.665 1434.31 495.352 1434.46 495.006C1434.61 494.659 1434.69 494.287 1434.69 493.91C1434.69 493.533 1434.61 493.16 1434.46 492.814C1434.31 492.467 1434.09 492.154 1433.81 491.894C1433.53 491.634 1433.2 491.432 1432.84 491.301C1432.48 491.169 1432.09 491.11 1431.7 491.128H1437.4C1438.14 491.094 1438.83 490.786 1439.33 490.268C1439.84 489.751 1440.12 489.063 1440.12 488.347C1440.12 487.632 1439.84 486.944 1439.33 486.426C1438.83 485.908 1438.14 485.6 1437.4 485.566Z" fill="#11624B"/>
<path d="M1127.4 729.566H1123.33C1123.72 729.584 1124.1 729.525 1124.46 729.393C1124.83 729.262 1125.16 729.06 1125.44 728.8C1125.72 728.54 1125.94 728.227 1126.09 727.881C1126.24 727.534 1126.32 727.161 1126.32 726.784C1126.32 726.408 1126.24 726.035 1126.09 725.688C1125.94 725.342 1125.72 725.029 1125.44 724.769C1125.16 724.509 1124.83 724.307 1124.46 724.176C1124.1 724.044 1123.72 723.985 1123.33 724.003H1090.34C1089.61 724.037 1088.92 724.345 1088.42 724.863C1087.91 725.381 1087.63 726.069 1087.63 726.784C1087.63 727.5 1087.91 728.188 1088.42 728.706C1088.92 729.224 1089.61 729.532 1090.34 729.566H1094.42C1093.68 729.6 1092.99 729.908 1092.49 730.426C1091.98 730.944 1091.7 731.632 1091.7 732.347C1091.7 733.063 1091.98 733.751 1092.49 734.268C1092.99 734.786 1093.68 735.094 1094.42 735.128H1088.72C1087.98 735.162 1087.29 735.47 1086.79 735.988C1086.28 736.506 1086 737.194 1086 737.91C1086 738.625 1086.28 739.313 1086.79 739.831C1087.29 740.349 1087.98 740.657 1088.72 740.691H1121.7C1122.09 740.709 1122.48 740.65 1122.84 740.519C1123.2 740.387 1123.53 740.185 1123.81 739.925C1124.09 739.665 1124.31 739.352 1124.46 739.006C1124.61 738.659 1124.69 738.287 1124.69 737.91C1124.69 737.533 1124.61 737.16 1124.46 736.814C1124.31 736.467 1124.09 736.154 1123.81 735.894C1123.53 735.634 1123.2 735.432 1122.84 735.301C1122.48 735.169 1122.09 735.11 1121.7 735.128H1127.4C1128.14 735.094 1128.83 734.786 1129.33 734.268C1129.84 733.751 1130.12 733.063 1130.12 732.347C1130.12 731.632 1129.84 730.944 1129.33 730.426C1128.83 729.908 1128.14 729.6 1127.4 729.566Z" fill="#11624B"/>
</svg>
