<svg width="855" height="95" viewBox="0 0 855 95" fill="none" xmlns="http://www.w3.org/2000/svg">
<rect width="152" height="95" rx="4" fill="#2B2D33"/>
<rect x="175" width="152" height="95" rx="4" fill="#2B2D33"/>
<rect x="351" width="152" height="95" rx="4" fill="#2B2D33"/>
<rect x="527" width="152" height="95" rx="4" fill="#2B2D33"/>
<rect x="703" width="152" height="95" rx="4" fill="#2B2D33"/>
<path d="M65.7949 42.1758C65.1445 42.1758 64.5791 42.0996 64.0986 41.9473C63.624 41.7949 63.2314 41.5811 62.9209 41.3057C62.6162 41.0303 62.3701 40.6787 62.1826 40.251C62.001 39.8174 61.8721 39.3516 61.7959 38.8535C61.7256 38.3496 61.6904 37.7666 61.6904 37.1045V27.4277H64.2656V37.377C64.2656 37.7168 64.2744 38.0068 64.292 38.2471C64.3096 38.4873 64.3477 38.7393 64.4062 39.0029C64.4648 39.2666 64.5469 39.4775 64.6523 39.6357C64.7637 39.7939 64.9131 39.9258 65.1006 40.0312C65.2939 40.1367 65.5254 40.1895 65.7949 40.1895C66.0645 40.1895 66.293 40.1367 66.4805 40.0312C66.6738 39.9258 66.8203 39.7939 66.9199 39.6357C67.0254 39.4775 67.1074 39.2666 67.166 39.0029C67.2305 38.7393 67.2686 38.4902 67.2803 38.2559C67.2979 38.0156 67.3066 37.7227 67.3066 37.377V27.4277H69.8818V37.1045C69.8818 37.7666 69.8438 38.3496 69.7676 38.8535C69.6973 39.3516 69.5684 39.8174 69.3809 40.251C69.1992 40.6787 68.9561 41.0303 68.6514 41.3057C68.3467 41.5811 67.9541 41.7949 67.4736 41.9473C66.999 42.0996 66.4395 42.1758 65.7949 42.1758ZM74.4961 42.167C73.6348 42.167 72.9287 41.9268 72.3779 41.4463C71.8271 40.9658 71.4492 40.2744 71.2441 39.3721L73.1074 38.6953C73.2363 39.2695 73.418 39.7061 73.6523 40.0049C73.8867 40.2979 74.1797 40.4385 74.5312 40.4268C74.7891 40.4209 75 40.3301 75.1641 40.1543C75.334 39.9727 75.4131 39.7529 75.4014 39.4951C75.3779 39.1201 75.0352 38.6484 74.373 38.0801L72.9756 36.8848C71.9678 36.0176 71.4756 35.1123 71.499 34.1689C71.5166 33.3369 71.7979 32.6748 72.3428 32.1826C72.8936 31.6846 73.5938 31.4355 74.4434 31.4355C75.2578 31.4355 75.9199 31.6816 76.4297 32.1738C76.9395 32.666 77.2705 33.3252 77.4229 34.1514L75.8057 34.8281C75.583 33.75 75.167 33.208 74.5576 33.2021C74.2998 33.1963 74.0918 33.2754 73.9336 33.4395C73.7812 33.6035 73.7051 33.7998 73.7051 34.0283C73.6992 34.3447 73.9893 34.7578 74.5752 35.2676L75.999 36.5596C76.2393 36.7705 76.4385 36.9609 76.5967 37.1309C76.7549 37.2949 76.9189 37.4971 77.0889 37.7373C77.2646 37.9775 77.3936 38.2354 77.4756 38.5107C77.5635 38.7861 77.6074 39.082 77.6074 39.3984C77.6074 40.2773 77.3145 40.96 76.7285 41.4463C76.1484 41.9268 75.4043 42.167 74.4961 42.167ZM81.1846 35.6895H82.96V34.6963C82.96 34.1689 82.8926 33.791 82.7578 33.5625C82.6289 33.334 82.3975 33.2197 82.0635 33.2197C81.7236 33.2197 81.4922 33.3486 81.3691 33.6064C81.2461 33.8643 81.1846 34.333 81.1846 35.0127V35.6895ZM82.0898 42.167C80.9004 42.167 80.0449 41.8389 79.5234 41.1826C79.002 40.5264 78.7412 39.5566 78.7412 38.2734V35.3291C78.7412 34.0459 79.0049 33.0762 79.5322 32.4199C80.0596 31.7637 80.9092 31.4355 82.0811 31.4355C82.7021 31.4355 83.2236 31.5264 83.6455 31.708C84.0732 31.8896 84.4043 32.165 84.6387 32.5342C84.8789 32.9033 85.0488 33.3311 85.1484 33.8174C85.248 34.2979 85.2979 34.8779 85.2979 35.5576V36.9199H81.1846V38.4844C81.1846 38.7012 81.1846 38.8711 81.1846 38.9941C81.1904 39.1113 81.2021 39.2549 81.2197 39.4248C81.2373 39.5947 81.2637 39.7266 81.2988 39.8203C81.3398 39.9141 81.3926 40.0107 81.457 40.1104C81.5215 40.2041 81.6064 40.2715 81.7119 40.3125C81.8174 40.3535 81.9404 40.374 82.0811 40.374C82.4092 40.374 82.6377 40.2598 82.7666 40.0312C82.8955 39.7969 82.96 39.46 82.96 39.0205V38.4229H85.2891V38.8359C85.2891 39.9141 85.0195 40.7402 84.4805 41.3145C83.9473 41.8828 83.1504 42.167 82.0898 42.167ZM87.0205 42V31.5938H89.4814V33.1934C89.8271 32.5781 90.1758 32.1357 90.5273 31.8662C90.8848 31.5967 91.2656 31.4619 91.6699 31.4619C91.793 31.4619 91.916 31.4766 92.0391 31.5059V33.9404C91.7637 33.835 91.4795 33.7822 91.1865 33.7822C90.835 33.7939 90.5244 33.8818 90.2549 34.0459C89.9912 34.21 89.7334 34.4824 89.4814 34.8633V42H87.0205ZM48.208 60.6504H48.8496C49.6348 60.6504 50.1914 60.4834 50.5195 60.1494C50.8535 59.8154 51.0205 59.2441 51.0205 58.4355C51.0205 57.6562 50.877 57.0996 50.5898 56.7656C50.3027 56.4258 49.7754 56.2559 49.0078 56.2559H48.208V60.6504ZM45.5537 69V54.4277H48.8936C49.6611 54.4277 50.3203 54.4922 50.8711 54.6211C51.4219 54.7441 51.8994 54.9551 52.3037 55.2539C52.7139 55.5469 53.0186 55.9482 53.2178 56.458C53.4229 56.9619 53.5254 57.5801 53.5254 58.3125C53.5254 59.2266 53.3877 59.9736 53.1123 60.5537C52.8428 61.1338 52.3945 61.5557 51.7676 61.8193L53.7891 69H51.126L49.3857 62.3467H48.208V69H45.5537ZM57.6387 62.6895H59.4141V61.6963C59.4141 61.1689 59.3467 60.791 59.2119 60.5625C59.083 60.334 58.8516 60.2197 58.5176 60.2197C58.1777 60.2197 57.9463 60.3486 57.8232 60.6064C57.7002 60.8643 57.6387 61.333 57.6387 62.0127V62.6895ZM58.5439 69.167C57.3545 69.167 56.499 68.8389 55.9775 68.1826C55.4561 67.5264 55.1953 66.5566 55.1953 65.2734V62.3291C55.1953 61.0459 55.459 60.0762 55.9863 59.4199C56.5137 58.7637 57.3633 58.4355 58.5352 58.4355C59.1562 58.4355 59.6777 58.5264 60.0996 58.708C60.5273 58.8896 60.8584 59.165 61.0928 59.5342C61.333 59.9033 61.5029 60.3311 61.6025 60.8174C61.7021 61.2979 61.752 61.8779 61.752 62.5576V63.9199H57.6387V65.4844C57.6387 65.7012 57.6387 65.8711 57.6387 65.9941C57.6445 66.1113 57.6562 66.2549 57.6738 66.4248C57.6914 66.5947 57.7178 66.7266 57.7529 66.8203C57.7939 66.9141 57.8467 67.0107 57.9111 67.1104C57.9756 67.2041 58.0605 67.2715 58.166 67.3125C58.2715 67.3535 58.3945 67.374 58.5352 67.374C58.8633 67.374 59.0918 67.2598 59.2207 67.0312C59.3496 66.7969 59.4141 66.46 59.4141 66.0205V65.4229H61.7432V65.8359C61.7432 66.9141 61.4736 67.7402 60.9346 68.3145C60.4014 68.8828 59.6045 69.167 58.5439 69.167ZM66.1377 69.167C65.2764 69.167 64.5703 68.9268 64.0195 68.4463C63.4688 67.9658 63.0908 67.2744 62.8857 66.3721L64.749 65.6953C64.8779 66.2695 65.0596 66.7061 65.2939 67.0049C65.5283 67.2979 65.8213 67.4385 66.1729 67.4268C66.4307 67.4209 66.6416 67.3301 66.8057 67.1543C66.9756 66.9727 67.0547 66.7529 67.043 66.4951C67.0195 66.1201 66.6768 65.6484 66.0146 65.0801L64.6172 63.8848C63.6094 63.0176 63.1172 62.1123 63.1406 61.1689C63.1582 60.3369 63.4395 59.6748 63.9844 59.1826C64.5352 58.6846 65.2354 58.4355 66.085 58.4355C66.8994 58.4355 67.5615 58.6816 68.0713 59.1738C68.5811 59.666 68.9121 60.3252 69.0645 61.1514L67.4473 61.8281C67.2246 60.75 66.8086 60.208 66.1992 60.2021C65.9414 60.1963 65.7334 60.2754 65.5752 60.4395C65.4229 60.6035 65.3467 60.7998 65.3467 61.0283C65.3408 61.3447 65.6309 61.7578 66.2168 62.2676L67.6406 63.5596C67.8809 63.7705 68.0801 63.9609 68.2383 64.1309C68.3965 64.2949 68.5605 64.4971 68.7305 64.7373C68.9062 64.9775 69.0352 65.2354 69.1172 65.5107C69.2051 65.7861 69.249 66.082 69.249 66.3984C69.249 67.2773 68.9561 67.96 68.3701 68.4463C67.79 68.9268 67.0459 69.167 66.1377 69.167ZM72.8262 62.6895H74.6016V61.6963C74.6016 61.1689 74.5342 60.791 74.3994 60.5625C74.2705 60.334 74.0391 60.2197 73.7051 60.2197C73.3652 60.2197 73.1338 60.3486 73.0107 60.6064C72.8877 60.8643 72.8262 61.333 72.8262 62.0127V62.6895ZM73.7314 69.167C72.542 69.167 71.6865 68.8389 71.165 68.1826C70.6436 67.5264 70.3828 66.5566 70.3828 65.2734V62.3291C70.3828 61.0459 70.6465 60.0762 71.1738 59.4199C71.7012 58.7637 72.5508 58.4355 73.7227 58.4355C74.3438 58.4355 74.8652 58.5264 75.2871 58.708C75.7148 58.8896 76.0459 59.165 76.2803 59.5342C76.5205 59.9033 76.6904 60.3311 76.79 60.8174C76.8896 61.2979 76.9395 61.8779 76.9395 62.5576V63.9199H72.8262V65.4844C72.8262 65.7012 72.8262 65.8711 72.8262 65.9941C72.832 66.1113 72.8438 66.2549 72.8613 66.4248C72.8789 66.5947 72.9053 66.7266 72.9404 66.8203C72.9814 66.9141 73.0342 67.0107 73.0986 67.1104C73.1631 67.2041 73.248 67.2715 73.3535 67.3125C73.459 67.3535 73.582 67.374 73.7227 67.374C74.0508 67.374 74.2793 67.2598 74.4082 67.0312C74.5371 66.7969 74.6016 66.46 74.6016 66.0205V65.4229H76.9307V65.8359C76.9307 66.9141 76.6611 67.7402 76.1221 68.3145C75.5889 68.8828 74.792 69.167 73.7314 69.167ZM81.5713 67.2598C81.7588 67.2598 81.9434 67.1895 82.125 67.0488C82.3125 66.9082 82.4619 66.7646 82.5732 66.6182V63.7529C81.3545 64.4268 80.7451 65.1914 80.7451 66.0469C80.7451 66.4219 80.8154 66.7178 80.9561 66.9346C81.1025 67.1514 81.3076 67.2598 81.5713 67.2598ZM80.6309 69.167C79.9746 69.1611 79.4355 68.9062 79.0137 68.4023C78.5977 67.8926 78.3896 67.3184 78.3896 66.6797C78.3896 66.0762 78.4893 65.5488 78.6885 65.0977C78.8877 64.6465 79.2129 64.2598 79.6641 63.9375C80.1211 63.6152 80.499 63.3809 80.7979 63.2344C81.0967 63.0879 81.5566 62.8945 82.1777 62.6543C82.3535 62.584 82.4854 62.5312 82.5732 62.4961V61.626C82.5732 61.1572 82.5176 60.8145 82.4062 60.5977C82.3008 60.3809 82.0811 60.2725 81.7471 60.2725C81.2021 60.2725 80.9238 60.6533 80.9121 61.415L80.877 62.0654L78.5215 61.9775C78.5215 61.9424 78.5215 61.8779 78.5215 61.7842C78.5273 61.6904 78.5303 61.6289 78.5303 61.5996C78.6064 60.5098 78.9287 59.71 79.4971 59.2002C80.0713 58.6904 80.8887 58.4355 81.9492 58.4355C82.9746 58.4355 83.7334 58.7139 84.2256 59.2705C84.7236 59.8271 84.9727 60.6152 84.9727 61.6348V66.3896C84.9727 67.1865 85.0371 68.0566 85.166 69H82.9424C82.8076 68.3203 82.7227 67.8105 82.6875 67.4707C82.541 67.9512 82.2949 68.3555 81.9492 68.6836C81.6094 69.0059 81.1699 69.167 80.6309 69.167ZM86.8184 69V58.5938H89.2793V60.1934C89.625 59.5781 89.9736 59.1357 90.3252 58.8662C90.6826 58.5967 91.0635 58.4619 91.4678 58.4619C91.5908 58.4619 91.7139 58.4766 91.8369 58.5059V60.9404C91.5615 60.835 91.2773 60.7822 90.9844 60.7822C90.6328 60.7939 90.3223 60.8818 90.0527 61.0459C89.7891 61.21 89.5312 61.4824 89.2793 61.8633V69H86.8184ZM96.0732 69.167C94.8955 69.167 94.0488 68.8359 93.5332 68.1738C93.0176 67.5117 92.7598 66.5537 92.7598 65.2998V62.2852C92.7598 61.0312 93.0176 60.0762 93.5332 59.4199C94.0488 58.7637 94.8955 58.4355 96.0732 58.4355C97.1807 58.4355 97.9834 58.6963 98.4814 59.2178C98.9854 59.7393 99.2373 60.5479 99.2373 61.6436V62.4873H96.9434V61.5996C96.9434 61.0723 96.8789 60.7061 96.75 60.501C96.627 60.29 96.4102 60.1846 96.0996 60.1846C95.7539 60.1846 95.5195 60.3076 95.3965 60.5537C95.2793 60.7998 95.2207 61.2568 95.2207 61.9248V65.7217C95.2207 66.3838 95.2852 66.832 95.4141 67.0664C95.5488 67.2949 95.7773 67.4092 96.0996 67.4092C96.4277 67.4092 96.6504 67.2979 96.7676 67.0752C96.8848 66.8467 96.9434 66.5039 96.9434 66.0469V64.9307H99.2373V65.915C99.2373 66.9932 98.9795 67.8047 98.4639 68.3496C97.9541 68.8945 97.1572 69.167 96.0732 69.167ZM100.907 69V54.4277H103.359V59.6045C104.18 58.8252 105.044 58.4355 105.952 58.4355C106.198 58.4355 106.418 58.4795 106.611 58.5674C106.811 58.6494 106.972 58.7637 107.095 58.9102C107.224 59.0508 107.329 59.2207 107.411 59.4199C107.499 59.6133 107.561 59.8154 107.596 60.0264C107.631 60.2314 107.648 60.4512 107.648 60.6855V69H105.196V61.2305C105.196 60.9023 105.146 60.6592 105.047 60.501C104.953 60.3428 104.771 60.2666 104.502 60.2725C104.18 60.2783 103.799 60.4482 103.359 60.7822V69H100.907Z" fill="white"/>
<path d="M240.795 42.1758C240.145 42.1758 239.579 42.0996 239.099 41.9473C238.624 41.7949 238.231 41.5811 237.921 41.3057C237.616 41.0303 237.37 40.6787 237.183 40.251C237.001 39.8174 236.872 39.3516 236.796 38.8535C236.726 38.3496 236.69 37.7666 236.69 37.1045V27.4277H239.266V37.377C239.266 37.7168 239.274 38.0068 239.292 38.2471C239.31 38.4873 239.348 38.7393 239.406 39.0029C239.465 39.2666 239.547 39.4775 239.652 39.6357C239.764 39.7939 239.913 39.9258 240.101 40.0312C240.294 40.1367 240.525 40.1895 240.795 40.1895C241.064 40.1895 241.293 40.1367 241.48 40.0312C241.674 39.9258 241.82 39.7939 241.92 39.6357C242.025 39.4775 242.107 39.2666 242.166 39.0029C242.23 38.7393 242.269 38.4902 242.28 38.2559C242.298 38.0156 242.307 37.7227 242.307 37.377V27.4277H244.882V37.1045C244.882 37.7666 244.844 38.3496 244.768 38.8535C244.697 39.3516 244.568 39.8174 244.381 40.251C244.199 40.6787 243.956 41.0303 243.651 41.3057C243.347 41.5811 242.954 41.7949 242.474 41.9473C241.999 42.0996 241.439 42.1758 240.795 42.1758ZM249.496 42.167C248.635 42.167 247.929 41.9268 247.378 41.4463C246.827 40.9658 246.449 40.2744 246.244 39.3721L248.107 38.6953C248.236 39.2695 248.418 39.7061 248.652 40.0049C248.887 40.2979 249.18 40.4385 249.531 40.4268C249.789 40.4209 250 40.3301 250.164 40.1543C250.334 39.9727 250.413 39.7529 250.401 39.4951C250.378 39.1201 250.035 38.6484 249.373 38.0801L247.976 36.8848C246.968 36.0176 246.476 35.1123 246.499 34.1689C246.517 33.3369 246.798 32.6748 247.343 32.1826C247.894 31.6846 248.594 31.4355 249.443 31.4355C250.258 31.4355 250.92 31.6816 251.43 32.1738C251.939 32.666 252.271 33.3252 252.423 34.1514L250.806 34.8281C250.583 33.75 250.167 33.208 249.558 33.2021C249.3 33.1963 249.092 33.2754 248.934 33.4395C248.781 33.6035 248.705 33.7998 248.705 34.0283C248.699 34.3447 248.989 34.7578 249.575 35.2676L250.999 36.5596C251.239 36.7705 251.438 36.9609 251.597 37.1309C251.755 37.2949 251.919 37.4971 252.089 37.7373C252.265 37.9775 252.394 38.2354 252.476 38.5107C252.563 38.7861 252.607 39.082 252.607 39.3984C252.607 40.2773 252.314 40.96 251.729 41.4463C251.148 41.9268 250.404 42.167 249.496 42.167ZM256.185 35.6895H257.96V34.6963C257.96 34.1689 257.893 33.791 257.758 33.5625C257.629 33.334 257.397 33.2197 257.063 33.2197C256.724 33.2197 256.492 33.3486 256.369 33.6064C256.246 33.8643 256.185 34.333 256.185 35.0127V35.6895ZM257.09 42.167C255.9 42.167 255.045 41.8389 254.523 41.1826C254.002 40.5264 253.741 39.5566 253.741 38.2734V35.3291C253.741 34.0459 254.005 33.0762 254.532 32.4199C255.06 31.7637 255.909 31.4355 257.081 31.4355C257.702 31.4355 258.224 31.5264 258.646 31.708C259.073 31.8896 259.404 32.165 259.639 32.5342C259.879 32.9033 260.049 33.3311 260.148 33.8174C260.248 34.2979 260.298 34.8779 260.298 35.5576V36.9199H256.185V38.4844C256.185 38.7012 256.185 38.8711 256.185 38.9941C256.19 39.1113 256.202 39.2549 256.22 39.4248C256.237 39.5947 256.264 39.7266 256.299 39.8203C256.34 39.9141 256.393 40.0107 256.457 40.1104C256.521 40.2041 256.606 40.2715 256.712 40.3125C256.817 40.3535 256.94 40.374 257.081 40.374C257.409 40.374 257.638 40.2598 257.767 40.0312C257.896 39.7969 257.96 39.46 257.96 39.0205V38.4229H260.289V38.8359C260.289 39.9141 260.02 40.7402 259.48 41.3145C258.947 41.8828 258.15 42.167 257.09 42.167ZM262.021 42V31.5938H264.481V33.1934C264.827 32.5781 265.176 32.1357 265.527 31.8662C265.885 31.5967 266.266 31.4619 266.67 31.4619C266.793 31.4619 266.916 31.4766 267.039 31.5059V33.9404C266.764 33.835 266.479 33.7822 266.187 33.7822C265.835 33.7939 265.524 33.8818 265.255 34.0459C264.991 34.21 264.733 34.4824 264.481 34.8633V42H262.021ZM226.776 63.8848H228.728L227.752 57.8994L226.776 63.8848ZM223.393 69L226.354 54.4277H229.123L232.076 69H229.606L229.018 65.6162H226.495L225.897 69H223.393ZM233.368 69V58.5938H235.829V59.6133C236.667 58.8281 237.514 58.4355 238.369 58.4355C238.961 58.4355 239.392 58.6523 239.661 59.0859C239.937 59.5195 240.074 60.0527 240.074 60.6855V69H237.613V61.2305C237.613 60.9023 237.566 60.6592 237.473 60.501C237.379 60.3428 237.197 60.2666 236.928 60.2725C236.623 60.2783 236.257 60.4365 235.829 60.7471V69H233.368ZM244.838 67.2598C245.025 67.2598 245.21 67.1895 245.392 67.0488C245.579 66.9082 245.729 66.7646 245.84 66.6182V63.7529C244.621 64.4268 244.012 65.1914 244.012 66.0469C244.012 66.4219 244.082 66.7178 244.223 66.9346C244.369 67.1514 244.574 67.2598 244.838 67.2598ZM243.897 69.167C243.241 69.1611 242.702 68.9062 242.28 68.4023C241.864 67.8926 241.656 67.3184 241.656 66.6797C241.656 66.0762 241.756 65.5488 241.955 65.0977C242.154 64.6465 242.479 64.2598 242.931 63.9375C243.388 63.6152 243.766 63.3809 244.064 63.2344C244.363 63.0879 244.823 62.8945 245.444 62.6543C245.62 62.584 245.752 62.5312 245.84 62.4961V61.626C245.84 61.1572 245.784 60.8145 245.673 60.5977C245.567 60.3809 245.348 60.2725 245.014 60.2725C244.469 60.2725 244.19 60.6533 244.179 61.415L244.144 62.0654L241.788 61.9775C241.788 61.9424 241.788 61.8779 241.788 61.7842C241.794 61.6904 241.797 61.6289 241.797 61.5996C241.873 60.5098 242.195 59.71 242.764 59.2002C243.338 58.6904 244.155 58.4355 245.216 58.4355C246.241 58.4355 247 58.7139 247.492 59.2705C247.99 59.8271 248.239 60.6152 248.239 61.6348V66.3896C248.239 67.1865 248.304 68.0566 248.433 69H246.209C246.074 68.3203 245.989 67.8105 245.954 67.4707C245.808 67.9512 245.562 68.3555 245.216 68.6836C244.876 69.0059 244.437 69.167 243.897 69.167ZM250.208 69V54.4277H252.669V69H250.208ZM254.655 71.7861V70.0107C255.405 70.0107 255.897 69.9375 256.132 69.791C256.372 69.6504 256.451 69.3486 256.369 68.8857C256.293 68.4756 256.173 67.9658 256.009 67.3564C255.845 66.665 255.47 65.1885 254.884 62.9268C254.298 60.665 253.929 59.2207 253.776 58.5938H256.185L257.477 65.4316L258.61 58.5938H261.01L258.54 69.5449C258.358 70.3652 257.963 70.9453 257.354 71.2852C256.75 71.625 255.95 71.792 254.954 71.7861H254.655ZM264.824 69.167C263.963 69.167 263.257 68.9268 262.706 68.4463C262.155 67.9658 261.777 67.2744 261.572 66.3721L263.436 65.6953C263.564 66.2695 263.746 66.7061 263.98 67.0049C264.215 67.2979 264.508 67.4385 264.859 67.4268C265.117 67.4209 265.328 67.3301 265.492 67.1543C265.662 66.9727 265.741 66.7529 265.729 66.4951C265.706 66.1201 265.363 65.6484 264.701 65.0801L263.304 63.8848C262.296 63.0176 261.804 62.1123 261.827 61.1689C261.845 60.3369 262.126 59.6748 262.671 59.1826C263.222 58.6846 263.922 58.4355 264.771 58.4355C265.586 58.4355 266.248 58.6816 266.758 59.1738C267.268 59.666 267.599 60.3252 267.751 61.1514L266.134 61.8281C265.911 60.75 265.495 60.208 264.886 60.2021C264.628 60.1963 264.42 60.2754 264.262 60.4395C264.109 60.6035 264.033 60.7998 264.033 61.0283C264.027 61.3447 264.317 61.7578 264.903 62.2676L266.327 63.5596C266.567 63.7705 266.767 63.9609 266.925 64.1309C267.083 64.2949 267.247 64.4971 267.417 64.7373C267.593 64.9775 267.722 65.2354 267.804 65.5107C267.892 65.7861 267.936 66.082 267.936 66.3984C267.936 67.2773 267.643 67.96 267.057 68.4463C266.477 68.9268 265.732 69.167 264.824 69.167ZM269.342 56.9502V54.876H271.812V56.9502H269.342ZM269.342 69V58.5938H271.803V69H269.342ZM276.443 69.167C275.582 69.167 274.876 68.9268 274.325 68.4463C273.774 67.9658 273.396 67.2744 273.191 66.3721L275.055 65.6953C275.184 66.2695 275.365 66.7061 275.6 67.0049C275.834 67.2979 276.127 67.4385 276.479 67.4268C276.736 67.4209 276.947 67.3301 277.111 67.1543C277.281 66.9727 277.36 66.7529 277.349 66.4951C277.325 66.1201 276.982 65.6484 276.32 65.0801L274.923 63.8848C273.915 63.0176 273.423 62.1123 273.446 61.1689C273.464 60.3369 273.745 59.6748 274.29 59.1826C274.841 58.6846 275.541 58.4355 276.391 58.4355C277.205 58.4355 277.867 58.6816 278.377 59.1738C278.887 59.666 279.218 60.3252 279.37 61.1514L277.753 61.8281C277.53 60.75 277.114 60.208 276.505 60.2021C276.247 60.1963 276.039 60.2754 275.881 60.4395C275.729 60.6035 275.652 60.7998 275.652 61.0283C275.646 61.3447 275.937 61.7578 276.522 62.2676L277.946 63.5596C278.187 63.7705 278.386 63.9609 278.544 64.1309C278.702 64.2949 278.866 64.4971 279.036 64.7373C279.212 64.9775 279.341 65.2354 279.423 65.5107C279.511 65.7861 279.555 66.082 279.555 66.3984C279.555 67.2773 279.262 67.96 278.676 68.4463C278.096 68.9268 277.352 69.167 276.443 69.167Z" fill="white"/>
<path d="M386.104 33.6504H386.746C387.531 33.6504 388.088 33.4834 388.416 33.1494C388.75 32.8154 388.917 32.2441 388.917 31.4355C388.917 30.6562 388.773 30.0996 388.486 29.7656C388.199 29.4258 387.672 29.2559 386.904 29.2559H386.104V33.6504ZM383.45 42V27.4277H386.79C387.558 27.4277 388.217 27.4922 388.768 27.6211C389.318 27.7441 389.796 27.9551 390.2 28.2539C390.61 28.5469 390.915 28.9482 391.114 29.458C391.319 29.9619 391.422 30.5801 391.422 31.3125C391.422 32.2266 391.284 32.9736 391.009 33.5537C390.739 34.1338 390.291 34.5557 389.664 34.8193L391.686 42H389.022L387.282 35.3467H386.104V42H383.45ZM395.535 35.6895H397.311V34.6963C397.311 34.1689 397.243 33.791 397.108 33.5625C396.979 33.334 396.748 33.2197 396.414 33.2197C396.074 33.2197 395.843 33.3486 395.72 33.6064C395.597 33.8643 395.535 34.333 395.535 35.0127V35.6895ZM396.44 42.167C395.251 42.167 394.396 41.8389 393.874 41.1826C393.353 40.5264 393.092 39.5566 393.092 38.2734V35.3291C393.092 34.0459 393.355 33.0762 393.883 32.4199C394.41 31.7637 395.26 31.4355 396.432 31.4355C397.053 31.4355 397.574 31.5264 397.996 31.708C398.424 31.8896 398.755 32.165 398.989 32.5342C399.229 32.9033 399.399 33.3311 399.499 33.8174C399.599 34.2979 399.648 34.8779 399.648 35.5576V36.9199H395.535V38.4844C395.535 38.7012 395.535 38.8711 395.535 38.9941C395.541 39.1113 395.553 39.2549 395.57 39.4248C395.588 39.5947 395.614 39.7266 395.649 39.8203C395.69 39.9141 395.743 40.0107 395.808 40.1104C395.872 40.2041 395.957 40.2715 396.062 40.3125C396.168 40.3535 396.291 40.374 396.432 40.374C396.76 40.374 396.988 40.2598 397.117 40.0312C397.246 39.7969 397.311 39.46 397.311 39.0205V38.4229H399.64V38.8359C399.64 39.9141 399.37 40.7402 398.831 41.3145C398.298 41.8828 397.501 42.167 396.44 42.167ZM404.579 40.4092C404.866 40.4092 405.186 40.3125 405.537 40.1191V33.4922C405.203 33.2754 404.881 33.167 404.57 33.167C404.236 33.167 403.996 33.3164 403.85 33.6152C403.703 33.9141 403.63 34.2949 403.63 34.7578V38.5723C403.63 38.9414 403.65 39.252 403.691 39.5039C403.738 39.75 403.835 39.9639 403.981 40.1455C404.128 40.3213 404.327 40.4092 404.579 40.4092ZM405.537 45.4277V41.2705C404.969 41.8623 404.359 42.1611 403.709 42.167C402.854 42.167 402.215 41.8652 401.793 41.2617C401.377 40.6582 401.169 39.7002 401.169 38.3877V35.3643C401.169 34.9189 401.192 34.5117 401.239 34.1426C401.292 33.7676 401.377 33.4102 401.494 33.0703C401.617 32.7305 401.772 32.4434 401.96 32.209C402.147 31.9688 402.385 31.7812 402.672 31.6465C402.965 31.5059 403.299 31.4355 403.674 31.4355C404.336 31.4355 404.957 31.7109 405.537 32.2617V31.5938H407.998V45.4277H405.537ZM411.514 42.1582C410.922 42.1582 410.488 41.9414 410.213 41.5078C409.943 41.0742 409.809 40.541 409.809 39.9082V31.5938H412.261V39.4072C412.261 39.7295 412.311 39.9697 412.41 40.1279C412.51 40.2861 412.694 40.3623 412.964 40.3564C413.251 40.3564 413.603 40.21 414.019 39.917V31.5938H416.471V42H414.019V41.0244C413.192 41.7803 412.357 42.1582 411.514 42.1582ZM418.448 29.9502V27.876H420.918V29.9502H418.448ZM418.448 42V31.5938H420.909V42H418.448ZM422.887 42V31.5938H425.348V33.1934C425.693 32.5781 426.042 32.1357 426.394 31.8662C426.751 31.5967 427.132 31.4619 427.536 31.4619C427.659 31.4619 427.782 31.4766 427.905 31.5059V33.9404C427.63 33.835 427.346 33.7822 427.053 33.7822C426.701 33.7939 426.391 33.8818 426.121 34.0459C425.857 34.21 425.6 34.4824 425.348 34.8633V42H422.887ZM431.307 35.6895H433.082V34.6963C433.082 34.1689 433.015 33.791 432.88 33.5625C432.751 33.334 432.52 33.2197 432.186 33.2197C431.846 33.2197 431.614 33.3486 431.491 33.6064C431.368 33.8643 431.307 34.333 431.307 35.0127V35.6895ZM432.212 42.167C431.022 42.167 430.167 41.8389 429.646 41.1826C429.124 40.5264 428.863 39.5566 428.863 38.2734V35.3291C428.863 34.0459 429.127 33.0762 429.654 32.4199C430.182 31.7637 431.031 31.4355 432.203 31.4355C432.824 31.4355 433.346 31.5264 433.768 31.708C434.195 31.8896 434.526 32.165 434.761 32.5342C435.001 32.9033 435.171 33.3311 435.271 33.8174C435.37 34.2979 435.42 34.8779 435.42 35.5576V36.9199H431.307V38.4844C431.307 38.7012 431.307 38.8711 431.307 38.9941C431.312 39.1113 431.324 39.2549 431.342 39.4248C431.359 39.5947 431.386 39.7266 431.421 39.8203C431.462 39.9141 431.515 40.0107 431.579 40.1104C431.644 40.2041 431.729 40.2715 431.834 40.3125C431.939 40.3535 432.062 40.374 432.203 40.374C432.531 40.374 432.76 40.2598 432.889 40.0312C433.018 39.7969 433.082 39.46 433.082 39.0205V38.4229H435.411V38.8359C435.411 39.9141 435.142 40.7402 434.603 41.3145C434.069 41.8828 433.272 42.167 432.212 42.167ZM437.107 42V31.5938H439.445V32.5078C440.143 31.7754 440.966 31.4092 441.915 31.4092C442.782 31.4092 443.359 31.834 443.646 32.6836C444.379 31.834 445.255 31.4092 446.274 31.4092C446.854 31.4092 447.32 31.6201 447.672 32.042C448.023 32.4639 448.199 33.0762 448.199 33.8789V42H445.861V34.0898C445.861 33.709 445.797 33.4395 445.668 33.2812C445.545 33.123 445.36 33.0469 445.114 33.0527C444.687 33.0645 444.256 33.2666 443.822 33.6592C443.822 33.6826 443.822 33.7178 443.822 33.7646C443.828 33.8115 443.831 33.8496 443.831 33.8789V42H441.502V34.0898C441.502 33.709 441.438 33.4395 441.309 33.2812C441.186 33.123 440.998 33.0469 440.746 33.0527C440.336 33.0645 439.902 33.2695 439.445 33.668V42H437.107ZM452.277 35.6895H454.053V34.6963C454.053 34.1689 453.985 33.791 453.851 33.5625C453.722 33.334 453.49 33.2197 453.156 33.2197C452.816 33.2197 452.585 33.3486 452.462 33.6064C452.339 33.8643 452.277 34.333 452.277 35.0127V35.6895ZM453.183 42.167C451.993 42.167 451.138 41.8389 450.616 41.1826C450.095 40.5264 449.834 39.5566 449.834 38.2734V35.3291C449.834 34.0459 450.098 33.0762 450.625 32.4199C451.152 31.7637 452.002 31.4355 453.174 31.4355C453.795 31.4355 454.316 31.5264 454.738 31.708C455.166 31.8896 455.497 32.165 455.731 32.5342C455.972 32.9033 456.142 33.3311 456.241 33.8174C456.341 34.2979 456.391 34.8779 456.391 35.5576V36.9199H452.277V38.4844C452.277 38.7012 452.277 38.8711 452.277 38.9941C452.283 39.1113 452.295 39.2549 452.312 39.4248C452.33 39.5947 452.356 39.7266 452.392 39.8203C452.433 39.9141 452.485 40.0107 452.55 40.1104C452.614 40.2041 452.699 40.2715 452.805 40.3125C452.91 40.3535 453.033 40.374 453.174 40.374C453.502 40.374 453.73 40.2598 453.859 40.0312C453.988 39.7969 454.053 39.46 454.053 39.0205V38.4229H456.382V38.8359C456.382 39.9141 456.112 40.7402 455.573 41.3145C455.04 41.8828 454.243 42.167 453.183 42.167ZM458.078 42V31.5938H460.539V32.6133C461.377 31.8281 462.224 31.4355 463.079 31.4355C463.671 31.4355 464.102 31.6523 464.371 32.0859C464.646 32.5195 464.784 33.0527 464.784 33.6855V42H462.323V34.2305C462.323 33.9023 462.276 33.6592 462.183 33.501C462.089 33.3428 461.907 33.2666 461.638 33.2725C461.333 33.2783 460.967 33.4365 460.539 33.7471V42H458.078ZM469.504 42.1406C469.029 42.1348 468.625 42.0557 468.291 41.9033C467.963 41.751 467.708 41.5342 467.526 41.2529C467.351 40.9658 467.222 40.6465 467.14 40.2949C467.063 39.9434 467.025 39.5332 467.025 39.0645V33.2197H465.997V31.5938H467.025V28.5352H469.495V31.5938H471.077V33.2197H469.495V39.2227C469.495 39.5625 469.568 39.8086 469.715 39.9609C469.867 40.1074 470.107 40.1836 470.436 40.1895C470.664 40.1953 470.913 40.1777 471.183 40.1367V42.0176C470.485 42.1113 469.926 42.1523 469.504 42.1406ZM402.276 63.8848H404.228L403.252 57.8994L402.276 63.8848ZM398.893 69L401.854 54.4277H404.623L407.576 69H405.106L404.518 65.6162H401.995L401.397 69H398.893ZM408.868 69V58.5938H411.329V59.6133C412.167 58.8281 413.014 58.4355 413.869 58.4355C414.461 58.4355 414.892 58.6523 415.161 59.0859C415.437 59.5195 415.574 60.0527 415.574 60.6855V69H413.113V61.2305C413.113 60.9023 413.066 60.6592 412.973 60.501C412.879 60.3428 412.697 60.2666 412.428 60.2725C412.123 60.2783 411.757 60.4365 411.329 60.7471V69H408.868ZM420.338 67.2598C420.525 67.2598 420.71 67.1895 420.892 67.0488C421.079 66.9082 421.229 66.7646 421.34 66.6182V63.7529C420.121 64.4268 419.512 65.1914 419.512 66.0469C419.512 66.4219 419.582 66.7178 419.723 66.9346C419.869 67.1514 420.074 67.2598 420.338 67.2598ZM419.397 69.167C418.741 69.1611 418.202 68.9062 417.78 68.4023C417.364 67.8926 417.156 67.3184 417.156 66.6797C417.156 66.0762 417.256 65.5488 417.455 65.0977C417.654 64.6465 417.979 64.2598 418.431 63.9375C418.888 63.6152 419.266 63.3809 419.564 63.2344C419.863 63.0879 420.323 62.8945 420.944 62.6543C421.12 62.584 421.252 62.5312 421.34 62.4961V61.626C421.34 61.1572 421.284 60.8145 421.173 60.5977C421.067 60.3809 420.848 60.2725 420.514 60.2725C419.969 60.2725 419.69 60.6533 419.679 61.415L419.644 62.0654L417.288 61.9775C417.288 61.9424 417.288 61.8779 417.288 61.7842C417.294 61.6904 417.297 61.6289 417.297 61.5996C417.373 60.5098 417.695 59.71 418.264 59.2002C418.838 58.6904 419.655 58.4355 420.716 58.4355C421.741 58.4355 422.5 58.7139 422.992 59.2705C423.49 59.8271 423.739 60.6152 423.739 61.6348V66.3896C423.739 67.1865 423.804 68.0566 423.933 69H421.709C421.574 68.3203 421.489 67.8105 421.454 67.4707C421.308 67.9512 421.062 68.3555 420.716 68.6836C420.376 69.0059 419.937 69.167 419.397 69.167ZM425.708 69V54.4277H428.169V69H425.708ZM430.155 71.7861V70.0107C430.905 70.0107 431.397 69.9375 431.632 69.791C431.872 69.6504 431.951 69.3486 431.869 68.8857C431.793 68.4756 431.673 67.9658 431.509 67.3564C431.345 66.665 430.97 65.1885 430.384 62.9268C429.798 60.665 429.429 59.2207 429.276 58.5938H431.685L432.977 65.4316L434.11 58.5938H436.51L434.04 69.5449C433.858 70.3652 433.463 70.9453 432.854 71.2852C432.25 71.625 431.45 71.792 430.454 71.7861H430.155ZM440.324 69.167C439.463 69.167 438.757 68.9268 438.206 68.4463C437.655 67.9658 437.277 67.2744 437.072 66.3721L438.936 65.6953C439.064 66.2695 439.246 66.7061 439.48 67.0049C439.715 67.2979 440.008 67.4385 440.359 67.4268C440.617 67.4209 440.828 67.3301 440.992 67.1543C441.162 66.9727 441.241 66.7529 441.229 66.4951C441.206 66.1201 440.863 65.6484 440.201 65.0801L438.804 63.8848C437.796 63.0176 437.304 62.1123 437.327 61.1689C437.345 60.3369 437.626 59.6748 438.171 59.1826C438.722 58.6846 439.422 58.4355 440.271 58.4355C441.086 58.4355 441.748 58.6816 442.258 59.1738C442.768 59.666 443.099 60.3252 443.251 61.1514L441.634 61.8281C441.411 60.75 440.995 60.208 440.386 60.2021C440.128 60.1963 439.92 60.2754 439.762 60.4395C439.609 60.6035 439.533 60.7998 439.533 61.0283C439.527 61.3447 439.817 61.7578 440.403 62.2676L441.827 63.5596C442.067 63.7705 442.267 63.9609 442.425 64.1309C442.583 64.2949 442.747 64.4971 442.917 64.7373C443.093 64.9775 443.222 65.2354 443.304 65.5107C443.392 65.7861 443.436 66.082 443.436 66.3984C443.436 67.2773 443.143 67.96 442.557 68.4463C441.977 68.9268 441.232 69.167 440.324 69.167ZM444.842 56.9502V54.876H447.312V56.9502H444.842ZM444.842 69V58.5938H447.303V69H444.842ZM451.943 69.167C451.082 69.167 450.376 68.9268 449.825 68.4463C449.274 67.9658 448.896 67.2744 448.691 66.3721L450.555 65.6953C450.684 66.2695 450.865 66.7061 451.1 67.0049C451.334 67.2979 451.627 67.4385 451.979 67.4268C452.236 67.4209 452.447 67.3301 452.611 67.1543C452.781 66.9727 452.86 66.7529 452.849 66.4951C452.825 66.1201 452.482 65.6484 451.82 65.0801L450.423 63.8848C449.415 63.0176 448.923 62.1123 448.946 61.1689C448.964 60.3369 449.245 59.6748 449.79 59.1826C450.341 58.6846 451.041 58.4355 451.891 58.4355C452.705 58.4355 453.367 58.6816 453.877 59.1738C454.387 59.666 454.718 60.3252 454.87 61.1514L453.253 61.8281C453.03 60.75 452.614 60.208 452.005 60.2021C451.747 60.1963 451.539 60.2754 451.381 60.4395C451.229 60.6035 451.152 60.7998 451.152 61.0283C451.146 61.3447 451.437 61.7578 452.022 62.2676L453.446 63.5596C453.687 63.7705 453.886 63.9609 454.044 64.1309C454.202 64.2949 454.366 64.4971 454.536 64.7373C454.712 64.9775 454.841 65.2354 454.923 65.5107C455.011 65.7861 455.055 66.082 455.055 66.3984C455.055 67.2773 454.762 67.96 454.176 68.4463C453.596 68.9268 452.852 69.167 451.943 69.167Z" fill="white"/>
<path d="M566.077 46.624H566.93C567.68 46.624 568.187 46.4775 568.45 46.1846C568.714 45.8857 568.846 45.3408 568.846 44.5498C568.846 44.0986 568.828 43.75 568.793 43.5039C568.758 43.2578 568.676 43.0352 568.547 42.8359C568.418 42.6309 568.225 42.4902 567.967 42.4141C567.715 42.3379 567.372 42.2998 566.938 42.2998H566.077V46.624ZM563.423 55V40.4277H567.615C570.1 40.4277 571.342 41.8076 571.342 44.5674C571.342 45.9209 571.002 46.9141 570.322 47.5469C569.643 48.1738 568.685 48.4873 567.448 48.4873H566.077V55H563.423ZM572.643 55V44.5938H575.104V46.1934C575.449 45.5781 575.798 45.1357 576.149 44.8662C576.507 44.5967 576.888 44.4619 577.292 44.4619C577.415 44.4619 577.538 44.4766 577.661 44.5059V46.9404C577.386 46.835 577.102 46.7822 576.809 46.7822C576.457 46.7939 576.146 46.8818 575.877 47.0459C575.613 47.21 575.355 47.4824 575.104 47.8633V55H572.643ZM581.977 55.167C580.857 55.167 580.022 54.8535 579.472 54.2266C578.927 53.5938 578.654 52.6914 578.654 51.5195V48.083C578.654 46.9111 578.927 46.0117 579.472 45.3848C580.022 44.752 580.857 44.4355 581.977 44.4355C583.102 44.4355 583.939 44.752 584.49 45.3848C585.047 46.0117 585.325 46.9111 585.325 48.083V51.5195C585.325 52.6914 585.047 53.5938 584.49 54.2266C583.939 54.8535 583.102 55.167 581.977 55.167ZM581.985 53.4355C582.185 53.4355 582.346 53.3916 582.469 53.3037C582.598 53.2158 582.688 53.0811 582.741 52.8994C582.8 52.7119 582.838 52.5332 582.855 52.3633C582.873 52.1875 582.882 51.9619 582.882 51.6865V47.916C582.882 47.6992 582.876 47.5205 582.864 47.3799C582.858 47.2334 582.838 47.0752 582.803 46.9053C582.773 46.7354 582.727 46.6035 582.662 46.5098C582.598 46.4102 582.51 46.3281 582.398 46.2637C582.287 46.1934 582.149 46.1582 581.985 46.1582C581.786 46.1582 581.622 46.2051 581.493 46.2988C581.37 46.3867 581.279 46.5244 581.221 46.7119C581.168 46.8936 581.133 47.0723 581.115 47.248C581.098 47.418 581.089 47.6406 581.089 47.916V51.6865C581.089 51.9033 581.092 52.085 581.098 52.2314C581.109 52.3721 581.13 52.5273 581.159 52.6973C581.194 52.8613 581.244 52.9932 581.309 53.0928C581.373 53.1865 581.461 53.2686 581.572 53.3389C581.684 53.4033 581.821 53.4355 581.985 53.4355ZM589.922 55.1406C589.447 55.1348 589.043 55.0557 588.709 54.9033C588.381 54.751 588.126 54.5342 587.944 54.2529C587.769 53.9658 587.64 53.6465 587.558 53.2949C587.481 52.9434 587.443 52.5332 587.443 52.0645V46.2197H586.415V44.5938H587.443V41.5352H589.913V44.5938H591.495V46.2197H589.913V52.2227C589.913 52.5625 589.986 52.8086 590.133 52.9609C590.285 53.1074 590.525 53.1836 590.854 53.1895C591.082 53.1953 591.331 53.1777 591.601 53.1367V55.0176C590.903 55.1113 590.344 55.1523 589.922 55.1406ZM596.127 55.167C595.008 55.167 594.173 54.8535 593.622 54.2266C593.077 53.5938 592.805 52.6914 592.805 51.5195V48.083C592.805 46.9111 593.077 46.0117 593.622 45.3848C594.173 44.752 595.008 44.4355 596.127 44.4355C597.252 44.4355 598.09 44.752 598.641 45.3848C599.197 46.0117 599.476 46.9111 599.476 48.083V51.5195C599.476 52.6914 599.197 53.5938 598.641 54.2266C598.09 54.8535 597.252 55.167 596.127 55.167ZM596.136 53.4355C596.335 53.4355 596.496 53.3916 596.619 53.3037C596.748 53.2158 596.839 53.0811 596.892 52.8994C596.95 52.7119 596.988 52.5332 597.006 52.3633C597.023 52.1875 597.032 51.9619 597.032 51.6865V47.916C597.032 47.6992 597.026 47.5205 597.015 47.3799C597.009 47.2334 596.988 47.0752 596.953 46.9053C596.924 46.7354 596.877 46.6035 596.812 46.5098C596.748 46.4102 596.66 46.3281 596.549 46.2637C596.438 46.1934 596.3 46.1582 596.136 46.1582C595.937 46.1582 595.772 46.2051 595.644 46.2988C595.521 46.3867 595.43 46.5244 595.371 46.7119C595.318 46.8936 595.283 47.0723 595.266 47.248C595.248 47.418 595.239 47.6406 595.239 47.916V51.6865C595.239 51.9033 595.242 52.085 595.248 52.2314C595.26 52.3721 595.28 52.5273 595.31 52.6973C595.345 52.8613 595.395 52.9932 595.459 53.0928C595.523 53.1865 595.611 53.2686 595.723 53.3389C595.834 53.4033 595.972 53.4355 596.136 53.4355ZM604.072 55.1406C603.598 55.1348 603.193 55.0557 602.859 54.9033C602.531 54.751 602.276 54.5342 602.095 54.2529C601.919 53.9658 601.79 53.6465 601.708 53.2949C601.632 52.9434 601.594 52.5332 601.594 52.0645V46.2197H600.565V44.5938H601.594V41.5352H604.063V44.5938H605.646V46.2197H604.063V52.2227C604.063 52.5625 604.137 52.8086 604.283 52.9609C604.436 53.1074 604.676 53.1836 605.004 53.1895C605.232 53.1953 605.481 53.1777 605.751 53.1367V55.0176C605.054 55.1113 604.494 55.1523 604.072 55.1406ZM607.201 57.7861V56.0107C607.951 56.0107 608.443 55.9375 608.678 55.791C608.918 55.6504 608.997 55.3486 608.915 54.8857C608.839 54.4756 608.719 53.9658 608.555 53.3564C608.391 52.665 608.016 51.1885 607.43 48.9268C606.844 46.665 606.475 45.2207 606.322 44.5938H608.73L610.022 51.4316L611.156 44.5938H613.556L611.086 55.5449C610.904 56.3652 610.509 56.9453 609.899 57.2852C609.296 57.625 608.496 57.792 607.5 57.7861H607.201ZM618.214 53.4004C618.396 53.4004 618.548 53.3506 618.671 53.251C618.794 53.1455 618.882 52.9961 618.935 52.8027C618.993 52.6035 619.031 52.4014 619.049 52.1963C619.072 51.9854 619.084 51.7334 619.084 51.4404V47.8545C619.084 47.6143 619.069 47.4004 619.04 47.2129C619.017 47.0195 618.973 46.8379 618.908 46.668C618.844 46.4922 618.747 46.3604 618.618 46.2725C618.489 46.1787 618.334 46.1348 618.152 46.1406C617.83 46.1465 617.49 46.2842 617.133 46.5537V53.0752C617.484 53.292 617.845 53.4004 618.214 53.4004ZM614.672 58.4277V44.5938H617.133V45.3936C617.777 44.749 618.478 44.4297 619.233 44.4355C619.603 44.4414 619.928 44.5264 620.209 44.6904C620.496 44.8545 620.719 45.0596 620.877 45.3057C621.041 45.5459 621.173 45.833 621.272 46.167C621.378 46.4951 621.448 46.8027 621.483 47.0898C621.519 47.3711 621.536 47.6582 621.536 47.9512V51.3613C621.536 51.8887 621.492 52.375 621.404 52.8203C621.316 53.2598 621.179 53.6611 620.991 54.0244C620.804 54.3818 620.546 54.6631 620.218 54.8682C619.896 55.0674 619.515 55.167 619.075 55.167C618.431 55.167 617.783 54.8535 617.133 54.2266V58.4277H614.672ZM623.329 42.9502V40.876H625.799V42.9502H623.329ZM623.329 55V44.5938H625.79V55H623.329ZM627.732 55V44.5938H630.193V45.6133C631.031 44.8281 631.878 44.4355 632.733 44.4355C633.325 44.4355 633.756 44.6523 634.025 45.0859C634.301 45.5195 634.438 46.0527 634.438 46.6855V55H631.978V47.2305C631.978 46.9023 631.931 46.6592 631.837 46.501C631.743 46.3428 631.562 46.2666 631.292 46.2725C630.987 46.2783 630.621 46.4365 630.193 46.7471V55H627.732ZM639.36 50.2188C639.771 50.2188 640.037 50.0664 640.16 49.7617C640.283 49.457 640.345 48.918 640.345 48.1445C640.345 47.3477 640.286 46.7939 640.169 46.4834C640.052 46.1729 639.788 46.0176 639.378 46.0176C638.962 46.0176 638.692 46.1758 638.569 46.4922C638.446 46.8027 638.385 47.3535 638.385 48.1445C638.385 48.4258 638.391 48.666 638.402 48.8652C638.414 49.0586 638.44 49.2461 638.481 49.4277C638.522 49.6094 638.578 49.7559 638.648 49.8672C638.719 49.9727 638.812 50.0576 638.93 50.1221C639.047 50.1865 639.19 50.2188 639.36 50.2188ZM639.835 56.4238C640.339 56.4238 640.705 56.3594 640.934 56.2305C641.168 56.1016 641.288 55.8936 641.294 55.6064C641.312 55.2959 641.232 55.0703 641.057 54.9297C640.881 54.7832 640.562 54.6895 640.099 54.6484L638.446 54.4902C638.089 54.9062 637.91 55.29 637.91 55.6416C637.91 55.8291 637.954 55.9756 638.042 56.0811C638.136 56.1865 638.323 56.2686 638.604 56.3271C638.892 56.3916 639.302 56.4238 639.835 56.4238ZM639.853 58.1553C639.542 58.1553 639.27 58.1523 639.035 58.1465C638.807 58.1406 638.54 58.123 638.235 58.0938C637.931 58.0703 637.667 58.0322 637.444 57.9795C637.228 57.9326 637.002 57.8652 636.768 57.7773C636.539 57.6895 636.352 57.584 636.205 57.4609C636.064 57.3438 635.947 57.1914 635.854 57.0039C635.76 56.8223 635.713 56.6172 635.713 56.3887C635.713 55.5156 636.202 54.7803 637.181 54.1826C636.478 53.9424 636.105 53.5527 636.064 53.0137C636.035 52.6387 636.114 52.3164 636.302 52.0469C636.489 51.7715 636.809 51.4492 637.26 51.0801C636.873 50.7871 636.583 50.4209 636.39 49.9814C636.196 49.542 636.1 48.9531 636.1 48.2148C636.1 46.9375 636.375 45.9883 636.926 45.3672C637.482 44.7461 638.285 44.4355 639.334 44.4355C640.412 44.4355 641.156 44.7754 641.566 45.4551C641.695 45.2969 641.889 45.1094 642.146 44.8926C642.41 44.6758 642.686 44.4971 642.973 44.3564L643.315 44.1982L643.896 45.5693C643.69 45.6221 643.38 45.7275 642.964 45.8857C642.548 46.0439 642.27 46.167 642.129 46.2549C642.24 46.46 642.337 46.75 642.419 47.125C642.501 47.4941 642.542 47.8662 642.542 48.2412C642.542 50.6201 641.502 51.8096 639.422 51.8096C639.252 51.8096 639.018 51.7861 638.719 51.7393C638.426 51.6865 638.235 51.6426 638.147 51.6074C637.948 51.9062 637.854 52.1348 637.866 52.293C637.884 52.5273 638.188 52.6738 638.78 52.7324C638.851 52.7441 639.161 52.7793 639.712 52.8379C640.263 52.8906 640.585 52.9229 640.679 52.9346C641.552 53.0283 642.19 53.2832 642.595 53.6992C642.999 54.1094 643.201 54.6982 643.201 55.4658C643.201 56.3857 642.943 57.0625 642.428 57.4961C641.912 57.9355 641.054 58.1553 639.853 58.1553Z" fill="white"/>
<path d="M737.409 42V27.4277H743.509V29.2998H740.063V33.4834H742.788V35.3555H740.063V40.1631H743.553V42H737.409ZM746.26 42L744.229 31.5938H746.638L747.666 39.1436L748.686 31.5938H751.059L749.046 42H746.26ZM755.146 40.2598C755.333 40.2598 755.518 40.1895 755.699 40.0488C755.887 39.9082 756.036 39.7646 756.147 39.6182V36.7529C754.929 37.4268 754.319 38.1914 754.319 39.0469C754.319 39.4219 754.39 39.7178 754.53 39.9346C754.677 40.1514 754.882 40.2598 755.146 40.2598ZM754.205 42.167C753.549 42.1611 753.01 41.9062 752.588 41.4023C752.172 40.8926 751.964 40.3184 751.964 39.6797C751.964 39.0762 752.063 38.5488 752.263 38.0977C752.462 37.6465 752.787 37.2598 753.238 36.9375C753.695 36.6152 754.073 36.3809 754.372 36.2344C754.671 36.0879 755.131 35.8945 755.752 35.6543C755.928 35.584 756.06 35.5312 756.147 35.4961V34.626C756.147 34.1572 756.092 33.8145 755.98 33.5977C755.875 33.3809 755.655 33.2725 755.321 33.2725C754.776 33.2725 754.498 33.6533 754.486 34.415L754.451 35.0654L752.096 34.9775C752.096 34.9424 752.096 34.8779 752.096 34.7842C752.102 34.6904 752.104 34.6289 752.104 34.5996C752.181 33.5098 752.503 32.71 753.071 32.2002C753.646 31.6904 754.463 31.4355 755.523 31.4355C756.549 31.4355 757.308 31.7139 757.8 32.2705C758.298 32.8271 758.547 33.6152 758.547 34.6348V39.3896C758.547 40.1865 758.611 41.0566 758.74 42H756.517C756.382 41.3203 756.297 40.8105 756.262 40.4707C756.115 40.9512 755.869 41.3555 755.523 41.6836C755.184 42.0059 754.744 42.167 754.205 42.167ZM760.516 42V27.4277H762.977V42H760.516ZM766.545 42.1582C765.953 42.1582 765.52 41.9414 765.244 41.5078C764.975 41.0742 764.84 40.541 764.84 39.9082V31.5938H767.292V39.4072C767.292 39.7295 767.342 39.9697 767.441 40.1279C767.541 40.2861 767.726 40.3623 767.995 40.3564C768.282 40.3564 768.634 40.21 769.05 39.917V31.5938H771.502V42H769.05V41.0244C768.224 41.7803 767.389 42.1582 766.545 42.1582ZM776.345 40.2598C776.532 40.2598 776.717 40.1895 776.898 40.0488C777.086 39.9082 777.235 39.7646 777.347 39.6182V36.7529C776.128 37.4268 775.519 38.1914 775.519 39.0469C775.519 39.4219 775.589 39.7178 775.729 39.9346C775.876 40.1514 776.081 40.2598 776.345 40.2598ZM775.404 42.167C774.748 42.1611 774.209 41.9062 773.787 41.4023C773.371 40.8926 773.163 40.3184 773.163 39.6797C773.163 39.0762 773.263 38.5488 773.462 38.0977C773.661 37.6465 773.986 37.2598 774.438 36.9375C774.895 36.6152 775.272 36.3809 775.571 36.2344C775.87 36.0879 776.33 35.8945 776.951 35.6543C777.127 35.584 777.259 35.5312 777.347 35.4961V34.626C777.347 34.1572 777.291 33.8145 777.18 33.5977C777.074 33.3809 776.854 33.2725 776.521 33.2725C775.976 33.2725 775.697 33.6533 775.686 34.415L775.65 35.0654L773.295 34.9775C773.295 34.9424 773.295 34.8779 773.295 34.7842C773.301 34.6904 773.304 34.6289 773.304 34.5996C773.38 33.5098 773.702 32.71 774.271 32.2002C774.845 31.6904 775.662 31.4355 776.723 31.4355C777.748 31.4355 778.507 31.7139 778.999 32.2705C779.497 32.8271 779.746 33.6152 779.746 34.6348V39.3896C779.746 40.1865 779.811 41.0566 779.939 42H777.716C777.581 41.3203 777.496 40.8105 777.461 40.4707C777.314 40.9512 777.068 41.3555 776.723 41.6836C776.383 42.0059 775.943 42.167 775.404 42.167ZM784.334 42.1406C783.859 42.1348 783.455 42.0557 783.121 41.9033C782.793 41.751 782.538 41.5342 782.356 41.2529C782.181 40.9658 782.052 40.6465 781.97 40.2949C781.894 39.9434 781.855 39.5332 781.855 39.0645V33.2197H780.827V31.5938H781.855V28.5352H784.325V31.5938H785.907V33.2197H784.325V39.2227C784.325 39.5625 784.398 39.8086 784.545 39.9609C784.697 40.1074 784.938 40.1836 785.266 40.1895C785.494 40.1953 785.743 40.1777 786.013 40.1367V42.0176C785.315 42.1113 784.756 42.1523 784.334 42.1406ZM787.489 29.9502V27.876H789.959V29.9502H787.489ZM787.489 42V31.5938H789.95V42H787.489ZM795.021 42.167C793.902 42.167 793.067 41.8535 792.517 41.2266C791.972 40.5938 791.699 39.6914 791.699 38.5195V35.083C791.699 33.9111 791.972 33.0117 792.517 32.3848C793.067 31.752 793.902 31.4355 795.021 31.4355C796.146 31.4355 796.984 31.752 797.535 32.3848C798.092 33.0117 798.37 33.9111 798.37 35.083V38.5195C798.37 39.6914 798.092 40.5938 797.535 41.2266C796.984 41.8535 796.146 42.167 795.021 42.167ZM795.03 40.4355C795.229 40.4355 795.391 40.3916 795.514 40.3037C795.643 40.2158 795.733 40.0811 795.786 39.8994C795.845 39.7119 795.883 39.5332 795.9 39.3633C795.918 39.1875 795.927 38.9619 795.927 38.6865V34.916C795.927 34.6992 795.921 34.5205 795.909 34.3799C795.903 34.2334 795.883 34.0752 795.848 33.9053C795.818 33.7354 795.771 33.6035 795.707 33.5098C795.643 33.4102 795.555 33.3281 795.443 33.2637C795.332 33.1934 795.194 33.1582 795.03 33.1582C794.831 33.1582 794.667 33.2051 794.538 33.2988C794.415 33.3867 794.324 33.5244 794.266 33.7119C794.213 33.8936 794.178 34.0723 794.16 34.248C794.143 34.418 794.134 34.6406 794.134 34.916V38.6865C794.134 38.9033 794.137 39.085 794.143 39.2314C794.154 39.3721 794.175 39.5273 794.204 39.6973C794.239 39.8613 794.289 39.9932 794.354 40.0928C794.418 40.1865 794.506 40.2686 794.617 40.3389C794.729 40.4033 794.866 40.4355 795.03 40.4355ZM800.066 42V31.5938H802.527V32.6133C803.365 31.8281 804.212 31.4355 805.067 31.4355C805.659 31.4355 806.09 31.6523 806.359 32.0859C806.635 32.5195 806.772 33.0527 806.772 33.6855V42H804.312V34.2305C804.312 33.9023 804.265 33.6592 804.171 33.501C804.077 33.3428 803.896 33.2666 803.626 33.2725C803.321 33.2783 802.955 33.4365 802.527 33.7471V42H800.066ZM816.449 33.4307C816.736 33.0146 817 32.4873 817.24 31.8486C817.486 31.2041 817.609 30.6182 817.609 30.0908C817.609 29.7979 817.521 29.5635 817.346 29.3877C817.17 29.2119 816.941 29.124 816.66 29.124C816.361 29.124 816.13 29.2529 815.966 29.5107C815.802 29.7686 815.72 30.085 815.72 30.46C815.72 30.5713 815.723 30.6855 815.729 30.8027C815.74 30.9141 815.758 31.0342 815.781 31.1631C815.805 31.292 815.825 31.4092 815.843 31.5146C815.866 31.6201 815.898 31.7432 815.939 31.8838C815.98 32.0244 816.013 32.1387 816.036 32.2266C816.06 32.3086 816.095 32.4258 816.142 32.5781C816.194 32.7246 816.229 32.8242 816.247 32.877C816.271 32.9297 816.309 33.0293 816.361 33.1758C816.414 33.3223 816.443 33.4072 816.449 33.4307ZM816.177 40.3477C816.804 40.3477 817.343 40.0576 817.794 39.4775C816.587 37.4092 815.963 36.3223 815.922 36.2168C815.682 36.5684 815.491 36.9697 815.351 37.4209C815.21 37.8721 815.14 38.3174 815.14 38.7568C815.14 39.2197 815.23 39.6006 815.412 39.8994C815.594 40.1982 815.849 40.3477 816.177 40.3477ZM816.15 42.1846C815.178 42.1846 814.398 41.877 813.812 41.2617C813.232 40.6465 812.942 39.8408 812.942 38.8447C812.942 37.9951 813.136 37.2012 813.522 36.4629C813.909 35.7246 814.404 35.0742 815.008 34.5117C814.92 34.3301 814.762 34.0283 814.533 33.6064C814.305 33.1787 814.129 32.8389 814.006 32.5869C813.889 32.335 813.774 32.0156 813.663 31.6289C813.552 31.2422 813.496 30.873 813.496 30.5215C813.496 29.5664 813.777 28.7842 814.34 28.1748C814.908 27.5596 815.664 27.252 816.607 27.252C817.521 27.252 818.28 27.5156 818.884 28.043C819.487 28.5645 819.789 29.2676 819.789 30.1523C819.789 30.6035 819.716 31.0488 819.569 31.4883C819.423 31.9219 819.212 32.335 818.937 32.7275C818.661 33.1201 818.409 33.4482 818.181 33.7119C817.952 33.9756 817.677 34.2744 817.354 34.6084C817.296 34.667 817.252 34.7109 817.223 34.7402L819.104 37.9307C819.361 37.4092 819.552 36.4512 819.675 35.0566H821.731C821.731 36.5449 821.315 37.9834 820.483 39.3721C820.618 39.5361 820.803 39.6855 821.037 39.8203C821.277 39.9492 821.521 40.0166 821.767 40.0225V42.167C821.638 42.1963 821.521 42.2109 821.415 42.2109C821.251 42.2109 821.087 42.1846 820.923 42.1318C820.759 42.085 820.621 42.0381 820.51 41.9912C820.404 41.9443 820.264 41.8564 820.088 41.7275C819.918 41.5928 819.807 41.5049 819.754 41.4639C819.701 41.417 819.581 41.3057 819.394 41.1299C819.212 40.9482 819.115 40.8516 819.104 40.8398C818.775 41.2617 818.356 41.5928 817.847 41.833C817.343 42.0674 816.777 42.1846 816.15 42.1846ZM757.07 69V56.3877H754.627V54.4277H762.089V56.3877H759.725V69H757.07ZM765.112 62.6895H766.888V61.6963C766.888 61.1689 766.82 60.791 766.686 60.5625C766.557 60.334 766.325 60.2197 765.991 60.2197C765.651 60.2197 765.42 60.3486 765.297 60.6064C765.174 60.8643 765.112 61.333 765.112 62.0127V62.6895ZM766.018 69.167C764.828 69.167 763.973 68.8389 763.451 68.1826C762.93 67.5264 762.669 66.5566 762.669 65.2734V62.3291C762.669 61.0459 762.933 60.0762 763.46 59.4199C763.987 58.7637 764.837 58.4355 766.009 58.4355C766.63 58.4355 767.151 58.5264 767.573 58.708C768.001 58.8896 768.332 59.165 768.566 59.5342C768.807 59.9033 768.977 60.3311 769.076 60.8174C769.176 61.2979 769.226 61.8779 769.226 62.5576V63.9199H765.112V65.4844C765.112 65.7012 765.112 65.8711 765.112 65.9941C765.118 66.1113 765.13 66.2549 765.147 66.4248C765.165 66.5947 765.191 66.7266 765.227 66.8203C765.268 66.9141 765.32 67.0107 765.385 67.1104C765.449 67.2041 765.534 67.2715 765.64 67.3125C765.745 67.3535 765.868 67.374 766.009 67.374C766.337 67.374 766.565 67.2598 766.694 67.0312C766.823 66.7969 766.888 66.46 766.888 66.0205V65.4229H769.217V65.8359C769.217 66.9141 768.947 67.7402 768.408 68.3145C767.875 68.8828 767.078 69.167 766.018 69.167ZM773.611 69.167C772.75 69.167 772.044 68.9268 771.493 68.4463C770.942 67.9658 770.564 67.2744 770.359 66.3721L772.223 65.6953C772.352 66.2695 772.533 66.7061 772.768 67.0049C773.002 67.2979 773.295 67.4385 773.646 67.4268C773.904 67.4209 774.115 67.3301 774.279 67.1543C774.449 66.9727 774.528 66.7529 774.517 66.4951C774.493 66.1201 774.15 65.6484 773.488 65.0801L772.091 63.8848C771.083 63.0176 770.591 62.1123 770.614 61.1689C770.632 60.3369 770.913 59.6748 771.458 59.1826C772.009 58.6846 772.709 58.4355 773.559 58.4355C774.373 58.4355 775.035 58.6816 775.545 59.1738C776.055 59.666 776.386 60.3252 776.538 61.1514L774.921 61.8281C774.698 60.75 774.282 60.208 773.673 60.2021C773.415 60.1963 773.207 60.2754 773.049 60.4395C772.896 60.6035 772.82 60.7998 772.82 61.0283C772.814 61.3447 773.104 61.7578 773.69 62.2676L775.114 63.5596C775.354 63.7705 775.554 63.9609 775.712 64.1309C775.87 64.2949 776.034 64.4971 776.204 64.7373C776.38 64.9775 776.509 65.2354 776.591 65.5107C776.679 65.7861 776.723 66.082 776.723 66.3984C776.723 67.2773 776.43 67.96 775.844 68.4463C775.264 68.9268 774.52 69.167 773.611 69.167ZM780.95 69.1406C780.476 69.1348 780.071 69.0557 779.737 68.9033C779.409 68.751 779.154 68.5342 778.973 68.2529C778.797 67.9658 778.668 67.6465 778.586 67.2949C778.51 66.9434 778.472 66.5332 778.472 66.0645V60.2197H777.443V58.5938H778.472V55.5352H780.941V58.5938H782.523V60.2197H780.941V66.2227C780.941 66.5625 781.015 66.8086 781.161 66.9609C781.313 67.1074 781.554 67.1836 781.882 67.1895C782.11 67.1953 782.359 67.1777 782.629 67.1367V69.0176C781.932 69.1113 781.372 69.1523 780.95 69.1406ZM784.105 56.9502V54.876H786.575V56.9502H784.105ZM784.105 69V58.5938H786.566V69H784.105ZM788.509 69V58.5938H790.97V59.6133C791.808 58.8281 792.654 58.4355 793.51 58.4355C794.102 58.4355 794.532 58.6523 794.802 59.0859C795.077 59.5195 795.215 60.0527 795.215 60.6855V69H792.754V61.2305C792.754 60.9023 792.707 60.6592 792.613 60.501C792.52 60.3428 792.338 60.2666 792.068 60.2725C791.764 60.2783 791.397 60.4365 790.97 60.7471V69H788.509ZM800.137 64.2188C800.547 64.2188 800.813 64.0664 800.937 63.7617C801.06 63.457 801.121 62.918 801.121 62.1445C801.121 61.3477 801.062 60.7939 800.945 60.4834C800.828 60.1729 800.564 60.0176 800.154 60.0176C799.738 60.0176 799.469 60.1758 799.346 60.4922C799.223 60.8027 799.161 61.3535 799.161 62.1445C799.161 62.4258 799.167 62.666 799.179 62.8652C799.19 63.0586 799.217 63.2461 799.258 63.4277C799.299 63.6094 799.354 63.7559 799.425 63.8672C799.495 63.9727 799.589 64.0576 799.706 64.1221C799.823 64.1865 799.967 64.2188 800.137 64.2188ZM800.611 70.4238C801.115 70.4238 801.481 70.3594 801.71 70.2305C801.944 70.1016 802.064 69.8936 802.07 69.6064C802.088 69.2959 802.009 69.0703 801.833 68.9297C801.657 68.7832 801.338 68.6895 800.875 68.6484L799.223 68.4902C798.865 68.9062 798.687 69.29 798.687 69.6416C798.687 69.8291 798.73 69.9756 798.818 70.0811C798.912 70.1865 799.1 70.2686 799.381 70.3271C799.668 70.3916 800.078 70.4238 800.611 70.4238ZM800.629 72.1553C800.318 72.1553 800.046 72.1523 799.812 72.1465C799.583 72.1406 799.316 72.123 799.012 72.0938C798.707 72.0703 798.443 72.0322 798.221 71.9795C798.004 71.9326 797.778 71.8652 797.544 71.7773C797.315 71.6895 797.128 71.584 796.981 71.4609C796.841 71.3438 796.724 71.1914 796.63 71.0039C796.536 70.8223 796.489 70.6172 796.489 70.3887C796.489 69.5156 796.979 68.7803 797.957 68.1826C797.254 67.9424 796.882 67.5527 796.841 67.0137C796.812 66.6387 796.891 66.3164 797.078 66.0469C797.266 65.7715 797.585 65.4492 798.036 65.0801C797.649 64.7871 797.359 64.4209 797.166 63.9814C796.973 63.542 796.876 62.9531 796.876 62.2148C796.876 60.9375 797.151 59.9883 797.702 59.3672C798.259 58.7461 799.062 58.4355 800.11 58.4355C801.188 58.4355 801.933 58.7754 802.343 59.4551C802.472 59.2969 802.665 59.1094 802.923 58.8926C803.187 58.6758 803.462 58.4971 803.749 58.3564L804.092 58.1982L804.672 59.5693C804.467 59.6221 804.156 59.7275 803.74 59.8857C803.324 60.0439 803.046 60.167 802.905 60.2549C803.017 60.46 803.113 60.75 803.195 61.125C803.277 61.4941 803.318 61.8662 803.318 62.2412C803.318 64.6201 802.278 65.8096 800.198 65.8096C800.028 65.8096 799.794 65.7861 799.495 65.7393C799.202 65.6865 799.012 65.6426 798.924 65.6074C798.725 65.9062 798.631 66.1348 798.643 66.293C798.66 66.5273 798.965 66.6738 799.557 66.7324C799.627 66.7441 799.938 66.7793 800.488 66.8379C801.039 66.8906 801.361 66.9229 801.455 66.9346C802.328 67.0283 802.967 67.2832 803.371 67.6992C803.775 68.1094 803.978 68.6982 803.978 69.4658C803.978 70.3857 803.72 71.0625 803.204 71.4961C802.688 71.9355 801.83 72.1553 800.629 72.1553Z" fill="white"/>
<path d="M163 42L160.885 43.41L169.255 49H151V51H169.255L160.885 56.59L163 58L175 50L163 42Z" fill="#2B2D33"/>
<path d="M339 42L336.885 43.41L345.255 49H327V51H345.255L336.885 56.59L339 58L351 50L339 42Z" fill="#2B2D33"/>
<path d="M515 42L512.885 43.41L521.255 49H503V51H521.255L512.885 56.59L515 58L527 50L515 42Z" fill="#2B2D33"/>
<path d="M691 42L688.885 43.41L697.255 49H679V51H697.255L688.885 56.59L691 58L703 50L691 42Z" fill="#2B2D33"/>
</svg>
