<svg width="685" height="83" viewBox="0 0 685 83" fill="none" xmlns="http://www.w3.org/2000/svg">
<rect width="118" height="83" rx="4" fill="#2B2D33"/>
<rect x="142" width="118" height="83" rx="4" fill="#2B2D33"/>
<rect x="284" width="118" height="83" rx="4" fill="#2B2D33"/>
<rect x="426" width="118" height="83" rx="4" fill="#2B2D33"/>
<rect x="567" width="118" height="83" rx="4" fill="#2B2D33"/>
<path d="M51.0547 37.1641C50.5391 37.1641 50.0859 37.1042 49.6953 36.9844C49.3047 36.8646 48.987 36.7005 48.7422 36.4922C48.4974 36.2786 48.2995 36.013 48.1484 35.6953C47.9974 35.3776 47.8906 35.0417 47.8281 34.6875C47.7708 34.3281 47.7422 33.9193 47.7422 33.4609V24.0469H48.9219V33.5C48.9219 33.8229 48.9401 34.112 48.9766 34.3672C49.013 34.6224 49.0781 34.8672 49.1719 35.1016C49.2656 35.3307 49.3906 35.5234 49.5469 35.6797C49.7031 35.8307 49.9089 35.9531 50.1641 36.0469C50.4193 36.1354 50.7161 36.1797 51.0547 36.1797C51.4609 36.1797 51.8047 36.1146 52.0859 35.9844C52.3724 35.849 52.5911 35.6562 52.7422 35.4062C52.8984 35.151 53.0104 34.8698 53.0781 34.5625C53.1458 34.2552 53.1797 33.901 53.1797 33.5V24.0469H54.3516V33.4609C54.3516 33.9141 54.3203 34.3203 54.2578 34.6797C54.1953 35.0391 54.0859 35.3776 53.9297 35.6953C53.7734 36.013 53.5703 36.2786 53.3203 36.4922C53.0755 36.7005 52.7604 36.8646 52.375 36.9844C51.9948 37.1042 51.5547 37.1641 51.0547 37.1641ZM58.3516 37.1484C57.6172 37.1484 57.0286 36.9115 56.5859 36.4375C56.1484 35.9635 55.8984 35.3229 55.8359 34.5156L56.8203 34.2188C56.8828 34.9219 57.0443 35.4401 57.3047 35.7734C57.5651 36.1016 57.9297 36.2656 58.3984 36.2656C58.8047 36.2656 59.125 36.1458 59.3594 35.9062C59.5833 35.6771 59.6953 35.3698 59.6953 34.9844C59.6953 34.9688 59.6953 34.9505 59.6953 34.9297C59.6797 34.3151 59.3047 33.7005 58.5703 33.0859L57.3125 32.0156C56.8698 31.6458 56.5469 31.2839 56.3438 30.9297C56.1458 30.5859 56.0469 30.1849 56.0469 29.7266C56.0469 29.0495 56.25 28.526 56.6562 28.1562C57.0521 27.7917 57.5859 27.6094 58.2578 27.6094C58.9401 27.6094 59.4635 27.8281 59.8281 28.2656C60.1979 28.7031 60.4036 29.2943 60.4453 30.0391L59.6172 30.3125C59.5807 29.6927 59.4531 29.2344 59.2344 28.9375C59.0208 28.6354 58.7109 28.4844 58.3047 28.4844C57.9401 28.4844 57.6484 28.5859 57.4297 28.7891C57.2161 28.987 57.1094 29.2526 57.1094 29.5859C57.1094 29.888 57.1641 30.1484 57.2734 30.3672C57.3828 30.5807 57.5833 30.8125 57.875 31.0625L59.1797 32.2344C59.4141 32.4375 59.6042 32.6172 59.75 32.7734C59.901 32.9245 60.0599 33.1146 60.2266 33.3438C60.3932 33.5677 60.5156 33.8125 60.5938 34.0781C60.6771 34.3385 60.7214 34.6198 60.7266 34.9219C60.7266 35.6302 60.513 36.1797 60.0859 36.5703C59.6589 36.9557 59.0807 37.1484 58.3516 37.1484ZM64.375 37.1484C63.4896 37.1484 62.8516 36.875 62.4609 36.3281C62.0703 35.7812 61.875 34.8464 61.875 33.5234V31.1875C61.875 30.2865 61.9661 29.5729 62.1484 29.0469C62.3359 28.5156 62.6068 28.1432 62.9609 27.9297C63.3203 27.7161 63.7943 27.6094 64.3828 27.6094C64.7734 27.6094 65.1068 27.6615 65.3828 27.7656C65.6589 27.8646 65.888 28.0078 66.0703 28.1953C66.2526 28.3828 66.3958 28.638 66.5 28.9609C66.6094 29.2786 66.6849 29.6328 66.7266 30.0234C66.7682 30.4089 66.7891 30.875 66.7891 31.4219L66.7812 32.2578H63.0469V33.6406C63.0469 34.599 63.138 35.276 63.3203 35.6719C63.5078 36.0677 63.8568 36.2656 64.3672 36.2656C64.7734 36.2656 65.0859 36.138 65.3047 35.8828C65.5234 35.6224 65.6328 35.1536 65.6328 34.4766V33.8359H66.7812V34.3516C66.7812 35.2474 66.5938 35.9375 66.2188 36.4219C65.8438 36.9062 65.2292 37.1484 64.375 37.1484ZM63.0469 31.5859H65.6328V30.8203C65.6328 30.4974 65.625 30.2292 65.6094 30.0156C65.5938 29.8021 65.5599 29.5911 65.5078 29.3828C65.4609 29.1693 65.3932 29.0026 65.3047 28.8828C65.2161 28.763 65.0938 28.6667 64.9375 28.5938C64.7812 28.5208 64.5938 28.4844 64.375 28.4844C63.8802 28.4844 63.5339 28.6562 63.3359 29C63.1432 29.3438 63.0469 29.9974 63.0469 30.9609V31.5859ZM68.4688 37V27.75H69.6406V29.0234C69.9219 28.5547 70.25 28.2083 70.625 27.9844C71.0052 27.7604 71.388 27.6484 71.7734 27.6484C71.8672 27.6484 71.9349 27.651 71.9766 27.6562V28.9219C71.8099 28.8542 71.6224 28.8203 71.4141 28.8203C70.6641 28.8203 70.0729 29.1797 69.6406 29.8984V37H68.4688ZM35.3203 61V48.0469H38.2656C39.4167 48.0469 40.2396 48.3255 40.7344 48.8828C41.2292 49.4349 41.4766 50.2474 41.4766 51.3203C41.4766 53.1068 40.875 54.125 39.6719 54.375L41.6797 61H40.4766L38.5781 54.6328H36.5469V61H35.3203ZM36.5469 53.7344H38.1953C38.9766 53.7344 39.5208 53.5443 39.8281 53.1641C40.1354 52.7786 40.2891 52.1641 40.2891 51.3203C40.2891 50.487 40.1432 49.8854 39.8516 49.5156C39.5599 49.1458 39.0208 48.9609 38.2344 48.9609H36.5469V53.7344ZM45.6172 61.1484C44.7318 61.1484 44.0938 60.875 43.7031 60.3281C43.3125 59.7812 43.1172 58.8464 43.1172 57.5234V55.1875C43.1172 54.2865 43.2083 53.5729 43.3906 53.0469C43.5781 52.5156 43.849 52.1432 44.2031 51.9297C44.5625 51.7161 45.0365 51.6094 45.625 51.6094C46.0156 51.6094 46.349 51.6615 46.625 51.7656C46.901 51.8646 47.1302 52.0078 47.3125 52.1953C47.4948 52.3828 47.638 52.638 47.7422 52.9609C47.8516 53.2786 47.9271 53.6328 47.9688 54.0234C48.0104 54.4089 48.0312 54.875 48.0312 55.4219L48.0234 56.2578H44.2891V57.6406C44.2891 58.599 44.3802 59.276 44.5625 59.6719C44.75 60.0677 45.099 60.2656 45.6094 60.2656C46.0156 60.2656 46.3281 60.138 46.5469 59.8828C46.7656 59.6224 46.875 59.1536 46.875 58.4766V57.8359H48.0234V58.3516C48.0234 59.2474 47.8359 59.9375 47.4609 60.4219C47.0859 60.9062 46.4714 61.1484 45.6172 61.1484ZM44.2891 55.5859H46.875V54.8203C46.875 54.4974 46.8672 54.2292 46.8516 54.0156C46.8359 53.8021 46.8021 53.5911 46.75 53.3828C46.7031 53.1693 46.6354 53.0026 46.5469 52.8828C46.4583 52.763 46.3359 52.6667 46.1797 52.5938C46.0234 52.5208 45.8359 52.4844 45.6172 52.4844C45.1224 52.4844 44.776 52.6562 44.5781 53C44.3854 53.3438 44.2891 53.9974 44.2891 54.9609V55.5859ZM51.7344 61.1484C51 61.1484 50.4115 60.9115 49.9688 60.4375C49.5312 59.9635 49.2812 59.3229 49.2188 58.5156L50.2031 58.2188C50.2656 58.9219 50.4271 59.4401 50.6875 59.7734C50.9479 60.1016 51.3125 60.2656 51.7812 60.2656C52.1875 60.2656 52.5078 60.1458 52.7422 59.9062C52.9661 59.6771 53.0781 59.3698 53.0781 58.9844C53.0781 58.9688 53.0781 58.9505 53.0781 58.9297C53.0625 58.3151 52.6875 57.7005 51.9531 57.0859L50.6953 56.0156C50.2526 55.6458 49.9297 55.2839 49.7266 54.9297C49.5286 54.5859 49.4297 54.1849 49.4297 53.7266C49.4297 53.0495 49.6328 52.526 50.0391 52.1562C50.4349 51.7917 50.9688 51.6094 51.6406 51.6094C52.3229 51.6094 52.8464 51.8281 53.2109 52.2656C53.5807 52.7031 53.7865 53.2943 53.8281 54.0391L53 54.3125C52.9635 53.6927 52.8359 53.2344 52.6172 52.9375C52.4036 52.6354 52.0938 52.4844 51.6875 52.4844C51.3229 52.4844 51.0312 52.5859 50.8125 52.7891C50.599 52.987 50.4922 53.2526 50.4922 53.5859C50.4922 53.888 50.5469 54.1484 50.6562 54.3672C50.7656 54.5807 50.9661 54.8125 51.2578 55.0625L52.5625 56.2344C52.7969 56.4375 52.987 56.6172 53.1328 56.7734C53.2839 56.9245 53.4427 57.1146 53.6094 57.3438C53.776 57.5677 53.8984 57.8125 53.9766 58.0781C54.0599 58.3385 54.1042 58.6198 54.1094 58.9219C54.1094 59.6302 53.8958 60.1797 53.4688 60.5703C53.0417 60.9557 52.4635 61.1484 51.7344 61.1484ZM57.7578 61.1484C56.8724 61.1484 56.2344 60.875 55.8438 60.3281C55.4531 59.7812 55.2578 58.8464 55.2578 57.5234V55.1875C55.2578 54.2865 55.349 53.5729 55.5312 53.0469C55.7188 52.5156 55.9896 52.1432 56.3438 51.9297C56.7031 51.7161 57.1771 51.6094 57.7656 51.6094C58.1562 51.6094 58.4896 51.6615 58.7656 51.7656C59.0417 51.8646 59.2708 52.0078 59.4531 52.1953C59.6354 52.3828 59.7786 52.638 59.8828 52.9609C59.9922 53.2786 60.0677 53.6328 60.1094 54.0234C60.151 54.4089 60.1719 54.875 60.1719 55.4219L60.1641 56.2578H56.4297V57.6406C56.4297 58.599 56.5208 59.276 56.7031 59.6719C56.8906 60.0677 57.2396 60.2656 57.75 60.2656C58.1562 60.2656 58.4688 60.138 58.6875 59.8828C58.9062 59.6224 59.0156 59.1536 59.0156 58.4766V57.8359H60.1641V58.3516C60.1641 59.2474 59.9766 59.9375 59.6016 60.4219C59.2266 60.9062 58.612 61.1484 57.7578 61.1484ZM56.4297 55.5859H59.0156V54.8203C59.0156 54.4974 59.0078 54.2292 58.9922 54.0156C58.9766 53.8021 58.9427 53.5911 58.8906 53.3828C58.8438 53.1693 58.776 53.0026 58.6875 52.8828C58.599 52.763 58.4766 52.6667 58.3203 52.5938C58.1641 52.5208 57.9766 52.4844 57.7578 52.4844C57.263 52.4844 56.9167 52.6562 56.7188 53C56.526 53.3438 56.4297 53.9974 56.4297 54.9609V55.5859ZM63.3594 61.1484C62.8177 61.1484 62.3724 60.9505 62.0234 60.5547C61.6745 60.1536 61.5 59.6589 61.5 59.0703C61.5 58.763 61.526 58.4896 61.5781 58.25C61.6302 58.0052 61.7266 57.776 61.8672 57.5625C62.013 57.349 62.1693 57.1615 62.3359 57C62.5078 56.8333 62.75 56.6589 63.0625 56.4766C63.375 56.2891 63.6875 56.1172 64 55.9609C64.3125 55.8047 64.7214 55.6146 65.2266 55.3906V54.7266C65.2266 53.8776 65.1458 53.2943 64.9844 52.9766C64.8229 52.6536 64.5208 52.4922 64.0781 52.4922C63.224 52.4922 62.7969 53.0208 62.7969 54.0781V54.4141L61.6406 54.375C61.6406 54.224 61.6432 54.1302 61.6484 54.0938C61.6849 53.224 61.9115 52.5938 62.3281 52.2031C62.7448 51.8073 63.349 51.6094 64.1406 51.6094C64.9583 51.6094 65.5391 51.8516 65.8828 52.3359C66.2266 52.8203 66.3984 53.5964 66.3984 54.6641V59.1641C66.3984 59.9089 66.4271 60.5208 66.4844 61H65.4453L65.2734 59.7188C65.1328 60.125 64.8932 60.4661 64.5547 60.7422C64.2214 61.013 63.8229 61.1484 63.3594 61.1484ZM63.7422 60.1406C64.0547 60.1406 64.3411 60.0339 64.6016 59.8203C64.8672 59.6016 65.0755 59.3438 65.2266 59.0469V56.1641C65.1953 56.1797 65.1458 56.2057 65.0781 56.2422C64.8229 56.3776 64.6276 56.4818 64.4922 56.5547C64.3568 56.6276 64.1927 56.7188 64 56.8281C63.8125 56.9375 63.6719 57.0286 63.5781 57.1016C63.4844 57.1745 63.375 57.263 63.25 57.3672C63.1302 57.4714 63.0417 57.5703 62.9844 57.6641C62.9323 57.7526 62.8776 57.8568 62.8203 57.9766C62.763 58.0964 62.724 58.224 62.7031 58.3594C62.6823 58.4896 62.6719 58.6354 62.6719 58.7969C62.6719 59.25 62.7734 59.5885 62.9766 59.8125C63.1797 60.0312 63.4349 60.1406 63.7422 60.1406ZM68.2109 61V51.75H69.3828V53.0234C69.6641 52.5547 69.9922 52.2083 70.3672 51.9844C70.7474 51.7604 71.1302 51.6484 71.5156 51.6484C71.6094 51.6484 71.6771 51.651 71.7188 51.6562V52.9219C71.5521 52.8542 71.3646 52.8203 71.1562 52.8203C70.4062 52.8203 69.8151 53.1797 69.3828 53.8984V61H68.2109ZM75.1875 61.1484C74.7656 61.1484 74.4036 61.0859 74.1016 60.9609C73.7995 60.8359 73.5599 60.6745 73.3828 60.4766C73.2057 60.2734 73.0651 60.0078 72.9609 59.6797C72.862 59.3516 72.7943 59.0208 72.7578 58.6875C72.7266 58.349 72.7109 57.9505 72.7109 57.4922V55.3359C72.7109 54.6641 72.7474 54.1068 72.8203 53.6641C72.8932 53.2161 73.0208 52.8333 73.2031 52.5156C73.3906 52.1979 73.6432 51.9688 73.9609 51.8281C74.2839 51.6823 74.6901 51.6094 75.1797 51.6094C75.5651 51.6094 75.8984 51.6562 76.1797 51.75C76.4609 51.8438 76.6875 51.974 76.8594 52.1406C77.0365 52.3021 77.1745 52.5104 77.2734 52.7656C77.3776 53.0208 77.4479 53.2917 77.4844 53.5781C77.526 53.8594 77.5469 54.1901 77.5469 54.5703V55.0078H76.4609V54.5703C76.4609 53.7786 76.3672 53.2344 76.1797 52.9375C75.9922 52.6354 75.6641 52.4844 75.1953 52.4844C74.6641 52.4844 74.3125 52.6745 74.1406 53.0547C73.9688 53.4297 73.8828 54.125 73.8828 55.1406V57.7344C73.8828 58.6823 73.974 59.3411 74.1562 59.7109C74.3438 60.0807 74.6927 60.2656 75.2031 60.2656C75.4219 60.2656 75.6068 60.2344 75.7578 60.1719C75.9089 60.1094 76.0286 60.0234 76.1172 59.9141C76.2109 59.8047 76.2839 59.6536 76.3359 59.4609C76.388 59.2682 76.4219 59.0651 76.4375 58.8516C76.4531 58.6328 76.4609 58.3594 76.4609 58.0312V57.5234H77.5469V57.9766C77.5469 58.3828 77.5286 58.7344 77.4922 59.0312C77.4609 59.3281 77.3932 59.6172 77.2891 59.8984C77.1901 60.1745 77.0547 60.401 76.8828 60.5781C76.7161 60.75 76.4896 60.888 76.2031 60.9922C75.9167 61.0964 75.5781 61.1484 75.1875 61.1484ZM79.125 61V48.0469H80.2969V52.7266C80.9896 51.9818 81.737 51.6094 82.5391 51.6094C83.0026 51.6094 83.3568 51.7812 83.6016 52.125C83.8464 52.4635 83.9688 52.9479 83.9688 53.5781V61H82.7891V53.8281C82.7891 53.3594 82.7188 53.026 82.5781 52.8281C82.4375 52.6302 82.2161 52.5312 81.9141 52.5312C81.4089 52.5312 80.8698 52.8177 80.2969 53.3906V61H79.125Z" fill="white"/>
<path d="M193.055 37.1641C192.539 37.1641 192.086 37.1042 191.695 36.9844C191.305 36.8646 190.987 36.7005 190.742 36.4922C190.497 36.2786 190.299 36.013 190.148 35.6953C189.997 35.3776 189.891 35.0417 189.828 34.6875C189.771 34.3281 189.742 33.9193 189.742 33.4609V24.0469H190.922V33.5C190.922 33.8229 190.94 34.112 190.977 34.3672C191.013 34.6224 191.078 34.8672 191.172 35.1016C191.266 35.3307 191.391 35.5234 191.547 35.6797C191.703 35.8307 191.909 35.9531 192.164 36.0469C192.419 36.1354 192.716 36.1797 193.055 36.1797C193.461 36.1797 193.805 36.1146 194.086 35.9844C194.372 35.849 194.591 35.6562 194.742 35.4062C194.898 35.151 195.01 34.8698 195.078 34.5625C195.146 34.2552 195.18 33.901 195.18 33.5V24.0469H196.352V33.4609C196.352 33.9141 196.32 34.3203 196.258 34.6797C196.195 35.0391 196.086 35.3776 195.93 35.6953C195.773 36.013 195.57 36.2786 195.32 36.4922C195.076 36.7005 194.76 36.8646 194.375 36.9844C193.995 37.1042 193.555 37.1641 193.055 37.1641ZM200.352 37.1484C199.617 37.1484 199.029 36.9115 198.586 36.4375C198.148 35.9635 197.898 35.3229 197.836 34.5156L198.82 34.2188C198.883 34.9219 199.044 35.4401 199.305 35.7734C199.565 36.1016 199.93 36.2656 200.398 36.2656C200.805 36.2656 201.125 36.1458 201.359 35.9062C201.583 35.6771 201.695 35.3698 201.695 34.9844C201.695 34.9688 201.695 34.9505 201.695 34.9297C201.68 34.3151 201.305 33.7005 200.57 33.0859L199.312 32.0156C198.87 31.6458 198.547 31.2839 198.344 30.9297C198.146 30.5859 198.047 30.1849 198.047 29.7266C198.047 29.0495 198.25 28.526 198.656 28.1562C199.052 27.7917 199.586 27.6094 200.258 27.6094C200.94 27.6094 201.464 27.8281 201.828 28.2656C202.198 28.7031 202.404 29.2943 202.445 30.0391L201.617 30.3125C201.581 29.6927 201.453 29.2344 201.234 28.9375C201.021 28.6354 200.711 28.4844 200.305 28.4844C199.94 28.4844 199.648 28.5859 199.43 28.7891C199.216 28.987 199.109 29.2526 199.109 29.5859C199.109 29.888 199.164 30.1484 199.273 30.3672C199.383 30.5807 199.583 30.8125 199.875 31.0625L201.18 32.2344C201.414 32.4375 201.604 32.6172 201.75 32.7734C201.901 32.9245 202.06 33.1146 202.227 33.3438C202.393 33.5677 202.516 33.8125 202.594 34.0781C202.677 34.3385 202.721 34.6198 202.727 34.9219C202.727 35.6302 202.513 36.1797 202.086 36.5703C201.659 36.9557 201.081 37.1484 200.352 37.1484ZM206.375 37.1484C205.49 37.1484 204.852 36.875 204.461 36.3281C204.07 35.7812 203.875 34.8464 203.875 33.5234V31.1875C203.875 30.2865 203.966 29.5729 204.148 29.0469C204.336 28.5156 204.607 28.1432 204.961 27.9297C205.32 27.7161 205.794 27.6094 206.383 27.6094C206.773 27.6094 207.107 27.6615 207.383 27.7656C207.659 27.8646 207.888 28.0078 208.07 28.1953C208.253 28.3828 208.396 28.638 208.5 28.9609C208.609 29.2786 208.685 29.6328 208.727 30.0234C208.768 30.4089 208.789 30.875 208.789 31.4219L208.781 32.2578H205.047V33.6406C205.047 34.599 205.138 35.276 205.32 35.6719C205.508 36.0677 205.857 36.2656 206.367 36.2656C206.773 36.2656 207.086 36.138 207.305 35.8828C207.523 35.6224 207.633 35.1536 207.633 34.4766V33.8359H208.781V34.3516C208.781 35.2474 208.594 35.9375 208.219 36.4219C207.844 36.9062 207.229 37.1484 206.375 37.1484ZM205.047 31.5859H207.633V30.8203C207.633 30.4974 207.625 30.2292 207.609 30.0156C207.594 29.8021 207.56 29.5911 207.508 29.3828C207.461 29.1693 207.393 29.0026 207.305 28.8828C207.216 28.763 207.094 28.6667 206.938 28.5938C206.781 28.5208 206.594 28.4844 206.375 28.4844C205.88 28.4844 205.534 28.6562 205.336 29C205.143 29.3438 205.047 29.9974 205.047 30.9609V31.5859ZM210.469 37V27.75H211.641V29.0234C211.922 28.5547 212.25 28.2083 212.625 27.9844C213.005 27.7604 213.388 27.6484 213.773 27.6484C213.867 27.6484 213.935 27.651 213.977 27.6562V28.9219C213.81 28.8542 213.622 28.8203 213.414 28.8203C212.664 28.8203 212.073 29.1797 211.641 29.8984V37H210.469ZM179.555 61L182.289 48.0469H183.57L186.32 61H185.125L184.484 57.5391H181.391L180.734 61H179.555ZM181.562 56.6484H184.32L182.938 49.6641L181.562 56.6484ZM187.648 61V51.75H188.82V52.7109C189.503 51.9766 190.245 51.6094 191.047 51.6094C191.505 51.6094 191.857 51.7812 192.102 52.125C192.346 52.4635 192.469 52.9479 192.469 53.5781V61H191.297V53.8281C191.297 53.3594 191.224 53.026 191.078 52.8281C190.938 52.6302 190.716 52.5312 190.414 52.5312C189.909 52.5312 189.378 52.8151 188.82 53.3828V61H187.648ZM195.797 61.1484C195.255 61.1484 194.81 60.9505 194.461 60.5547C194.112 60.1536 193.938 59.6589 193.938 59.0703C193.938 58.763 193.964 58.4896 194.016 58.25C194.068 58.0052 194.164 57.776 194.305 57.5625C194.451 57.349 194.607 57.1615 194.773 57C194.945 56.8333 195.188 56.6589 195.5 56.4766C195.812 56.2891 196.125 56.1172 196.438 55.9609C196.75 55.8047 197.159 55.6146 197.664 55.3906V54.7266C197.664 53.8776 197.583 53.2943 197.422 52.9766C197.26 52.6536 196.958 52.4922 196.516 52.4922C195.661 52.4922 195.234 53.0208 195.234 54.0781V54.4141L194.078 54.375C194.078 54.224 194.081 54.1302 194.086 54.0938C194.122 53.224 194.349 52.5938 194.766 52.2031C195.182 51.8073 195.786 51.6094 196.578 51.6094C197.396 51.6094 197.977 51.8516 198.32 52.3359C198.664 52.8203 198.836 53.5964 198.836 54.6641V59.1641C198.836 59.9089 198.865 60.5208 198.922 61H197.883L197.711 59.7188C197.57 60.125 197.331 60.4661 196.992 60.7422C196.659 61.013 196.26 61.1484 195.797 61.1484ZM196.18 60.1406C196.492 60.1406 196.779 60.0339 197.039 59.8203C197.305 59.6016 197.513 59.3438 197.664 59.0469V56.1641C197.633 56.1797 197.583 56.2057 197.516 56.2422C197.26 56.3776 197.065 56.4818 196.93 56.5547C196.794 56.6276 196.63 56.7188 196.438 56.8281C196.25 56.9375 196.109 57.0286 196.016 57.1016C195.922 57.1745 195.812 57.263 195.688 57.3672C195.568 57.4714 195.479 57.5703 195.422 57.6641C195.37 57.7526 195.315 57.8568 195.258 57.9766C195.201 58.0964 195.161 58.224 195.141 58.3594C195.12 58.4896 195.109 58.6354 195.109 58.7969C195.109 59.25 195.211 59.5885 195.414 59.8125C195.617 60.0312 195.872 60.1406 196.18 60.1406ZM200.719 61V48.0469H201.898V61H200.719ZM203.539 63.3047V62.3906C204.102 62.3906 204.523 62.3464 204.805 62.2578C205.086 62.1693 205.263 62.0443 205.336 61.8828C205.383 61.7786 205.409 61.6432 205.414 61.4766C205.414 61.388 205.406 61.2891 205.391 61.1797C205.365 60.987 205.273 60.5599 205.117 59.8984C204.992 59.3828 204.651 57.9271 204.094 55.5312C203.536 53.1354 203.242 51.875 203.211 51.75H204.383L205.992 59.6172L207.539 51.75H208.719L206.477 61.6641C206.341 62.2526 206.065 62.6719 205.648 62.9219C205.237 63.1771 204.635 63.3047 203.844 63.3047H203.539ZM212 61.1484C211.266 61.1484 210.677 60.9115 210.234 60.4375C209.797 59.9635 209.547 59.3229 209.484 58.5156L210.469 58.2188C210.531 58.9219 210.693 59.4401 210.953 59.7734C211.214 60.1016 211.578 60.2656 212.047 60.2656C212.453 60.2656 212.773 60.1458 213.008 59.9062C213.232 59.6771 213.344 59.3698 213.344 58.9844C213.344 58.9688 213.344 58.9505 213.344 58.9297C213.328 58.3151 212.953 57.7005 212.219 57.0859L210.961 56.0156C210.518 55.6458 210.195 55.2839 209.992 54.9297C209.794 54.5859 209.695 54.1849 209.695 53.7266C209.695 53.0495 209.898 52.526 210.305 52.1562C210.701 51.7917 211.234 51.6094 211.906 51.6094C212.589 51.6094 213.112 51.8281 213.477 52.2656C213.846 52.7031 214.052 53.2943 214.094 54.0391L213.266 54.3125C213.229 53.6927 213.102 53.2344 212.883 52.9375C212.669 52.6354 212.359 52.4844 211.953 52.4844C211.589 52.4844 211.297 52.5859 211.078 52.7891C210.865 52.987 210.758 53.2526 210.758 53.5859C210.758 53.888 210.812 54.1484 210.922 54.3672C211.031 54.5807 211.232 54.8125 211.523 55.0625L212.828 56.2344C213.062 56.4375 213.253 56.6172 213.398 56.7734C213.549 56.9245 213.708 57.1146 213.875 57.3438C214.042 57.5677 214.164 57.8125 214.242 58.0781C214.326 58.3385 214.37 58.6198 214.375 58.9219C214.375 59.6302 214.161 60.1797 213.734 60.5703C213.307 60.9557 212.729 61.1484 212 61.1484ZM215.828 61V51.75H217V61H215.828ZM215.828 50.4766V48.8828H217.008V50.4766H215.828ZM221.078 61.1484C220.344 61.1484 219.755 60.9115 219.312 60.4375C218.875 59.9635 218.625 59.3229 218.562 58.5156L219.547 58.2188C219.609 58.9219 219.771 59.4401 220.031 59.7734C220.292 60.1016 220.656 60.2656 221.125 60.2656C221.531 60.2656 221.852 60.1458 222.086 59.9062C222.31 59.6771 222.422 59.3698 222.422 58.9844C222.422 58.9688 222.422 58.9505 222.422 58.9297C222.406 58.3151 222.031 57.7005 221.297 57.0859L220.039 56.0156C219.596 55.6458 219.273 55.2839 219.07 54.9297C218.872 54.5859 218.773 54.1849 218.773 53.7266C218.773 53.0495 218.977 52.526 219.383 52.1562C219.779 51.7917 220.312 51.6094 220.984 51.6094C221.667 51.6094 222.19 51.8281 222.555 52.2656C222.924 52.7031 223.13 53.2943 223.172 54.0391L222.344 54.3125C222.307 53.6927 222.18 53.2344 221.961 52.9375C221.747 52.6354 221.438 52.4844 221.031 52.4844C220.667 52.4844 220.375 52.5859 220.156 52.7891C219.943 52.987 219.836 53.2526 219.836 53.5859C219.836 53.888 219.891 54.1484 220 54.3672C220.109 54.5807 220.31 54.8125 220.602 55.0625L221.906 56.2344C222.141 56.4375 222.331 56.6172 222.477 56.7734C222.628 56.9245 222.786 57.1146 222.953 57.3438C223.12 57.5677 223.242 57.8125 223.32 58.0781C223.404 58.3385 223.448 58.6198 223.453 58.9219C223.453 59.6302 223.24 60.1797 222.812 60.5703C222.385 60.9557 221.807 61.1484 221.078 61.1484Z" fill="white"/>
<path d="M309.234 37V24.0469H312.18C313.331 24.0469 314.154 24.3255 314.648 24.8828C315.143 25.4349 315.391 26.2474 315.391 27.3203C315.391 29.1068 314.789 30.125 313.586 30.375L315.594 37H314.391L312.492 30.6328H310.461V37H309.234ZM310.461 29.7344H312.109C312.891 29.7344 313.435 29.5443 313.742 29.1641C314.049 28.7786 314.203 28.1641 314.203 27.3203C314.203 26.487 314.057 25.8854 313.766 25.5156C313.474 25.1458 312.935 24.9609 312.148 24.9609H310.461V29.7344ZM319.531 37.1484C318.646 37.1484 318.008 36.875 317.617 36.3281C317.227 35.7812 317.031 34.8464 317.031 33.5234V31.1875C317.031 30.2865 317.122 29.5729 317.305 29.0469C317.492 28.5156 317.763 28.1432 318.117 27.9297C318.477 27.7161 318.951 27.6094 319.539 27.6094C319.93 27.6094 320.263 27.6615 320.539 27.7656C320.815 27.8646 321.044 28.0078 321.227 28.1953C321.409 28.3828 321.552 28.638 321.656 28.9609C321.766 29.2786 321.841 29.6328 321.883 30.0234C321.924 30.4089 321.945 30.875 321.945 31.4219L321.938 32.2578H318.203V33.6406C318.203 34.599 318.294 35.276 318.477 35.6719C318.664 36.0677 319.013 36.2656 319.523 36.2656C319.93 36.2656 320.242 36.138 320.461 35.8828C320.68 35.6224 320.789 35.1536 320.789 34.4766V33.8359H321.938V34.3516C321.938 35.2474 321.75 35.9375 321.375 36.4219C321 36.9062 320.385 37.1484 319.531 37.1484ZM318.203 31.5859H320.789V30.8203C320.789 30.4974 320.781 30.2292 320.766 30.0156C320.75 29.8021 320.716 29.5911 320.664 29.3828C320.617 29.1693 320.549 29.0026 320.461 28.8828C320.372 28.763 320.25 28.6667 320.094 28.5938C319.938 28.5208 319.75 28.4844 319.531 28.4844C319.036 28.4844 318.69 28.6562 318.492 29C318.299 29.3438 318.203 29.9974 318.203 30.9609V31.5859ZM327.203 40.0469V36.3359C326.74 36.8724 326.214 37.1432 325.625 37.1484C324.828 37.1484 324.255 36.849 323.906 36.25C323.562 35.651 323.391 34.6562 323.391 33.2656V31.5547C323.391 31.0443 323.409 30.5964 323.445 30.2109C323.482 29.8255 323.549 29.4635 323.648 29.125C323.747 28.7865 323.878 28.5104 324.039 28.2969C324.201 28.0833 324.409 27.9167 324.664 27.7969C324.919 27.6719 325.221 27.6094 325.57 27.6094C326.195 27.6146 326.74 27.8854 327.203 28.4219V27.75H328.375V40.0469H327.203ZM325.859 36.2188C326.323 36.2188 326.771 36.013 327.203 35.6016V29.1875C326.729 28.75 326.271 28.5312 325.828 28.5312C325.333 28.5312 324.997 28.7396 324.82 29.1562C324.648 29.5677 324.562 30.2422 324.562 31.1797V33.3594C324.562 34.3698 324.651 35.099 324.828 35.5469C325.005 35.9948 325.349 36.2188 325.859 36.2188ZM331.516 37.1406C331.052 37.1406 330.698 36.9688 330.453 36.625C330.208 36.2812 330.086 35.7943 330.086 35.1641V27.75H331.266V34.9219C331.266 35.3906 331.336 35.724 331.477 35.9219C331.617 36.1198 331.839 36.2188 332.141 36.2188C332.667 36.2188 333.214 35.9167 333.781 35.3125V27.75H334.953V37H333.781V35.9766C333.094 36.7526 332.339 37.1406 331.516 37.1406ZM336.883 37V27.75H338.055V37H336.883ZM336.883 26.4766V24.8828H338.062V26.4766H336.883ZM340.109 37V27.75H341.281V29.0234C341.562 28.5547 341.891 28.2083 342.266 27.9844C342.646 27.7604 343.029 27.6484 343.414 27.6484C343.508 27.6484 343.576 27.651 343.617 27.6562V28.9219C343.451 28.8542 343.263 28.8203 343.055 28.8203C342.305 28.8203 341.714 29.1797 341.281 29.8984V37H340.109ZM347.109 37.1484C346.224 37.1484 345.586 36.875 345.195 36.3281C344.805 35.7812 344.609 34.8464 344.609 33.5234V31.1875C344.609 30.2865 344.701 29.5729 344.883 29.0469C345.07 28.5156 345.341 28.1432 345.695 27.9297C346.055 27.7161 346.529 27.6094 347.117 27.6094C347.508 27.6094 347.841 27.6615 348.117 27.7656C348.393 27.8646 348.622 28.0078 348.805 28.1953C348.987 28.3828 349.13 28.638 349.234 28.9609C349.344 29.2786 349.419 29.6328 349.461 30.0234C349.503 30.4089 349.523 30.875 349.523 31.4219L349.516 32.2578H345.781V33.6406C345.781 34.599 345.872 35.276 346.055 35.6719C346.242 36.0677 346.591 36.2656 347.102 36.2656C347.508 36.2656 347.82 36.138 348.039 35.8828C348.258 35.6224 348.367 35.1536 348.367 34.4766V33.8359H349.516V34.3516C349.516 35.2474 349.328 35.9375 348.953 36.4219C348.578 36.9062 347.964 37.1484 347.109 37.1484ZM345.781 31.5859H348.367V30.8203C348.367 30.4974 348.359 30.2292 348.344 30.0156C348.328 29.8021 348.294 29.5911 348.242 29.3828C348.195 29.1693 348.128 29.0026 348.039 28.8828C347.951 28.763 347.828 28.6667 347.672 28.5938C347.516 28.5208 347.328 28.4844 347.109 28.4844C346.615 28.4844 346.268 28.6562 346.07 29C345.878 29.3438 345.781 29.9974 345.781 30.9609V31.5859ZM351.109 37V27.75H352.211V28.6875C352.831 27.9531 353.557 27.5859 354.391 27.5859C355.161 27.5859 355.646 27.9922 355.844 28.8047C356.49 27.9922 357.25 27.5859 358.125 27.5859C358.583 27.5859 358.958 27.7526 359.25 28.0859C359.547 28.4141 359.695 28.9531 359.695 29.7031V37H358.586V29.7344C358.586 29.2292 358.508 28.8776 358.352 28.6797C358.195 28.4818 357.971 28.3828 357.68 28.3828C357.091 28.3932 356.51 28.7135 355.938 29.3438C355.948 29.5 355.953 29.6198 355.953 29.7031V37H354.859V29.7344C354.859 29.2292 354.779 28.8776 354.617 28.6797C354.456 28.4818 354.229 28.3828 353.938 28.3828C353.349 28.3932 352.773 28.7135 352.211 29.3438V37H351.109ZM363.75 37.1484C362.865 37.1484 362.227 36.875 361.836 36.3281C361.445 35.7812 361.25 34.8464 361.25 33.5234V31.1875C361.25 30.2865 361.341 29.5729 361.523 29.0469C361.711 28.5156 361.982 28.1432 362.336 27.9297C362.695 27.7161 363.169 27.6094 363.758 27.6094C364.148 27.6094 364.482 27.6615 364.758 27.7656C365.034 27.8646 365.263 28.0078 365.445 28.1953C365.628 28.3828 365.771 28.638 365.875 28.9609C365.984 29.2786 366.06 29.6328 366.102 30.0234C366.143 30.4089 366.164 30.875 366.164 31.4219L366.156 32.2578H362.422V33.6406C362.422 34.599 362.513 35.276 362.695 35.6719C362.883 36.0677 363.232 36.2656 363.742 36.2656C364.148 36.2656 364.461 36.138 364.68 35.8828C364.898 35.6224 365.008 35.1536 365.008 34.4766V33.8359H366.156V34.3516C366.156 35.2474 365.969 35.9375 365.594 36.4219C365.219 36.9062 364.604 37.1484 363.75 37.1484ZM362.422 31.5859H365.008V30.8203C365.008 30.4974 365 30.2292 364.984 30.0156C364.969 29.8021 364.935 29.5911 364.883 29.3828C364.836 29.1693 364.768 29.0026 364.68 28.8828C364.591 28.763 364.469 28.6667 364.312 28.5938C364.156 28.5208 363.969 28.4844 363.75 28.4844C363.255 28.4844 362.909 28.6562 362.711 29C362.518 29.3438 362.422 29.9974 362.422 30.9609V31.5859ZM367.75 37V27.75H368.922V28.7109C369.604 27.9766 370.346 27.6094 371.148 27.6094C371.607 27.6094 371.958 27.7812 372.203 28.125C372.448 28.4635 372.57 28.9479 372.57 29.5781V37H371.398V29.8281C371.398 29.3594 371.326 29.026 371.18 28.8281C371.039 28.6302 370.818 28.5312 370.516 28.5312C370.01 28.5312 369.479 28.8151 368.922 29.3828V37H367.75ZM376.492 37.1172C375.862 37.1172 375.427 36.9453 375.188 36.6016C374.948 36.2526 374.826 35.7448 374.82 35.0781V28.5312H373.703V27.75H374.82V24.8906H375.992V27.75H377.531V28.5312H375.992V34.9688C375.992 35.4375 376.047 35.7604 376.156 35.9375C376.266 36.1094 376.487 36.1953 376.82 36.1953C377.034 36.1953 377.253 36.1745 377.477 36.1328V37.0156C377.128 37.0833 376.799 37.1172 376.492 37.1172ZM321.055 61L323.789 48.0469H325.07L327.82 61H326.625L325.984 57.5391H322.891L322.234 61H321.055ZM323.062 56.6484H325.82L324.438 49.6641L323.062 56.6484ZM329.148 61V51.75H330.32V52.7109C331.003 51.9766 331.745 51.6094 332.547 51.6094C333.005 51.6094 333.357 51.7812 333.602 52.125C333.846 52.4635 333.969 52.9479 333.969 53.5781V61H332.797V53.8281C332.797 53.3594 332.724 53.026 332.578 52.8281C332.438 52.6302 332.216 52.5312 331.914 52.5312C331.409 52.5312 330.878 52.8151 330.32 53.3828V61H329.148ZM337.297 61.1484C336.755 61.1484 336.31 60.9505 335.961 60.5547C335.612 60.1536 335.438 59.6589 335.438 59.0703C335.438 58.763 335.464 58.4896 335.516 58.25C335.568 58.0052 335.664 57.776 335.805 57.5625C335.951 57.349 336.107 57.1615 336.273 57C336.445 56.8333 336.688 56.6589 337 56.4766C337.312 56.2891 337.625 56.1172 337.938 55.9609C338.25 55.8047 338.659 55.6146 339.164 55.3906V54.7266C339.164 53.8776 339.083 53.2943 338.922 52.9766C338.76 52.6536 338.458 52.4922 338.016 52.4922C337.161 52.4922 336.734 53.0208 336.734 54.0781V54.4141L335.578 54.375C335.578 54.224 335.581 54.1302 335.586 54.0938C335.622 53.224 335.849 52.5938 336.266 52.2031C336.682 51.8073 337.286 51.6094 338.078 51.6094C338.896 51.6094 339.477 51.8516 339.82 52.3359C340.164 52.8203 340.336 53.5964 340.336 54.6641V59.1641C340.336 59.9089 340.365 60.5208 340.422 61H339.383L339.211 59.7188C339.07 60.125 338.831 60.4661 338.492 60.7422C338.159 61.013 337.76 61.1484 337.297 61.1484ZM337.68 60.1406C337.992 60.1406 338.279 60.0339 338.539 59.8203C338.805 59.6016 339.013 59.3438 339.164 59.0469V56.1641C339.133 56.1797 339.083 56.2057 339.016 56.2422C338.76 56.3776 338.565 56.4818 338.43 56.5547C338.294 56.6276 338.13 56.7188 337.938 56.8281C337.75 56.9375 337.609 57.0286 337.516 57.1016C337.422 57.1745 337.312 57.263 337.188 57.3672C337.068 57.4714 336.979 57.5703 336.922 57.6641C336.87 57.7526 336.815 57.8568 336.758 57.9766C336.701 58.0964 336.661 58.224 336.641 58.3594C336.62 58.4896 336.609 58.6354 336.609 58.7969C336.609 59.25 336.711 59.5885 336.914 59.8125C337.117 60.0312 337.372 60.1406 337.68 60.1406ZM342.219 61V48.0469H343.398V61H342.219ZM345.039 63.3047V62.3906C345.602 62.3906 346.023 62.3464 346.305 62.2578C346.586 62.1693 346.763 62.0443 346.836 61.8828C346.883 61.7786 346.909 61.6432 346.914 61.4766C346.914 61.388 346.906 61.2891 346.891 61.1797C346.865 60.987 346.773 60.5599 346.617 59.8984C346.492 59.3828 346.151 57.9271 345.594 55.5312C345.036 53.1354 344.742 51.875 344.711 51.75H345.883L347.492 59.6172L349.039 51.75H350.219L347.977 61.6641C347.841 62.2526 347.565 62.6719 347.148 62.9219C346.737 63.1771 346.135 63.3047 345.344 63.3047H345.039ZM353.5 61.1484C352.766 61.1484 352.177 60.9115 351.734 60.4375C351.297 59.9635 351.047 59.3229 350.984 58.5156L351.969 58.2188C352.031 58.9219 352.193 59.4401 352.453 59.7734C352.714 60.1016 353.078 60.2656 353.547 60.2656C353.953 60.2656 354.273 60.1458 354.508 59.9062C354.732 59.6771 354.844 59.3698 354.844 58.9844C354.844 58.9688 354.844 58.9505 354.844 58.9297C354.828 58.3151 354.453 57.7005 353.719 57.0859L352.461 56.0156C352.018 55.6458 351.695 55.2839 351.492 54.9297C351.294 54.5859 351.195 54.1849 351.195 53.7266C351.195 53.0495 351.398 52.526 351.805 52.1562C352.201 51.7917 352.734 51.6094 353.406 51.6094C354.089 51.6094 354.612 51.8281 354.977 52.2656C355.346 52.7031 355.552 53.2943 355.594 54.0391L354.766 54.3125C354.729 53.6927 354.602 53.2344 354.383 52.9375C354.169 52.6354 353.859 52.4844 353.453 52.4844C353.089 52.4844 352.797 52.5859 352.578 52.7891C352.365 52.987 352.258 53.2526 352.258 53.5859C352.258 53.888 352.312 54.1484 352.422 54.3672C352.531 54.5807 352.732 54.8125 353.023 55.0625L354.328 56.2344C354.562 56.4375 354.753 56.6172 354.898 56.7734C355.049 56.9245 355.208 57.1146 355.375 57.3438C355.542 57.5677 355.664 57.8125 355.742 58.0781C355.826 58.3385 355.87 58.6198 355.875 58.9219C355.875 59.6302 355.661 60.1797 355.234 60.5703C354.807 60.9557 354.229 61.1484 353.5 61.1484ZM357.328 61V51.75H358.5V61H357.328ZM357.328 50.4766V48.8828H358.508V50.4766H357.328ZM362.578 61.1484C361.844 61.1484 361.255 60.9115 360.812 60.4375C360.375 59.9635 360.125 59.3229 360.062 58.5156L361.047 58.2188C361.109 58.9219 361.271 59.4401 361.531 59.7734C361.792 60.1016 362.156 60.2656 362.625 60.2656C363.031 60.2656 363.352 60.1458 363.586 59.9062C363.81 59.6771 363.922 59.3698 363.922 58.9844C363.922 58.9688 363.922 58.9505 363.922 58.9297C363.906 58.3151 363.531 57.7005 362.797 57.0859L361.539 56.0156C361.096 55.6458 360.773 55.2839 360.57 54.9297C360.372 54.5859 360.273 54.1849 360.273 53.7266C360.273 53.0495 360.477 52.526 360.883 52.1562C361.279 51.7917 361.812 51.6094 362.484 51.6094C363.167 51.6094 363.69 51.8281 364.055 52.2656C364.424 52.7031 364.63 53.2943 364.672 54.0391L363.844 54.3125C363.807 53.6927 363.68 53.2344 363.461 52.9375C363.247 52.6354 362.938 52.4844 362.531 52.4844C362.167 52.4844 361.875 52.5859 361.656 52.7891C361.443 52.987 361.336 53.2526 361.336 53.5859C361.336 53.888 361.391 54.1484 361.5 54.3672C361.609 54.5807 361.81 54.8125 362.102 55.0625L363.406 56.2344C363.641 56.4375 363.831 56.6172 363.977 56.7734C364.128 56.9245 364.286 57.1146 364.453 57.3438C364.62 57.5677 364.742 57.8125 364.82 58.0781C364.904 58.3385 364.948 58.6198 364.953 58.9219C364.953 59.6302 364.74 60.1797 364.312 60.5703C363.885 60.9557 363.307 61.1484 362.578 61.1484Z" fill="white"/>
<path d="M454.266 49V36.0469H457.375C457.943 36.0469 458.43 36.1276 458.836 36.2891C459.242 36.4505 459.562 36.6875 459.797 37C460.031 37.3073 460.201 37.6641 460.305 38.0703C460.409 38.4766 460.461 38.9453 460.461 39.4766C460.461 39.9557 460.404 40.3958 460.289 40.7969C460.18 41.1927 460.005 41.5495 459.766 41.8672C459.531 42.1797 459.211 42.4245 458.805 42.6016C458.404 42.7786 457.932 42.8672 457.391 42.8672H455.492V49H454.266ZM455.492 41.9609H457.047C457.844 41.9609 458.411 41.7786 458.75 41.4141C459.094 41.0443 459.266 40.401 459.266 39.4844C459.266 38.4896 459.115 37.8203 458.812 37.4766C458.51 37.1276 457.927 36.9531 457.062 36.9531H455.492V41.9609ZM461.859 49V39.75H463.031V41.0234C463.312 40.5547 463.641 40.2083 464.016 39.9844C464.396 39.7604 464.779 39.6484 465.164 39.6484C465.258 39.6484 465.326 39.651 465.367 39.6562V40.9219C465.201 40.8542 465.013 40.8203 464.805 40.8203C464.055 40.8203 463.464 41.1797 463.031 41.8984V49H461.859ZM468.828 48.2656C469.062 48.2656 469.26 48.224 469.422 48.1406C469.583 48.0521 469.708 47.9427 469.797 47.8125C469.891 47.6823 469.961 47.4974 470.008 47.2578C470.055 47.0182 470.083 46.7891 470.094 46.5703C470.109 46.3516 470.117 46.0677 470.117 45.7188V43.0312C470.117 42.6823 470.109 42.3984 470.094 42.1797C470.083 41.9609 470.055 41.7318 470.008 41.4922C469.961 41.2526 469.891 41.0677 469.797 40.9375C469.708 40.8073 469.583 40.7005 469.422 40.6172C469.26 40.5286 469.062 40.4844 468.828 40.4844C468.63 40.4844 468.458 40.5104 468.312 40.5625C468.167 40.6146 468.047 40.7005 467.953 40.8203C467.859 40.9349 467.784 41.0599 467.727 41.1953C467.669 41.3255 467.625 41.4974 467.594 41.7109C467.568 41.9245 467.549 42.1276 467.539 42.3203C467.534 42.5078 467.531 42.7448 467.531 43.0312V45.7188C467.531 46.0052 467.534 46.2448 467.539 46.4375C467.549 46.625 467.568 46.8255 467.594 47.0391C467.625 47.2526 467.669 47.4271 467.727 47.5625C467.784 47.6927 467.859 47.8177 467.953 47.9375C468.047 48.0521 468.167 48.1354 468.312 48.1875C468.458 48.2396 468.63 48.2656 468.828 48.2656ZM470.023 48.9219C469.701 49.0729 469.302 49.1484 468.828 49.1484C468.354 49.1484 467.956 49.0729 467.633 48.9219C467.31 48.7708 467.055 48.5417 466.867 48.2344C466.685 47.9271 466.555 47.5677 466.477 47.1562C466.398 46.7396 466.359 46.2396 466.359 45.6562V43.0938C466.359 41.9167 466.542 41.0417 466.906 40.4688C467.271 39.8958 467.911 39.6094 468.828 39.6094C469.75 39.6094 470.391 39.8958 470.75 40.4688C471.115 41.0365 471.297 41.9115 471.297 43.0938V45.6562C471.297 46.2396 471.258 46.7396 471.18 47.1562C471.102 47.5677 470.969 47.9271 470.781 48.2344C470.599 48.5417 470.346 48.7708 470.023 48.9219ZM475.102 49.1172C474.471 49.1172 474.036 48.9453 473.797 48.6016C473.557 48.2526 473.435 47.7448 473.43 47.0781V40.5312H472.312V39.75H473.43V36.8906H474.602V39.75H476.141V40.5312H474.602V46.9688C474.602 47.4375 474.656 47.7604 474.766 47.9375C474.875 48.1094 475.096 48.1953 475.43 48.1953C475.643 48.1953 475.862 48.1745 476.086 48.1328V49.0156C475.737 49.0833 475.409 49.1172 475.102 49.1172ZM479.688 48.2656C479.922 48.2656 480.12 48.224 480.281 48.1406C480.443 48.0521 480.568 47.9427 480.656 47.8125C480.75 47.6823 480.82 47.4974 480.867 47.2578C480.914 47.0182 480.943 46.7891 480.953 46.5703C480.969 46.3516 480.977 46.0677 480.977 45.7188V43.0312C480.977 42.6823 480.969 42.3984 480.953 42.1797C480.943 41.9609 480.914 41.7318 480.867 41.4922C480.82 41.2526 480.75 41.0677 480.656 40.9375C480.568 40.8073 480.443 40.7005 480.281 40.6172C480.12 40.5286 479.922 40.4844 479.688 40.4844C479.49 40.4844 479.318 40.5104 479.172 40.5625C479.026 40.6146 478.906 40.7005 478.812 40.8203C478.719 40.9349 478.643 41.0599 478.586 41.1953C478.529 41.3255 478.484 41.4974 478.453 41.7109C478.427 41.9245 478.409 42.1276 478.398 42.3203C478.393 42.5078 478.391 42.7448 478.391 43.0312V45.7188C478.391 46.0052 478.393 46.2448 478.398 46.4375C478.409 46.625 478.427 46.8255 478.453 47.0391C478.484 47.2526 478.529 47.4271 478.586 47.5625C478.643 47.6927 478.719 47.8177 478.812 47.9375C478.906 48.0521 479.026 48.1354 479.172 48.1875C479.318 48.2396 479.49 48.2656 479.688 48.2656ZM480.883 48.9219C480.56 49.0729 480.161 49.1484 479.688 49.1484C479.214 49.1484 478.815 49.0729 478.492 48.9219C478.169 48.7708 477.914 48.5417 477.727 48.2344C477.544 47.9271 477.414 47.5677 477.336 47.1562C477.258 46.7396 477.219 46.2396 477.219 45.6562V43.0938C477.219 41.9167 477.401 41.0417 477.766 40.4688C478.13 39.8958 478.771 39.6094 479.688 39.6094C480.609 39.6094 481.25 39.8958 481.609 40.4688C481.974 41.0365 482.156 41.9115 482.156 43.0938V45.6562C482.156 46.2396 482.117 46.7396 482.039 47.1562C481.961 47.5677 481.828 47.9271 481.641 48.2344C481.458 48.5417 481.206 48.7708 480.883 48.9219ZM485.961 49.1172C485.331 49.1172 484.896 48.9453 484.656 48.6016C484.417 48.2526 484.294 47.7448 484.289 47.0781V40.5312H483.172V39.75H484.289V36.8906H485.461V39.75H487V40.5312H485.461V46.9688C485.461 47.4375 485.516 47.7604 485.625 47.9375C485.734 48.1094 485.956 48.1953 486.289 48.1953C486.503 48.1953 486.721 48.1745 486.945 48.1328V49.0156C486.596 49.0833 486.268 49.1172 485.961 49.1172ZM488 51.3047V50.3906C488.562 50.3906 488.984 50.3464 489.266 50.2578C489.547 50.1693 489.724 50.0443 489.797 49.8828C489.844 49.7786 489.87 49.6432 489.875 49.4766C489.875 49.388 489.867 49.2891 489.852 49.1797C489.826 48.987 489.734 48.5599 489.578 47.8984C489.453 47.3828 489.112 45.9271 488.555 43.5312C487.997 41.1354 487.703 39.875 487.672 39.75H488.844L490.453 47.6172L492 39.75H493.18L490.938 49.6641C490.802 50.2526 490.526 50.6719 490.109 50.9219C489.698 51.1771 489.096 51.3047 488.305 51.3047H488ZM494.352 52.0469V39.75H495.523V40.5234C496.018 39.9141 496.609 39.6094 497.297 39.6094C497.641 39.6094 497.94 39.6797 498.195 39.8203C498.456 39.9609 498.659 40.1432 498.805 40.3672C498.956 40.5911 499.076 40.8698 499.164 41.2031C499.258 41.5365 499.318 41.8672 499.344 42.1953C499.375 42.5182 499.391 42.8854 499.391 43.2969V45.25C499.391 45.7396 499.37 46.1771 499.328 46.5625C499.286 46.9479 499.214 47.3073 499.109 47.6406C499.005 47.9688 498.867 48.2422 498.695 48.4609C498.529 48.6745 498.318 48.8438 498.062 48.9688C497.807 49.0885 497.51 49.1484 497.172 49.1484C496.573 49.1484 496.023 48.8542 495.523 48.2656V52.0469H494.352ZM496.984 48.2188C497.193 48.2188 497.37 48.1771 497.516 48.0938C497.661 48.0052 497.779 47.888 497.867 47.7422C497.961 47.5911 498.034 47.388 498.086 47.1328C498.138 46.8776 498.172 46.6068 498.188 46.3203C498.208 46.0286 498.219 45.6771 498.219 45.2656V43.2969C498.219 42.3073 498.135 41.599 497.969 41.1719C497.802 40.7448 497.466 40.5312 496.961 40.5312C496.487 40.5312 496.008 40.7682 495.523 41.2422V47.5469C495.951 47.9948 496.438 48.2188 496.984 48.2188ZM501.164 49V39.75H502.336V49H501.164ZM501.164 38.4766V36.8828H502.344V38.4766H501.164ZM504.297 49V39.75H505.469V40.7109C506.151 39.9766 506.893 39.6094 507.695 39.6094C508.154 39.6094 508.505 39.7812 508.75 40.125C508.995 40.4635 509.117 40.9479 509.117 41.5781V49H507.945V41.8281C507.945 41.3594 507.872 41.026 507.727 40.8281C507.586 40.6302 507.365 40.5312 507.062 40.5312C506.557 40.5312 506.026 40.8151 505.469 41.3828V49H504.297ZM513.383 52.0391C512.893 52.0391 512.461 52.013 512.086 51.9609C511.716 51.9089 511.388 51.8229 511.102 51.7031C510.815 51.5833 510.596 51.4193 510.445 51.2109C510.294 51.0078 510.219 50.763 510.219 50.4766C510.219 50.0286 510.367 49.6172 510.664 49.2422C510.961 48.8724 511.323 48.5755 511.75 48.3516C511.469 48.2734 511.227 48.1615 511.023 48.0156C510.82 47.8646 510.719 47.7031 510.719 47.5312C510.719 47.0417 511.086 46.4193 511.82 45.6641C511.049 45.1016 510.664 44.1589 510.664 42.8359C510.664 42.388 510.716 41.974 510.82 41.5938C510.924 41.2083 511.078 40.8672 511.281 40.5703C511.49 40.2682 511.76 40.0339 512.094 39.8672C512.427 39.6953 512.81 39.6094 513.242 39.6094C514.174 39.6094 514.839 39.9922 515.234 40.7578C515.333 40.5859 515.5 40.401 515.734 40.2031C515.969 40 516.219 39.8411 516.484 39.7266L516.727 39.625L517.039 40.4453C516.784 40.5078 516.497 40.6198 516.18 40.7812C515.867 40.9427 515.646 41.099 515.516 41.25C515.594 41.4375 515.661 41.6979 515.719 42.0312C515.781 42.3646 515.812 42.6432 515.812 42.8672C515.812 43.862 515.607 44.651 515.195 45.2344C514.789 45.8125 514.143 46.1016 513.258 46.1016C513.117 46.1016 512.945 46.0859 512.742 46.0547C512.539 46.0182 512.398 45.9844 512.32 45.9531C512.305 45.9792 512.245 46.0677 512.141 46.2188C512.042 46.3698 511.966 46.487 511.914 46.5703C511.867 46.6484 511.818 46.7474 511.766 46.8672C511.714 46.9818 511.688 47.0781 511.688 47.1562C511.688 47.3073 511.945 47.4245 512.461 47.5078C512.57 47.5391 512.831 47.5859 513.242 47.6484C513.654 47.7057 513.888 47.7422 513.945 47.7578C514.706 47.8932 515.281 48.1302 515.672 48.4688C516.062 48.8073 516.258 49.2812 516.258 49.8906C516.258 50.625 516 51.1667 515.484 51.5156C514.969 51.8646 514.268 52.0391 513.383 52.0391ZM513.367 51.1016C513.971 51.1016 514.448 51.0026 514.797 50.8047C515.151 50.612 515.328 50.3177 515.328 49.9219C515.328 49.5833 515.208 49.3203 514.969 49.1328C514.729 48.9453 514.268 48.7891 513.586 48.6641L512.398 48.5078C511.617 48.9922 511.227 49.5208 511.227 50.0938C511.227 50.4479 511.393 50.7031 511.727 50.8594C512.06 51.0208 512.607 51.1016 513.367 51.1016ZM513.258 45.2578C513.518 45.2578 513.745 45.2083 513.938 45.1094C514.13 45.0104 514.279 44.8854 514.383 44.7344C514.487 44.5833 514.57 44.3958 514.633 44.1719C514.695 43.9427 514.734 43.7292 514.75 43.5312C514.771 43.3281 514.781 43.0964 514.781 42.8359C514.781 41.2422 514.276 40.4453 513.266 40.4453C513.021 40.4453 512.802 40.4974 512.609 40.6016C512.422 40.7005 512.271 40.8281 512.156 40.9844C512.047 41.1406 511.956 41.3281 511.883 41.5469C511.815 41.7656 511.768 41.9792 511.742 42.1875C511.721 42.3906 511.711 42.6068 511.711 42.8359C511.711 44.4505 512.227 45.2578 513.258 45.2578Z" fill="white"/>
<path d="M593.422 37V24.0469H598.102V24.9844H594.648V29.8359H597.477V30.7422H594.648V36.0859H598.141V37H593.422ZM600.969 37L598.953 27.75H600.141L601.648 35.6484L603.133 27.75H604.273L602.352 37H600.969ZM607.055 37.1484C606.513 37.1484 606.068 36.9505 605.719 36.5547C605.37 36.1536 605.195 35.6589 605.195 35.0703C605.195 34.763 605.221 34.4896 605.273 34.25C605.326 34.0052 605.422 33.776 605.562 33.5625C605.708 33.349 605.865 33.1615 606.031 33C606.203 32.8333 606.445 32.6589 606.758 32.4766C607.07 32.2891 607.383 32.1172 607.695 31.9609C608.008 31.8047 608.417 31.6146 608.922 31.3906V30.7266C608.922 29.8776 608.841 29.2943 608.68 28.9766C608.518 28.6536 608.216 28.4922 607.773 28.4922C606.919 28.4922 606.492 29.0208 606.492 30.0781V30.4141L605.336 30.375C605.336 30.224 605.339 30.1302 605.344 30.0938C605.38 29.224 605.607 28.5938 606.023 28.2031C606.44 27.8073 607.044 27.6094 607.836 27.6094C608.654 27.6094 609.234 27.8516 609.578 28.3359C609.922 28.8203 610.094 29.5964 610.094 30.6641V35.1641C610.094 35.9089 610.122 36.5208 610.18 37H609.141L608.969 35.7188C608.828 36.125 608.589 36.4661 608.25 36.7422C607.917 37.013 607.518 37.1484 607.055 37.1484ZM607.438 36.1406C607.75 36.1406 608.036 36.0339 608.297 35.8203C608.562 35.6016 608.771 35.3438 608.922 35.0469V32.1641C608.891 32.1797 608.841 32.2057 608.773 32.2422C608.518 32.3776 608.323 32.4818 608.188 32.5547C608.052 32.6276 607.888 32.7188 607.695 32.8281C607.508 32.9375 607.367 33.0286 607.273 33.1016C607.18 33.1745 607.07 33.263 606.945 33.3672C606.826 33.4714 606.737 33.5703 606.68 33.6641C606.628 33.7526 606.573 33.8568 606.516 33.9766C606.458 34.0964 606.419 34.224 606.398 34.3594C606.378 34.4896 606.367 34.6354 606.367 34.7969C606.367 35.25 606.469 35.5885 606.672 35.8125C606.875 36.0312 607.13 36.1406 607.438 36.1406ZM611.977 37V24.0469H613.156V37H611.977ZM616.406 37.1406C615.943 37.1406 615.589 36.9688 615.344 36.625C615.099 36.2812 614.977 35.7943 614.977 35.1641V27.75H616.156V34.9219C616.156 35.3906 616.227 35.724 616.367 35.9219C616.508 36.1198 616.729 36.2188 617.031 36.2188C617.557 36.2188 618.104 35.9167 618.672 35.3125V27.75H619.844V37H618.672V35.9766C617.984 36.7526 617.229 37.1406 616.406 37.1406ZM623.242 37.1484C622.701 37.1484 622.255 36.9505 621.906 36.5547C621.557 36.1536 621.383 35.6589 621.383 35.0703C621.383 34.763 621.409 34.4896 621.461 34.25C621.513 34.0052 621.609 33.776 621.75 33.5625C621.896 33.349 622.052 33.1615 622.219 33C622.391 32.8333 622.633 32.6589 622.945 32.4766C623.258 32.2891 623.57 32.1172 623.883 31.9609C624.195 31.8047 624.604 31.6146 625.109 31.3906V30.7266C625.109 29.8776 625.029 29.2943 624.867 28.9766C624.706 28.6536 624.404 28.4922 623.961 28.4922C623.107 28.4922 622.68 29.0208 622.68 30.0781V30.4141L621.523 30.375C621.523 30.224 621.526 30.1302 621.531 30.0938C621.568 29.224 621.794 28.5938 622.211 28.2031C622.628 27.8073 623.232 27.6094 624.023 27.6094C624.841 27.6094 625.422 27.8516 625.766 28.3359C626.109 28.8203 626.281 29.5964 626.281 30.6641V35.1641C626.281 35.9089 626.31 36.5208 626.367 37H625.328L625.156 35.7188C625.016 36.125 624.776 36.4661 624.438 36.7422C624.104 37.013 623.706 37.1484 623.242 37.1484ZM623.625 36.1406C623.938 36.1406 624.224 36.0339 624.484 35.8203C624.75 35.6016 624.958 35.3438 625.109 35.0469V32.1641C625.078 32.1797 625.029 32.2057 624.961 32.2422C624.706 32.3776 624.51 32.4818 624.375 32.5547C624.24 32.6276 624.076 32.7188 623.883 32.8281C623.695 32.9375 623.555 33.0286 623.461 33.1016C623.367 33.1745 623.258 33.263 623.133 33.3672C623.013 33.4714 622.924 33.5703 622.867 33.6641C622.815 33.7526 622.76 33.8568 622.703 33.9766C622.646 34.0964 622.607 34.224 622.586 34.3594C622.565 34.4896 622.555 34.6354 622.555 34.7969C622.555 35.25 622.656 35.5885 622.859 35.8125C623.062 36.0312 623.318 36.1406 623.625 36.1406ZM630.195 37.1172C629.565 37.1172 629.13 36.9453 628.891 36.6016C628.651 36.2526 628.529 35.7448 628.523 35.0781V28.5312H627.406V27.75H628.523V24.8906H629.695V27.75H631.234V28.5312H629.695V34.9688C629.695 35.4375 629.75 35.7604 629.859 35.9375C629.969 36.1094 630.19 36.1953 630.523 36.1953C630.737 36.1953 630.956 36.1745 631.18 36.1328V37.0156C630.831 37.0833 630.503 37.1172 630.195 37.1172ZM632.617 37V27.75H633.789V37H632.617ZM632.617 26.4766V24.8828H633.797V26.4766H632.617ZM638.047 36.2656C638.281 36.2656 638.479 36.224 638.641 36.1406C638.802 36.0521 638.927 35.9427 639.016 35.8125C639.109 35.6823 639.18 35.4974 639.227 35.2578C639.273 35.0182 639.302 34.7891 639.312 34.5703C639.328 34.3516 639.336 34.0677 639.336 33.7188V31.0312C639.336 30.6823 639.328 30.3984 639.312 30.1797C639.302 29.9609 639.273 29.7318 639.227 29.4922C639.18 29.2526 639.109 29.0677 639.016 28.9375C638.927 28.8073 638.802 28.7005 638.641 28.6172C638.479 28.5286 638.281 28.4844 638.047 28.4844C637.849 28.4844 637.677 28.5104 637.531 28.5625C637.385 28.6146 637.266 28.7005 637.172 28.8203C637.078 28.9349 637.003 29.0599 636.945 29.1953C636.888 29.3255 636.844 29.4974 636.812 29.7109C636.786 29.9245 636.768 30.1276 636.758 30.3203C636.753 30.5078 636.75 30.7448 636.75 31.0312V33.7188C636.75 34.0052 636.753 34.2448 636.758 34.4375C636.768 34.625 636.786 34.8255 636.812 35.0391C636.844 35.2526 636.888 35.4271 636.945 35.5625C637.003 35.6927 637.078 35.8177 637.172 35.9375C637.266 36.0521 637.385 36.1354 637.531 36.1875C637.677 36.2396 637.849 36.2656 638.047 36.2656ZM639.242 36.9219C638.919 37.0729 638.521 37.1484 638.047 37.1484C637.573 37.1484 637.174 37.0729 636.852 36.9219C636.529 36.7708 636.273 36.5417 636.086 36.2344C635.904 35.9271 635.773 35.5677 635.695 35.1562C635.617 34.7396 635.578 34.2396 635.578 33.6562V31.0938C635.578 29.9167 635.76 29.0417 636.125 28.4688C636.49 27.8958 637.13 27.6094 638.047 27.6094C638.969 27.6094 639.609 27.8958 639.969 28.4688C640.333 29.0365 640.516 29.9115 640.516 31.0938V33.6562C640.516 34.2396 640.477 34.7396 640.398 35.1562C640.32 35.5677 640.188 35.9271 640 36.2344C639.818 36.5417 639.565 36.7708 639.242 36.9219ZM642.125 37V27.75H643.297V28.7109C643.979 27.9766 644.721 27.6094 645.523 27.6094C645.982 27.6094 646.333 27.7812 646.578 28.125C646.823 28.4635 646.945 28.9479 646.945 29.5781V37H645.773V29.8281C645.773 29.3594 645.701 29.026 645.555 28.8281C645.414 28.6302 645.193 28.5312 644.891 28.5312C644.385 28.5312 643.854 28.8151 643.297 29.3828V37H642.125ZM654.945 37.1641C653.997 37.1641 653.263 36.8854 652.742 36.3281C652.221 35.7708 651.961 35.0651 651.961 34.2109C651.961 33.5495 652.125 32.9167 652.453 32.3125C652.786 31.7031 653.312 31.0495 654.031 30.3516C653.995 30.2943 653.943 30.2083 653.875 30.0938C653.385 29.2656 653.036 28.6146 652.828 28.1406C652.62 27.6615 652.516 27.1615 652.516 26.6406C652.516 25.7865 652.76 25.1172 653.25 24.6328C653.745 24.1484 654.414 23.9062 655.258 23.9062C656.065 23.9062 656.708 24.1146 657.188 24.5312C657.672 24.9427 657.914 25.5052 657.914 26.2188C657.914 26.8906 657.674 27.5703 657.195 28.2578C656.721 28.9453 656.06 29.6745 655.211 30.4453L657.703 34.3828C657.974 33.9974 658.203 33.5026 658.391 32.8984C658.578 32.2891 658.688 31.7396 658.719 31.25H659.844C659.844 31.8385 659.706 32.5052 659.43 33.25C659.159 33.9896 658.815 34.6146 658.398 35.125C658.831 35.6771 659.323 35.9531 659.875 35.9531V37.1094C659.771 37.1094 659.669 37.1016 659.57 37.0859C658.951 37.0443 658.328 36.6458 657.703 35.8906C657.38 36.2656 656.982 36.5729 656.508 36.8125C656.039 37.0469 655.518 37.1641 654.945 37.1641ZM654.953 36.1797C655.693 36.1797 656.385 35.8281 657.031 35.125L654.508 31.1953C654.023 31.7266 653.674 32.237 653.461 32.7266C653.247 33.2109 653.141 33.7057 653.141 34.2109C653.141 34.4609 653.172 34.6979 653.234 34.9219C653.297 35.1458 653.396 35.3542 653.531 35.5469C653.667 35.7396 653.854 35.8932 654.094 36.0078C654.339 36.1224 654.625 36.1797 654.953 36.1797ZM654.781 29.7656C656.099 28.4583 656.758 27.2682 656.758 26.1953C656.758 25.7786 656.622 25.4557 656.352 25.2266C656.081 24.9922 655.711 24.875 655.242 24.875C654.727 24.875 654.336 25.0417 654.07 25.375C653.81 25.7031 653.68 26.1198 653.68 26.625C653.68 27.0885 653.766 27.5547 653.938 28.0234C654.115 28.487 654.396 29.0677 654.781 29.7656ZM609.242 61V48.9844H606.641V48.0469H613.008V48.9844H610.469V61H609.242ZM616.156 61.1484C615.271 61.1484 614.633 60.875 614.242 60.3281C613.852 59.7812 613.656 58.8464 613.656 57.5234V55.1875C613.656 54.2865 613.747 53.5729 613.93 53.0469C614.117 52.5156 614.388 52.1432 614.742 51.9297C615.102 51.7161 615.576 51.6094 616.164 51.6094C616.555 51.6094 616.888 51.6615 617.164 51.7656C617.44 51.8646 617.669 52.0078 617.852 52.1953C618.034 52.3828 618.177 52.638 618.281 52.9609C618.391 53.2786 618.466 53.6328 618.508 54.0234C618.549 54.4089 618.57 54.875 618.57 55.4219L618.562 56.2578H614.828V57.6406C614.828 58.599 614.919 59.276 615.102 59.6719C615.289 60.0677 615.638 60.2656 616.148 60.2656C616.555 60.2656 616.867 60.138 617.086 59.8828C617.305 59.6224 617.414 59.1536 617.414 58.4766V57.8359H618.562V58.3516C618.562 59.2474 618.375 59.9375 618 60.4219C617.625 60.9062 617.01 61.1484 616.156 61.1484ZM614.828 55.5859H617.414V54.8203C617.414 54.4974 617.406 54.2292 617.391 54.0156C617.375 53.8021 617.341 53.5911 617.289 53.3828C617.242 53.1693 617.174 53.0026 617.086 52.8828C616.997 52.763 616.875 52.6667 616.719 52.5938C616.562 52.5208 616.375 52.4844 616.156 52.4844C615.661 52.4844 615.315 52.6562 615.117 53C614.924 53.3438 614.828 53.9974 614.828 54.9609V55.5859ZM622.273 61.1484C621.539 61.1484 620.951 60.9115 620.508 60.4375C620.07 59.9635 619.82 59.3229 619.758 58.5156L620.742 58.2188C620.805 58.9219 620.966 59.4401 621.227 59.7734C621.487 60.1016 621.852 60.2656 622.32 60.2656C622.727 60.2656 623.047 60.1458 623.281 59.9062C623.505 59.6771 623.617 59.3698 623.617 58.9844C623.617 58.9688 623.617 58.9505 623.617 58.9297C623.602 58.3151 623.227 57.7005 622.492 57.0859L621.234 56.0156C620.792 55.6458 620.469 55.2839 620.266 54.9297C620.068 54.5859 619.969 54.1849 619.969 53.7266C619.969 53.0495 620.172 52.526 620.578 52.1562C620.974 51.7917 621.508 51.6094 622.18 51.6094C622.862 51.6094 623.385 51.8281 623.75 52.2656C624.12 52.7031 624.326 53.2943 624.367 54.0391L623.539 54.3125C623.503 53.6927 623.375 53.2344 623.156 52.9375C622.943 52.6354 622.633 52.4844 622.227 52.4844C621.862 52.4844 621.57 52.5859 621.352 52.7891C621.138 52.987 621.031 53.2526 621.031 53.5859C621.031 53.888 621.086 54.1484 621.195 54.3672C621.305 54.5807 621.505 54.8125 621.797 55.0625L623.102 56.2344C623.336 56.4375 623.526 56.6172 623.672 56.7734C623.823 56.9245 623.982 57.1146 624.148 57.3438C624.315 57.5677 624.438 57.8125 624.516 58.0781C624.599 58.3385 624.643 58.6198 624.648 58.9219C624.648 59.6302 624.435 60.1797 624.008 60.5703C623.581 60.9557 623.003 61.1484 622.273 61.1484ZM628.164 61.1172C627.534 61.1172 627.099 60.9453 626.859 60.6016C626.62 60.2526 626.497 59.7448 626.492 59.0781V52.5312H625.375V51.75H626.492V48.8906H627.664V51.75H629.203V52.5312H627.664V58.9688C627.664 59.4375 627.719 59.7604 627.828 59.9375C627.938 60.1094 628.159 60.1953 628.492 60.1953C628.706 60.1953 628.924 60.1745 629.148 60.1328V61.0156C628.799 61.0833 628.471 61.1172 628.164 61.1172ZM630.586 61V51.75H631.758V61H630.586ZM630.586 50.4766V48.8828H631.766V50.4766H630.586ZM633.719 61V51.75H634.891V52.7109C635.573 51.9766 636.315 51.6094 637.117 51.6094C637.576 51.6094 637.927 51.7812 638.172 52.125C638.417 52.4635 638.539 52.9479 638.539 53.5781V61H637.367V53.8281C637.367 53.3594 637.294 53.026 637.148 52.8281C637.008 52.6302 636.786 52.5312 636.484 52.5312C635.979 52.5312 635.448 52.8151 634.891 53.3828V61H633.719ZM642.805 64.0391C642.315 64.0391 641.883 64.013 641.508 63.9609C641.138 63.9089 640.81 63.8229 640.523 63.7031C640.237 63.5833 640.018 63.4193 639.867 63.2109C639.716 63.0078 639.641 62.763 639.641 62.4766C639.641 62.0286 639.789 61.6172 640.086 61.2422C640.383 60.8724 640.745 60.5755 641.172 60.3516C640.891 60.2734 640.648 60.1615 640.445 60.0156C640.242 59.8646 640.141 59.7031 640.141 59.5312C640.141 59.0417 640.508 58.4193 641.242 57.6641C640.471 57.1016 640.086 56.1589 640.086 54.8359C640.086 54.388 640.138 53.974 640.242 53.5938C640.346 53.2083 640.5 52.8672 640.703 52.5703C640.911 52.2682 641.182 52.0339 641.516 51.8672C641.849 51.6953 642.232 51.6094 642.664 51.6094C643.596 51.6094 644.26 51.9922 644.656 52.7578C644.755 52.5859 644.922 52.401 645.156 52.2031C645.391 52 645.641 51.8411 645.906 51.7266L646.148 51.625L646.461 52.4453C646.206 52.5078 645.919 52.6198 645.602 52.7812C645.289 52.9427 645.068 53.099 644.938 53.25C645.016 53.4375 645.083 53.6979 645.141 54.0312C645.203 54.3646 645.234 54.6432 645.234 54.8672C645.234 55.862 645.029 56.651 644.617 57.2344C644.211 57.8125 643.565 58.1016 642.68 58.1016C642.539 58.1016 642.367 58.0859 642.164 58.0547C641.961 58.0182 641.82 57.9844 641.742 57.9531C641.727 57.9792 641.667 58.0677 641.562 58.2188C641.464 58.3698 641.388 58.487 641.336 58.5703C641.289 58.6484 641.24 58.7474 641.188 58.8672C641.135 58.9818 641.109 59.0781 641.109 59.1562C641.109 59.3073 641.367 59.4245 641.883 59.5078C641.992 59.5391 642.253 59.5859 642.664 59.6484C643.076 59.7057 643.31 59.7422 643.367 59.7578C644.128 59.8932 644.703 60.1302 645.094 60.4688C645.484 60.8073 645.68 61.2812 645.68 61.8906C645.68 62.625 645.422 63.1667 644.906 63.5156C644.391 63.8646 643.69 64.0391 642.805 64.0391ZM642.789 63.1016C643.393 63.1016 643.87 63.0026 644.219 62.8047C644.573 62.612 644.75 62.3177 644.75 61.9219C644.75 61.5833 644.63 61.3203 644.391 61.1328C644.151 60.9453 643.69 60.7891 643.008 60.6641L641.82 60.5078C641.039 60.9922 640.648 61.5208 640.648 62.0938C640.648 62.4479 640.815 62.7031 641.148 62.8594C641.482 63.0208 642.029 63.1016 642.789 63.1016ZM642.68 57.2578C642.94 57.2578 643.167 57.2083 643.359 57.1094C643.552 57.0104 643.701 56.8854 643.805 56.7344C643.909 56.5833 643.992 56.3958 644.055 56.1719C644.117 55.9427 644.156 55.7292 644.172 55.5312C644.193 55.3281 644.203 55.0964 644.203 54.8359C644.203 53.2422 643.698 52.4453 642.688 52.4453C642.443 52.4453 642.224 52.4974 642.031 52.6016C641.844 52.7005 641.693 52.8281 641.578 52.9844C641.469 53.1406 641.378 53.3281 641.305 53.5469C641.237 53.7656 641.19 53.9792 641.164 54.1875C641.143 54.3906 641.133 54.6068 641.133 54.8359C641.133 56.4505 641.648 57.2578 642.68 57.2578Z" fill="white"/>
<path d="M130 34L127.885 35.41L136.255 41H118V43H136.255L127.885 48.59L130 50L142 42L130 34Z" fill="#2B2D33"/>
<path d="M272 34L269.885 35.41L278.255 41H260V43H278.255L269.885 48.59L272 50L284 42L272 34Z" fill="#2B2D33"/>
<path d="M414 34L411.885 35.41L420.255 41H402V43H420.255L411.885 48.59L414 50L426 42L414 34Z" fill="#2B2D33"/>
<path d="M556 34L553.885 35.41L562.255 41H544V43H562.255L553.885 48.59L556 50L568 42L556 34Z" fill="#2B2D33"/>
</svg>
