<svg xmlns="http://www.w3.org/2000/svg" xmlns:xlink="http://www.w3.org/1999/xlink" version="1.1" x="0px" y="0px" stroke="black" stroke-width="7" viewBox="0 0 512 640" enable-background="new 0 0 512 512" xml:space="preserve"><g><g><g><path d="M260,439c-78.851,0-143-64.149-143-143c0-78.469,64.143-142.619,142.985-143c0.005,0,0.01,0,0.015,0     c0.793,0,1.554,0.314,2.116,0.874c0.565,0.563,0.884,1.328,0.884,2.126v137h137c0.798,0,1.563,0.318,2.126,0.884     c0.563,0.565,0.878,1.333,0.874,2.131C402.619,374.857,338.47,439,260,439z M257,159.047C182.833,161.003,123,221.823,123,296     c0,75.542,61.458,137,137,137c74.177,0,134.997-59.833,136.953-134H260c-1.657,0-3-1.343-3-3V159.047z"/></g><g><path d="M112.673,181.673c-0.793,0-1.557-0.314-2.121-0.879l-22.623-22.623c-1.116-1.116-1.177-2.906-0.139-4.095l0.41-0.469     c0.394-0.453,0.788-0.905,1.189-1.355c2.698-3.025,5.422-5.915,8.099-8.592c3.388-3.355,6.961-6.664,10.63-9.844     c1.188-1.031,2.973-0.968,4.086,0.146l21.846,21.846c0.577,0.576,0.894,1.362,0.878,2.177s-0.361,1.588-0.958,2.143     c-6.796,6.31-13.173,13.179-18.953,20.417c-0.533,0.667-1.325,1.076-2.177,1.123     C112.784,181.671,112.729,181.673,112.673,181.673z M94.16,155.917l18.283,18.283c4.732-5.717,9.821-11.192,15.181-16.333     l-17.674-17.674c-2.833,2.521-5.593,5.11-8.23,7.721C99.229,150.403,96.685,153.097,94.16,155.917z"/></g><g><path d="M59.513,205.742c-0.599,0-1.19-0.179-1.694-0.524c-3.132-2.143-6.166-4.716-9.548-8.099     c-28.266-28.266-28.269-74.4-0.007-102.842C61.988,80.554,80.25,73,99.695,73s37.708,7.554,51.424,21.271     c2.874,2.874,5.584,6.065,8.056,9.486c0.522,0.722,0.696,1.639,0.475,2.501c-0.221,0.863-0.814,1.583-1.619,1.965     c-16.476,7.825-31.947,17.961-45.981,30.127c-3.565,3.09-7.041,6.308-10.328,9.563c-2.579,2.578-5.224,5.384-7.852,8.331     c-0.407,0.456-0.806,0.916-1.206,1.375l-0.351,0.403c-12.026,13.813-22.15,29.292-30.089,46.007     c-0.376,0.792-1.081,1.38-1.928,1.609C60.038,205.708,59.775,205.742,59.513,205.742z M99.695,79     c-17.842,0-34.598,6.93-47.182,19.513c-25.93,26.095-25.934,68.429,0,94.363c2.076,2.075,3.995,3.81,5.878,5.308     c7.92-15.96,17.799-30.783,29.396-44.104l0.348-0.4c0.416-0.479,0.833-0.957,1.256-1.431c2.703-3.031,5.428-5.921,8.097-8.589     c3.392-3.358,6.965-6.667,10.63-9.844c13.5-11.702,28.295-21.582,44.023-29.402c-1.669-2.092-3.433-4.068-5.266-5.902     C134.293,85.93,117.538,79,99.695,79z"/></g><g><path d="M408.707,181.673c-0.056,0-0.111-0.001-0.167-0.005c-0.853-0.047-1.645-0.456-2.178-1.123     c-5.781-7.24-12.157-14.11-18.952-20.417c-0.598-0.555-0.943-1.328-0.958-2.143c-0.016-0.814,0.302-1.601,0.878-2.177     l21.193-21.195c1.115-1.115,2.908-1.177,4.096-0.137c3.558,3.111,6.79,6.112,9.882,9.174c2.686,2.686,5.41,5.576,8.108,8.601     c0.762,0.854,1.514,1.715,2.257,2.578c1.025,1.189,0.959,2.969-0.151,4.079l-21.887,21.887     C410.265,181.358,409.5,181.673,408.707,181.673z M393.756,157.867c5.359,5.14,10.448,10.615,15.182,16.333l17.553-17.553     c-0.119-0.135-0.238-0.269-0.358-0.403c-2.622-2.94-5.268-5.747-7.862-8.342c-2.377-2.353-4.849-4.677-7.499-7.051     L393.756,157.867z"/></g><g><path d="M460.488,205.742c-0.262,0-0.524-0.034-0.781-0.104c-0.848-0.229-1.552-0.817-1.929-1.609     c-7.808-16.438-17.719-31.673-29.457-45.284c-0.724-0.839-1.451-1.673-2.19-2.501c-2.663-2.987-5.234-5.715-7.861-8.341     c-2.993-2.964-6.137-5.882-9.6-8.911c-0.128-0.112-0.258-0.229-0.388-0.347c-0.108-0.099-0.217-0.197-0.327-0.292     c-14.036-12.168-29.507-22.304-45.984-30.129c-0.805-0.382-1.397-1.102-1.619-1.965c-0.221-0.863-0.047-1.779,0.474-2.501     c2.469-3.417,5.179-6.609,8.056-9.486C382.598,80.554,400.86,73,420.305,73s37.707,7.554,51.424,21.27     c28.271,28.448,28.268,74.583,0.001,102.849c-3.383,3.383-6.417,5.957-9.547,8.099     C461.679,205.563,461.087,205.742,460.488,205.742z M367.858,104.414c15.729,7.82,30.524,17.7,44.023,29.403     c0.144,0.124,0.289,0.255,0.434,0.387l0.301,0.27c3.561,3.114,6.793,6.115,9.885,9.177c2.682,2.68,5.406,5.571,8.108,8.601     c0.761,0.853,1.512,1.713,2.256,2.577c11.306,13.109,20.965,27.681,28.744,43.356c1.883-1.497,3.803-3.232,5.878-5.307     c25.934-25.934,25.931-68.268-0.008-94.37C454.902,85.93,438.146,79,420.305,79s-34.598,6.93-47.182,19.513     C371.288,100.348,369.526,102.324,367.858,104.414z"/></g><g><path d="M240,111.511c-0.736,0-1.45-0.271-2.003-0.767c-0.634-0.569-0.997-1.381-0.997-2.233V66c0-1.657,1.343-3,3-3h40     c1.657,0,3,1.343,3,3v42.361c0,0.848-0.359,1.657-0.988,2.226c-0.631,0.569-1.467,0.844-2.314,0.759     c-6.323-0.642-12.719-0.967-19.008-0.967c-6.712,0-13.564,0.375-20.365,1.114C240.216,111.505,240.107,111.511,240,111.511z      M243,69v36.195c11.396-1.043,22.677-1.081,34-0.126V69H243z"/></g><g><path d="M260.689,489c-106.041,0-192.311-86.271-192.311-192.311c0-44.057,14.506-85.514,41.95-119.888     c5.965-7.471,12.546-14.561,19.56-21.071c30.54-28.352,68.503-45.711,109.788-50.202c7.016-0.763,14.086-1.149,21.014-1.149     c6.49,0,13.09,0.335,19.613,0.997c41.823,4.241,80.272,21.653,111.188,50.354c7.016,6.513,13.597,13.602,19.56,21.071     C438.494,211.176,453,252.633,453,296.689C453,402.729,366.729,489,260.689,489z M260.689,110.379     c-6.712,0-13.564,0.375-20.365,1.114c-39.991,4.35-76.768,21.167-106.354,48.635c-6.796,6.309-13.173,13.178-18.953,20.417     c-26.585,33.3-40.638,73.462-40.638,116.145C74.379,399.422,157.958,483,260.689,483C363.422,483,447,399.422,447,296.689     c0-42.682-14.053-82.844-40.639-116.145c-5.777-7.236-12.154-14.105-18.952-20.417c-29.952-27.806-67.198-44.675-107.712-48.782     C273.374,110.704,266.979,110.379,260.689,110.379z"/></g><g><path d="M290,69h-60c-12.682,0-23-10.318-23-23s10.318-23,23-23h60c12.683,0,23,10.318,23,23S302.683,69,290,69z M230,29     c-9.374,0-17,7.626-17,17s7.626,17,17,17h60c9.374,0,17-7.626,17-17s-7.626-17-17-17H230z"/></g></g></g></svg>