<svg xmlns="http://www.w3.org/2000/svg" xmlns:xlink="http://www.w3.org/1999/xlink" version="1.1" x="0px" y="0px" viewBox="0 0 1024 1280" 
stroke="black" stroke-width="8"
style="enable-background:new 0 0 1024 1024;" xml:space="preserve"><g><g><g><path d="M603.3,344.1c-24.6,0-49.3,0-73.9,0c-33.5,0-67,0-100.5,0c-2.7,0-5.3,0-8,0c-1,0-1.9-0.1-2.9-0.1     c2.9,0.2-0.9-0.3-1.9-0.5c-0.4-0.1-3.1-1-1.3-0.3c1.7,0.6-1.7-0.9-1.7-0.9c-0.6-0.4-3.9-2.6-2.8-1.7c1.3,1.1-0.3-0.3-0.5-0.5     c-0.5-0.6-1.2-1.3-1.8-1.8c-0.4-0.4-1.7-2.2-0.1,0.1c-0.4-0.5-0.8-1.1-1.1-1.6c-0.4-0.7-0.9-1.5-1.3-2.2     c-0.4-0.7-1.1-3.3-0.3-0.6c-0.5-1.5-0.9-2.9-1.2-4.5c-0.4-1.7,0.1,0.4,0.1,0.7c0-0.9-0.1-1.8-0.1-2.7c0-0.2,0-0.3,0-0.5     c0-1,0-2,0-3c0-4.7,0-9.4,0-14.1c0-36,0-72,0-108c0-15.2,0-30.3,0-45.5c0-3.5,0-7,0-10.4c0-0.3,0-0.6,0-0.9c0-0.6,0.2-3.8,0-2.3     c-0.2,1.5,0.7-2.5,0.8-3.2c0.5-2.5,0.2-0.9-0.1-0.1c0.3-0.6,0.5-1.2,0.9-1.7c0.7-1.3,1.5-2.6,2.4-3.8c-1.7,2.4,1.8-1.6,2.4-2.2     c1.2-1.1-0.3,0.2-0.5,0.3c0.7-0.5,1.4-1,2.2-1.4c0.7-0.4,1.5-0.8,2.3-1.2c0.2-0.1,2.2-0.9,0.6-0.3c-1.4,0.5,2.5-0.6,3.2-0.8     c2.7-0.8,0.7-0.1,0-0.1c0.9-0.1,1.8-0.1,2.7-0.1c0.6,0,1.1,0,1.7,0c3.8,0,7.6,0,11.5,0c15.6,0,31.2,0,46.7,0c35.7,0,71.3,0,107,0     c4.3,0,8.6,0,13,0c0.9,0,1.7,0,2.6,0c0.6,0,4.1,0.2,2.3,0c-1.3-0.1,2.4,0.7,3.2,0.8c0.5,0.1,2.8,1,0.1-0.1     c0.8,0.3,1.6,0.7,2.3,1.2c0.7,0.4,4.5,3.3,2.3,1.3c1.1,1,2.2,2,3.2,3.1c1.1,1.2-0.2-0.3-0.3-0.5c0.5,0.7,1,1.4,1.4,2.2     c0.6,0.9,2.1,5,1.3,2.3c0.5,1.5,0.9,3,1.2,4.5c0.5,2.2,0.1-2.3,0,0c0,0.7,0.1,1.4,0.1,2.1c0,0.2,0,0.3,0,0.5c0,3,0,6.1,0,9.1     c0,34,0,68.1,0,102.1c0,16.8,0,33.7,0,50.5c0,5.1,0,10.3,0,15.4c0,1.3,0,2.6,0,3.9c0,1.3-0.4,5.2,0.1,2.5c-0.3,1.5-0.7,3-1.1,4.5     c-0.5,1.6,0.2-0.3,0.3-0.5c-0.3,0.8-0.7,1.6-1.2,2.3c-0.4,0.8-0.9,1.5-1.3,2.2c-0.1,0.2-1.4,1.9-0.4,0.6c0.9-1.1-1.8,1.8-2.3,2.3     c-1.8,1.9-0.6,0.5,0.1,0.1c-0.7,0.5-1.4,1-2.2,1.4c-0.6,0.4-4.2,2-2.9,1.5c1.2-0.5-2.4,0.6-3.2,0.8c-0.7,0.2-2.8,0.3,0,0.1     C605.1,344,604.2,344.1,603.3,344.1c-7.8,0.2-15.4,6.8-15,15c0.4,8,6.6,15.2,15,15c27.2-0.6,46.8-22.4,46.8-49     c0-11.8,0-23.6,0-35.3c0-38.6,0-77.1,0-115.7c0-9.6,0.1-19.3,0-28.9c-0.4-26.3-21.2-47-47.6-47.2c-29.5-0.2-59,0-88.5,0     c-30.6,0-61.1-0.1-91.7,0c-26.4,0.1-47.9,20.1-48.4,46.8c-0.1,8.6,0,17.3,0,25.9c0,38.3,0,76.6,0,114.8c0,12.7,0,25.4,0,38.2     c0,5.9,0.3,11.9,2.1,17.5c5.1,16,19.1,29.3,35.9,32c9.7,1.6,19.7,0.9,29.5,0.9c17.7,0,35.4,0,53.2,0c34.2,0,68.4,0,102.6,0     c2,0,4.1,0,6.1,0c7.8,0,15.4-6.9,15-15C617.9,351,611.7,344.1,603.3,344.1z"/></g></g><g><g><path d="M603.3,896.1c-24.6,0-49.3,0-73.9,0c-33.5,0-67,0-100.5,0c-2.7,0-5.3,0-8,0c-1,0-1.9-0.1-2.9-0.1     c2.9,0.2-0.9-0.3-1.9-0.5c-0.4-0.1-3.1-1-1.3-0.3c1.7,0.6-1.7-0.9-1.7-0.9c-0.6-0.4-3.9-2.6-2.8-1.7c1.3,1.1-0.3-0.3-0.5-0.5     c-0.5-0.6-1.2-1.3-1.8-1.8c-0.4-0.4-1.7-2.2-0.1,0.1c-0.4-0.5-0.8-1.1-1.1-1.6c-0.4-0.7-0.9-1.5-1.3-2.2     c-0.4-0.7-1.1-3.3-0.3-0.6c-0.5-1.5-0.9-2.9-1.2-4.5c-0.4-1.7,0.1,0.4,0.1,0.7c0-0.9-0.1-1.8-0.1-2.7c0-0.2,0-0.3,0-0.5     c0-1,0-2,0-3c0-4.7,0-9.4,0-14.1c0-36,0-72,0-108c0-15.2,0-30.3,0-45.5c0-3.5,0-7,0-10.4c0-0.3,0-0.6,0-0.9c0-0.6,0.2-3.8,0-2.3     c-0.2,1.5,0.7-2.5,0.8-3.2c0.5-2.5,0.2-0.9-0.1-0.1c0.3-0.6,0.5-1.2,0.9-1.7c0.7-1.3,1.5-2.6,2.4-3.8c-1.7,2.4,1.8-1.6,2.4-2.2     c1.2-1.1-0.3,0.2-0.5,0.3c0.7-0.5,1.4-1,2.2-1.4c0.7-0.4,1.5-0.8,2.3-1.2c0.2-0.1,2.2-0.9,0.6-0.3c-1.4,0.5,2.5-0.6,3.2-0.8     c2.7-0.8,0.7-0.1,0-0.1c0.9-0.1,1.8-0.1,2.7-0.1c0.6,0,1.1,0,1.7,0c3.8,0,7.6,0,11.5,0c15.6,0,31.2,0,46.7,0c35.7,0,71.3,0,107,0     c4.3,0,8.6,0,13,0c0.9,0,1.7,0,2.6,0c0.6,0,4.1,0.2,2.3,0c-1.3-0.1,2.4,0.7,3.2,0.8c0.5,0.1,2.8,1,0.1-0.1     c0.8,0.3,1.6,0.7,2.3,1.2c0.7,0.4,4.5,3.3,2.3,1.3c1.1,1,2.2,2,3.2,3.1c1.1,1.2-0.2-0.3-0.3-0.5c0.5,0.7,1,1.4,1.4,2.2     c0.6,0.9,2.1,5,1.3,2.3c0.5,1.5,0.9,3,1.2,4.5c0.5,2.2,0.1-2.3,0,0c0,0.7,0.1,1.4,0.1,2.1c0,0.2,0,0.3,0,0.5c0,3,0,6.1,0,9.1     c0,34,0,68.1,0,102.1c0,16.8,0,33.7,0,50.5c0,5.1,0,10.3,0,15.4c0,1.3,0,2.6,0,3.9c0,1.3-0.4,5.2,0.1,2.5c-0.3,1.5-0.7,3-1.1,4.5     c-0.5,1.6,0.2-0.3,0.3-0.5c-0.3,0.8-0.7,1.6-1.2,2.3c-0.4,0.8-0.9,1.5-1.3,2.2c-0.1,0.2-1.4,1.9-0.4,0.6c0.9-1.1-1.8,1.8-2.3,2.3     c-1.8,1.9-0.6,0.5,0.1,0.1c-0.7,0.5-1.4,1-2.2,1.4c-0.6,0.4-4.2,2-2.9,1.5c1.2-0.5-2.4,0.6-3.2,0.8c-0.7,0.2-2.8,0.3,0,0.1     C605.1,896,604.2,896.1,603.3,896.1c-7.8,0.2-15.4,6.8-15,15c0.4,8,6.6,15.2,15,15c27.2-0.6,46.8-22.4,46.8-49     c0-11.8,0-23.6,0-35.3c0-38.6,0-77.1,0-115.7c0-9.6,0.1-19.3,0-28.9c-0.4-26.3-21.2-47-47.6-47.2c-29.5-0.2-59,0-88.5,0     c-30.6,0-61.1-0.1-91.7,0c-26.4,0.1-47.9,20.1-48.4,46.8c-0.1,8.6,0,17.3,0,25.9c0,38.3,0,76.6,0,114.8c0,12.7,0,25.4,0,38.2     c0,5.9,0.3,11.9,2.1,17.5c5.1,16,19.1,29.3,35.9,32c9.7,1.6,19.7,0.9,29.5,0.9c17.7,0,35.4,0,53.2,0c34.2,0,68.4,0,102.6,0     c2,0,4.1,0,6.1,0c7.8,0,15.4-6.9,15-15C617.9,903,611.7,896.1,603.3,896.1z"/></g></g><g><g><path d="M254.4,896.1c-24.6,0-49.3,0-73.9,0c-33.5,0-67,0-100.5,0c-2.7,0-5.3,0-8,0c-1,0-1.9-0.1-2.9-0.1     c2.9,0.2-0.9-0.3-1.9-0.5c-0.4-0.1-3.1-1-1.3-0.3c1.7,0.6-1.7-0.9-1.7-0.9c-0.6-0.4-3.9-2.6-2.8-1.7c1.3,1.1-0.3-0.3-0.5-0.5     c-0.5-0.6-1.2-1.3-1.8-1.8c-0.4-0.4-1.7-2.2-0.1,0.1c-0.4-0.5-0.8-1.1-1.1-1.6c-0.4-0.7-0.9-1.5-1.3-2.2     c-0.4-0.7-1.1-3.3-0.3-0.6c-0.5-1.5-0.9-2.9-1.2-4.5c-0.4-1.7,0.1,0.4,0.1,0.7c0-0.9-0.1-1.8-0.1-2.7c0-0.2,0-0.3,0-0.5     c0-1,0-2,0-3c0-4.7,0-9.4,0-14.1c0-36,0-72,0-108c0-15.2,0-30.3,0-45.5c0-3.5,0-7,0-10.4c0-0.3,0-0.6,0-0.9c0-0.6,0.2-3.8,0-2.3     c-0.2,1.5,0.7-2.5,0.8-3.2c0.5-2.5,0.2-0.9-0.1-0.1c0.3-0.6,0.5-1.2,0.9-1.7c0.7-1.3,1.5-2.6,2.4-3.8c-1.7,2.4,1.8-1.6,2.4-2.2     c1.2-1.1-0.3,0.2-0.5,0.3c0.7-0.5,1.4-1,2.2-1.4c0.7-0.4,1.5-0.8,2.3-1.2c0.2-0.1,2.2-0.9,0.6-0.3c-1.4,0.5,2.5-0.6,3.2-0.8     c2.7-0.8,0.7-0.1,0-0.1c0.9-0.1,1.8-0.1,2.7-0.1c0.6,0,1.1,0,1.7,0c3.8,0,7.6,0,11.5,0c15.6,0,31.2,0,46.7,0c35.7,0,71.3,0,107,0     c4.3,0,8.6,0,13,0c0.9,0,1.7,0,2.6,0c0.6,0,4.1,0.2,2.3,0c-1.3-0.1,2.4,0.7,3.2,0.8c0.5,0.1,2.8,1,0.1-0.1     c0.8,0.3,1.6,0.7,2.3,1.2c0.7,0.4,4.5,3.3,2.3,1.3c1.1,1,2.2,2,3.2,3.1c1.1,1.2-0.2-0.3-0.3-0.5c0.5,0.7,1,1.4,1.4,2.2     c0.6,0.9,2.1,5,1.3,2.3c0.5,1.5,0.9,3,1.2,4.5c0.5,2.2,0.1-2.3,0,0c0,0.7,0.1,1.4,0.1,2.1c0,0.2,0,0.3,0,0.5c0,3,0,6.1,0,9.1     c0,34,0,68.1,0,102.1c0,16.8,0,33.7,0,50.5c0,5.1,0,10.3,0,15.4c0,1.3,0,2.6,0,3.9c0,1.3-0.4,5.2,0.1,2.5c-0.3,1.5-0.7,3-1.1,4.5     c-0.5,1.6,0.2-0.3,0.3-0.5c-0.3,0.8-0.7,1.6-1.2,2.3c-0.4,0.8-0.9,1.5-1.3,2.2c-0.1,0.2-1.4,1.9-0.4,0.6c0.9-1.1-1.8,1.8-2.3,2.3     c-1.8,1.9-0.6,0.5,0.1,0.1c-0.7,0.5-1.4,1-2.2,1.4c-0.6,0.4-4.2,2-2.9,1.5c1.2-0.5-2.4,0.6-3.2,0.8c-0.7,0.2-2.8,0.3,0,0.1     C256.2,896,255.3,896.1,254.4,896.1c-7.8,0.2-15.4,6.8-15,15c0.4,8,6.6,15.2,15,15c27.2-0.6,46.8-22.4,46.8-49     c0-11.8,0-23.6,0-35.3c0-38.6,0-77.1,0-115.7c0-9.6,0.1-19.3,0-28.9c-0.4-26.3-21.2-47-47.6-47.2c-29.5-0.2-59,0-88.5,0     c-30.6,0-61.1-0.1-91.7,0C47,650,25.5,670,25,696.8c-0.1,8.6,0,17.3,0,25.9c0,38.3,0,76.6,0,114.8c0,12.7,0,25.4,0,38.2     c0,5.9,0.3,11.9,2.1,17.5c5.1,16,19.1,29.3,35.9,32c9.7,1.6,19.7,0.9,29.5,0.9c17.7,0,35.4,0,53.2,0c34.2,0,68.4,0,102.6,0     c2,0,4.1,0,6.1,0c7.8,0,15.4-6.9,15-15C269,903,262.8,896.1,254.4,896.1z"/></g></g><g><g><path d="M952.2,896.1c-24.6,0-49.3,0-73.9,0c-33.5,0-67,0-100.5,0c-2.7,0-5.3,0-8,0c-1,0-1.9-0.1-2.9-0.1     c2.9,0.2-0.9-0.3-1.9-0.5c-0.4-0.1-3.1-1-1.3-0.3c1.7,0.6-1.7-0.9-1.7-0.9c-0.6-0.4-3.9-2.6-2.8-1.7c1.3,1.1-0.3-0.3-0.5-0.5     c-0.5-0.6-1.2-1.3-1.8-1.8c-0.4-0.4-1.7-2.2-0.1,0.1c-0.4-0.5-0.8-1.1-1.1-1.6c-0.4-0.7-0.9-1.5-1.3-2.2     c-0.4-0.7-1.1-3.3-0.3-0.6c-0.5-1.5-0.9-2.9-1.2-4.5c-0.4-1.7,0.1,0.4,0.1,0.7c0-0.9-0.1-1.8-0.1-2.7c0-0.2,0-0.3,0-0.5     c0-1,0-2,0-3c0-4.7,0-9.4,0-14.1c0-36,0-72,0-108c0-15.2,0-30.3,0-45.5c0-3.5,0-7,0-10.4c0-0.3,0-0.6,0-0.9c0-0.6,0.2-3.8,0-2.3     c-0.2,1.5,0.7-2.5,0.8-3.2c0.5-2.5,0.2-0.9-0.1-0.1c0.3-0.6,0.5-1.2,0.9-1.7c0.7-1.3,1.5-2.6,2.4-3.8c-1.7,2.4,1.8-1.6,2.4-2.2     c1.2-1.1-0.3,0.2-0.5,0.3c0.7-0.5,1.4-1,2.2-1.4c0.7-0.4,1.5-0.8,2.3-1.2c0.2-0.1,2.2-0.9,0.6-0.3c-1.4,0.5,2.5-0.6,3.2-0.8     c2.7-0.8,0.7-0.1,0-0.1c0.9-0.1,1.8-0.1,2.7-0.1c0.6,0,1.1,0,1.7,0c3.8,0,7.6,0,11.5,0c15.6,0,31.2,0,46.7,0c35.7,0,71.3,0,107,0     c4.3,0,8.6,0,13,0c0.9,0,1.7,0,2.6,0c0.6,0,4.1,0.2,2.3,0c-1.3-0.1,2.4,0.7,3.2,0.8c0.5,0.1,2.8,1,0.1-0.1     c0.8,0.3,1.6,0.7,2.3,1.2c0.7,0.4,4.5,3.3,2.3,1.3c1.1,1,2.2,2,3.2,3.1c1.1,1.2-0.2-0.3-0.3-0.5c0.5,0.7,1,1.4,1.4,2.2     c0.6,0.9,2.1,5,1.3,2.3c0.5,1.5,0.9,3,1.2,4.5c0.5,2.2,0.1-2.3,0,0c0,0.7,0.1,1.4,0.1,2.1c0,0.2,0,0.3,0,0.5c0,3,0,6.1,0,9.1     c0,34,0,68.1,0,102.1c0,16.8,0,33.7,0,50.5c0,5.1,0,10.3,0,15.4c0,1.3,0,2.6,0,3.9c0,1.3-0.4,5.2,0.1,2.5c-0.3,1.5-0.7,3-1.1,4.5     c-0.5,1.6,0.2-0.3,0.3-0.5c-0.3,0.8-0.7,1.6-1.2,2.3c-0.4,0.8-0.9,1.5-1.3,2.2c-0.1,0.2-1.4,1.9-0.4,0.6c0.9-1.1-1.8,1.8-2.3,2.3     c-1.8,1.9-0.6,0.5,0.1,0.1c-0.7,0.5-1.4,1-2.2,1.4c-0.6,0.4-4.2,2-2.9,1.5c1.2-0.5-2.4,0.6-3.2,0.8c-0.7,0.2-2.8,0.3,0,0.1     C954,896,953.1,896.1,952.2,896.1c-7.8,0.2-15.4,6.8-15,15c0.4,8,6.6,15.2,15,15c27.2-0.6,46.8-22.4,46.8-49     c0-11.8,0-23.6,0-35.3c0-38.6,0-77.1,0-115.7c0-9.6,0.1-19.3,0-28.9c-0.4-26.3-21.2-47-47.6-47.2c-29.5-0.2-59,0-88.5,0     c-30.6,0-61.1-0.1-91.7,0c-26.4,0.1-47.9,20.1-48.4,46.8c-0.1,8.6,0,17.3,0,25.9c0,38.3,0,76.6,0,114.8c0,12.7,0,25.4,0,38.2     c0,5.9,0.3,11.9,2.1,17.5c5.1,16,19.1,29.3,35.9,32c9.7,1.6,19.7,0.9,29.5,0.9c17.7,0,35.4,0,53.2,0c34.2,0,68.4,0,102.6,0     c2,0,4.1,0,6.1,0c7.8,0,15.4-6.9,15-15C966.9,903,960.6,896.1,952.2,896.1z"/></g></g><g><g><path d="M527,664.9c0-34.4,0-68.8,0-103.3c0-54.9,0-109.8,0-164.7c0-12.6,0-25.3,0-37.9c0-7.8-6.9-15.4-15-15     c-8.1,0.4-15,6.6-15,15c0,34.4,0,68.8,0,103.3c0,54.9,0,109.8,0,164.7c0,12.6,0,25.3,0,37.9c0,7.8,6.9,15.4,15,15     C520.1,679.6,527,673.3,527,664.9L527,664.9z"/></g></g><g><g><path d="M178.1,664.9c0-44.5,0-89.1,0-133.6c0-6.4,0-12.8,0-19.2c-5,5-10,10-15,15c6.2,0,12.4,0,18.6,0     c17,0,33.9,0,50.9,0c25,0,50,0,74.9,0c30.6,0,61.2,0,91.9,0c33.4,0,66.8,0,100.2,0c33.7,0,67.4,0,101.1,0c31.6,0,63.2,0,94.7,0     c26.6,0,53.1,0,79.7,0c19.2,0,38.4,0,57.6,0c9,0,18.1,0.4,27.1,0c0.4,0,0.8,0,1.2,0c-5-5-10-10-15-15c0,44.5,0,89.1,0,133.6     c0,6.4,0,12.8,0,19.2c0,7.8,6.9,15.4,15,15c8.1-0.4,15-6.6,15-15c0-44.5,0-89.1,0-133.6c0-6.4,0-12.8,0-19.2c0-8.1-6.9-15-15-15     c-6.2,0-12.4,0-18.6,0c-17,0-33.9,0-50.9,0c-25,0-50,0-74.9,0c-30.6,0-61.2,0-91.9,0c-33.4,0-66.8,0-100.2,0     c-33.7,0-67.4,0-101.1,0c-31.6,0-63.2,0-94.7,0c-26.6,0-53.1,0-79.7,0c-19.2,0-38.4,0-57.6,0c-9,0-18.1-0.2-27.1,0     c-0.4,0-0.8,0-1.2,0c-8.1,0-15,6.9-15,15c0,44.5,0,89.1,0,133.6c0,6.4,0,12.8,0,19.2c0,7.8,6.9,15.4,15,15     C171.2,679.6,178.1,673.3,178.1,664.9L178.1,664.9z"/></g></g></g><text x="0" y="1039" fill="#000000" font-size="5px" font-weight="bold" font-family="'Helvetica Neue', Helvetica, Arial-Unicode, Arial, Sans-serif">Created by shashank singh</text><text x="0" y="1044" fill="#000000" font-size="5px" font-weight="bold" font-family="'Helvetica Neue', Helvetica, Arial-Unicode, Arial, Sans-serif">from the Noun Project</text></svg>