<svg xmlns="http://www.w3.org/2000/svg" data-name="Layer 1" viewBox="0 0 128 160" x="0px" y="0px" ><title>expand lines</title><path d="M78.67,62a21.08,21.08,0,0,1-5.78,4h5.72C87.09,66,94,72.48,94,80.45V112H84V102a2,2,0,1,0-4,0v10H48V102a2,2,0,1,0-4,0v10H34V80.45C34,72.48,40.91,66,49.4,66h5.72a21.08,21.08,0,0,1-5.78-4C38.65,62,30,70.28,30,80.45v31.87A3.79,3.79,0,0,0,33.88,116H94.12A3.78,3.78,0,0,0,98,112.31V80.45C98,70.28,89.35,62,78.67,62Z"/><path d="M64,64A17,17,0,1,0,47,47,17,17,0,0,0,64,64Zm0-30A13,13,0,1,1,51,47,13,13,0,0,1,64,34Z"/><circle cx="118" cy="36" r="2"/><path d="M109.34,9.33a2,2,0,0,0,2.55-1.23A6.21,6.21,0,0,1,117.78,4,6.15,6.15,0,0,1,124,10.06a6,6,0,0,1-6,6.06,2,2,0,0,0-2,2V28a2,2,0,1,0,4,0V19.92a9.92,9.92,0,0,0,8-9.87,10.25,10.25,0,0,0-19.89-3.27A2,2,0,0,0,109.34,9.33Z"/><circle cx="118" cy="126" r="2"/><path d="M117.78,90a10.21,10.21,0,0,0-9.67,6.79,2,2,0,0,0,3.78,1.32A6.21,6.21,0,0,1,117.78,94a6.15,6.15,0,0,1,6.22,6.06,6,6,0,0,1-6,6.06,2,2,0,0,0-2,2V118a2,2,0,1,0,4,0v-8.08a9.92,9.92,0,0,0,8-9.87A10.15,10.15,0,0,0,117.78,90Z"/><circle cx="10" cy="126" r="2"/><path d="M9.78,90A10.21,10.21,0,0,0,.11,96.79a2,2,0,0,0,3.78,1.32A6.21,6.21,0,0,1,9.78,94,6.15,6.15,0,0,1,16,100.06a6,6,0,0,1-6,6.06,2,2,0,0,0-2,2V118a2,2,0,1,0,4,0v-8.08a9.92,9.92,0,0,0,8-9.87A10.15,10.15,0,0,0,9.78,90Z"/><circle cx="96" cy="56" r="2"/><path d="M95.78,20a10.21,10.21,0,0,0-9.67,6.79,2,2,0,1,0,3.78,1.32A6.21,6.21,0,0,1,95.78,24,6.15,6.15,0,0,1,102,30.06a6,6,0,0,1-6,6.06,2,2,0,0,0-2,2V48a2,2,0,1,0,4,0V39.92a9.92,9.92,0,0,0,8-9.87A10.15,10.15,0,0,0,95.78,20Z"/><circle cx="10" cy="36" r="2"/><path d="M9.78,0A10.21,10.21,0,0,0,.11,6.79,2,2,0,1,0,3.89,8.11,6.21,6.21,0,0,1,9.78,4,6.15,6.15,0,0,1,16,10.06a6,6,0,0,1-6,6.06,2,2,0,0,0-2,2V28a2,2,0,1,0,4,0V19.92a9.92,9.92,0,0,0,8-9.87A10.15,10.15,0,0,0,9.78,0Z"/><circle cx="31" cy="56" r="2"/><path d="M37,30.06a6,6,0,0,1-6,6.06,2,2,0,0,0-2,2V48a2,2,0,1,0,4,0V39.92a9.92,9.92,0,0,0,8-9.87,10.25,10.25,0,0,0-19.89-3.27,2,2,0,1,0,3.78,1.32A6.21,6.21,0,0,1,30.78,24,6.15,6.15,0,0,1,37,30.06Z"/></svg>