<svg xmlns="http://www.w3.org/2000/svg" xmlns:xlink="http://www.w3.org/1999/xlink" viewBox="0 0 60 75" version="1.1" x="0px" y="0px"><title>Icon / blue / search</title><desc>Created with Sketch.</desc><g stroke="none" stroke-width="1" fill="none" fill-rule="evenodd"><path d="M26.5,9.5 C35.8888407,9.5 43.5,17.1111593 43.5,26.5 C43.5,30.6543626 42.0098305,34.4606775 39.5348562,37.41358 L50.5814755,48.4601551 C51.1672619,49.0459415 51.1672619,49.995689 50.5814755,50.5814755 C49.995689,51.1672619 49.0459415,51.1672619 48.4601551,50.5814755 L37.41358,39.5348562 C34.4606775,42.0098305 30.6543626,43.5 26.5,43.5 C17.1111593,43.5 9.5,35.8888407 9.5,26.5 C9.5,17.1111593 17.1111593,9.5 26.5,9.5 Z M26.5,12.5 C18.7680135,12.5 12.5,18.7680135 12.5,26.5 C12.5,34.2319865 18.7680135,40.5 26.5,40.5 C34.2319865,40.5 40.5,34.2319865 40.5,26.5 C40.5,18.7680135 34.2319865,12.5 26.5,12.5 Z" fill="#000000" fill-rule="nonzero"/></g></svg>